{
.appVersion = "3324";
.formatVersion = 3;
DisplayStrings = (
"/Softsign-cy.ss01 ЛЉ",
"",
"К/Ka-cy.ss01",
"z̵ƶ"
);
axes = (
{
name = Weight;
tag = wght;
}
);
classes = (
{
automatic = 1;

glyphs = (
{
glyphname = A;
kernLeft = A;
kernRight = A;
layers = (
{
anchors = (
{
name = bottom;
pos = (373,0);
},
{
name = ogonek;
pos = (669,0);
},
{
name = top;
pos = (456,686);
}
);
hints = (
{
name = _corner.caps_diag;
options = 1;
origin = (0,4);
scale = (-1,1);
type = Corner;
}
);
layerId = "0CAF3BED-C4AC-4024-B3E1-4C69D1EF7EC0";
shapes = (
{
closed = 1;
nodes = (
(669,0,l,{
"Letterink-NibData" = {
AngleInDegrees = "336.96218";
};
}),
(473,690,l,{
"Letterink-NibData" = {
AngleInDegrees = "270";
};
}),
(439,690,l,{
"Letterink-NibData" = {
AngleInDegrees = "202.82503";
};
}),
(109,92,l,{
"Letterink-NibData" = {
AngleInDegrees = "202.38014";
};
}),
(176,52,l,{
"Letterink-NibData" = {
AngleInDegrees = "22.71999";
};
}),
(281,243,l,{
"Letterink-NibData" = {
AngleInDegrees = "236.57519";
};
}),
(230,205,l,{
"Letterink-NibData" = {
AngleInDegrees = "90";
};
}),
(566,205,l,{
"Letterink-NibData" = {
AngleInDegrees = "303.42481";
};
}),
(513,268,l,{
"Letterink-NibData" = {
AngleInDegrees = "157.34811";
};
}),
(588,0,l,{
"Letterink-NibData" = {
AngleInDegrees = "90";
};
})
);
},
{
closed = 1;
nodes = (
(435,539,l,{
"Letterink-NibData" = {
AngleInDegrees = "8.130100000000001";
};
}),
(443,564,l,{
"Letterink-NibData" = {
AngleInDegrees = "171.8699";
};
}),
(448,534,l,{
"Letterink-NibData" = {
AngleInDegrees = "159.79358";
};
}),
(515,246,l,{
"Letterink-NibData" = {
AngleInDegrees = "35.21759";
};
}),
(557,279,l,{
"Letterink-NibData" = {
AngleInDegrees = "270";
};
}),
(296,279,l,{
"Letterink-NibData" = {
AngleInDegrees = "145.92281";
};
}),
(301,275,l,{
"Letterink-NibData" = {
AngleInDegrees = "20.73026";
};
})
);
}
);
width = 711;
},
{
anchors = (
{
name = bottom;
pos = (367,0);
},
{
name = ogonek;
pos = (659,0);
},
{
name = top;
pos = (453,684);
}
);
hints = (
{
name = _corner.caps_diag;
options = 1;
origin = (0,4);
scale = (-1,1);
type = Corner;
}
);
layerId = "49C16FD3-6177-408B-A733-AEB3898BB77C";
shapes = (
{
closed = 1;
nodes = (
(659,0,l,{
"Letterink-NibData" = {
AngleInDegrees = "337.30364";
};
}),
(457,692,l,{
"Letterink-NibData" = {
AngleInDegrees = "270";
};
}),
(451,692,l,{
"Letterink-NibData" = {
AngleInDegrees = "202.68401";
};
}),
(113,63,l,{
"Letterink-NibData" = {
AngleInDegrees = "202.61986";
};
}),
(146,45,l,{
"Letterink-NibData" = {
AngleInDegrees = "22.1315";
};
}),
(256,251,l,{
"Letterink-NibData" = {
AngleInDegrees = "235.7843";
};
}),
(225,234,l,{
"Letterink-NibData" = {
AngleInDegrees = "90";
};
}),
(566,234,l,{
"Letterink-NibData" = {
AngleInDegrees = "304.2157";
};
}),
(545,251,l,{
"Letterink-NibData" = {
AngleInDegrees = "157.41269";
};
}),
(618,0,l,{
"Letterink-NibData" = {
AngleInDegrees = "337.30364";
};
})
);
},
{
closed = 1;
nodes = (
(432,584,l,{
"Letterink-NibData" = {
AngleInDegrees = "16.29405";
};
}),
(445,617,l,{
"Letterink-NibData" = {
AngleInDegrees = "163.21735";
};
}),
(450,584,l,{
"Letterink-NibData" = {
AngleInDegrees = "158.19859";
};
}),
(543,257,l,{
"Letterink-NibData" = {
AngleInDegrees = "32.90524";
};
}),
(553,270,l,{
"Letterink-NibData" = {
AngleInDegrees = "270";
};
}),
(244,270,l,{
"Letterink-NibData" = {
AngleInDegrees = "147.09476";
};
}),
(259,257,l,{
"Letterink-NibData" = {
AngleInDegrees = "22.09423";
};
})
);
}
);
width = 709;
},
{
anchors = (
{
name = bottom;
pos = (401,0);
},
{
name = ogonek;
pos = (731,0);
},
{
name = top;
pos = (486,684);
}
);
hints = (
{
name = _corner.caps_diag;
options = 1;
origin = (0,4);
scale = (-1,1);
type = Corner;
}
);
layerId = m004;
shapes = (
{
closed = 1;
nodes = (
(731,0,l,{
"Letterink-NibData" = {
AngleInDegrees = "337.32254";
};
}),
(544,689,l,{
"Letterink-NibData" = {
AngleInDegrees = "270";
};
}),
(431,689,l,{
"Letterink-NibData" = {
AngleInDegrees = "202.53914";
};
}),
(142,138,l,{
"Letterink-NibData" = {
AngleInDegrees = "90";
};
}),
(277,52,l,{
"Letterink-NibData" = {
AngleInDegrees = "22.65189";
};
}),
(374,239,l,{
"Letterink-NibData" = {
AngleInDegrees = "236.57519";
};
}),
(262,141,l,{
"Letterink-NibData" = {
AngleInDegrees = "90";
};
}),
(580,141,l,{
"Letterink-NibData" = {
AngleInDegrees = "303.42481";
};
}),
(486,276,l,{
"Letterink-NibData" = {
AngleInDegrees = "156.96496";
};
}),
(558,0,l,{
"Letterink-NibData" = {
AngleInDegrees = "90";
};
})
);
},
{
closed = 1;
nodes = (
(477,470,l,{
"Letterink-NibData" = {
AngleInDegrees = "19.98311";
};
}),
(459,490,l,{
"Letterink-NibData" = {
AngleInDegrees = "161.56505";
};
}),
(441,472,l,{
"Letterink-NibData" = {
AngleInDegrees = "158.35875";
};
}),
(488,266,l,{
"Letterink-NibData" = {
AngleInDegrees = "34.87533";
};
}),
(561,279,l,{
"Letterink-NibData" = {
AngleInDegrees = "270";
};
}),
(374,279,l,{
"Letterink-NibData" = {
AngleInDegrees = "145.92281";
};
}),
(388,275,l,{
"Letterink-NibData" = {
AngleInDegrees = "21.36191";
};
})
);
}
);
width = 768;
}
);
unicode = 65;
userData = {
position = 666;
width = 20;
};
},
{
glyphname = A.ss01;
kernLeft = Atext;
kernRight = A;
layers = (
{
anchors = (
{
name = bottom;
pos = (291,0);
},
{
name = ogonek;
pos = (602,-1);
},
{
name = top;
pos = (376,690);
}
);
layerId = "0CAF3BED-C4AC-4024-B3E1-4C69D1EF7EC0";
shapes = (
{
closed = 1;
nodes = (
(71,0,l,{
"Letterink-NibData" = {
AngleInDegrees = 22.65189;
};
}),
(206,253,l,{
"Letterink-NibData" = {
AngleInDegrees = 236.57519;
};
}),
(149,210,l,{
"Letterink-NibData" = {
AngleInDegrees = 90;
};
}),
(482,210,l,{
"Letterink-NibData" = {
AngleInDegrees = 303.42481;
};
}),
(438,253,l,{
"Letterink-NibData" = {
AngleInDegrees = 156.96496;
};
}),
(514,0,l,{
"Letterink-NibData" = {
AngleInDegrees = 90;
};
}),
(601,0,l,{
"Letterink-NibData" = {
AngleInDegrees = 337.32254;
};
}),
(393,702,l,{
"Letterink-NibData" = {
AngleInDegrees = 270;
};
}),
(360,702,l,{
"Letterink-NibData" = {
AngleInDegrees = 202.53914;
};
}),
(-20,0,l,{
"Letterink-NibData" = {
AngleInDegrees = 90;
};
})
);
},
{
closed = 1;
nodes = (
(344,511,l,{
"Letterink-NibData" = {
AngleInDegrees = 19.98311;
};
}),
(359,553,l,{
"Letterink-NibData" = {
AngleInDegrees = 161.56505;
};
}),
(365,511,l,{
"Letterink-NibData" = {
AngleInDegrees = 158.35875;
};
}),
(433,260,l,{
"Letterink-NibData" = {
AngleInDegrees = 34.87533;
};
}),
(461,284,l,{
"Letterink-NibData" = {
AngleInDegrees = 270;
};
}),
(190,284,l,{
"Letterink-NibData" = {
AngleInDegrees = 145.92281;
};
}),
(213,260,l,{
"Letterink-NibData" = {
AngleInDegrees = 21.36191;
};
})
);
}
);
width = 643;
},
{
anchors = (
{
name = bottom;
pos = (289,-2);
},
{
name = ogonek;
pos = (591,1);
},
{
name = top;
pos = (372,684);
}
);
layerId = "49C16FD3-6177-408B-A733-AEB3898BB77C";
shapes = (
{
closed = 1;
nodes = (
(29,0,l,{
"Letterink-NibData" = {
AngleInDegrees = 22.78241;
};
}),
(164,251,l,{
"Letterink-NibData" = {
AngleInDegrees = 235.7843;
};
}),
(141,236,l,{
"Letterink-NibData" = {
AngleInDegrees = 90;
};
}),
(494,236,l,{
"Letterink-NibData" = {
AngleInDegrees = 304.2157;
};
}),
(475,251,l,{
"Letterink-NibData" = {
AngleInDegrees = 157.02305;
};
}),
(550,0,l,{
"Letterink-NibData" = {
AngleInDegrees = 90;
};
}),
(591,0,l,{
"Letterink-NibData" = {
AngleInDegrees = 336.95898;
};
}),
(379,699,l,{
"Letterink-NibData" = {
AngleInDegrees = 270;
};
}),
(370,699,l,{
"Letterink-NibData" = {
AngleInDegrees = 202.90284;
};
}),
(-12,0,l,{
"Letterink-NibData" = {
AngleInDegrees = 90;
};
})
);
},
{
closed = 1;
nodes = (
(347,585,l,{
"Letterink-NibData" = {
AngleInDegrees = 22.61986;
};
}),
(367,631,l,{
"Letterink-NibData" = {
AngleInDegrees = 160.34617;
};
}),
(375,587,l,{
"Letterink-NibData" = {
AngleInDegrees = 157.39526;
};
}),
(473,257,l,{
"Letterink-NibData" = {
AngleInDegrees = 32.90524;
};
}),
(485,272,l,{
"Letterink-NibData" = {
AngleInDegrees = 270;
};
}),
(160,272,l,{
"Letterink-NibData" = {
AngleInDegrees = 147.09476;
};
}),
(168,257,l,{
"Letterink-NibData" = {
AngleInDegrees = 22.96683;
};
})
);
}
);
width = 641;
},
{
anchors = (
{
name = bottom;
pos = (317,0);
},
{
name = ogonek;
pos = (657,0);
},
{
name = top;
pos = (401,694);
}
);
layerId = m004;
shapes = (
{
closed = 1;
nodes = (
(158,0,l,{
"Letterink-NibData" = {
AngleInDegrees = 22.65189;
};
}),
(293,257,l,{
"Letterink-NibData" = {
AngleInDegrees = 236.57519;
};
}),
(178,146,l,{
"Letterink-NibData" = {
AngleInDegrees = 90;
};
}),
(488,146,l,{
"Letterink-NibData" = {
AngleInDegrees = 303.42481;
};
}),
(402,257,l,{
"Letterink-NibData" = {
AngleInDegrees = 156.96496;
};
}),
(480,0,l,{
"Letterink-NibData" = {
AngleInDegrees = 90;
};
}),
(656,0,l,{
"Letterink-NibData" = {
AngleInDegrees = 337.32254;
};
}),
(447,694,l,{
"Letterink-NibData" = {
AngleInDegrees = 270;
};
}),
(361,694,l,{
"Letterink-NibData" = {
AngleInDegrees = 202.53914;
};
}),
(-25,0,l,{
"Letterink-NibData" = {
AngleInDegrees = 90;
};
})
);
},
{
closed = 1;
nodes = (
(398,480,l,{
"Letterink-NibData" = {
AngleInDegrees = 19.98311;
};
}),
(374,484,l,{
"Letterink-NibData" = {
AngleInDegrees = 161.56505;
};
}),
(349,480,l,{
"Letterink-NibData" = {
AngleInDegrees = 158.35875;
};
}),
(398,272,l,{
"Letterink-NibData" = {
AngleInDegrees = 34.87533;
};
}),
(445,288,l,{
"Letterink-NibData" = {
AngleInDegrees = 270;
};
}),
(254,288,l,{
"Letterink-NibData" = {
AngleInDegrees = 145.92281;
};
}),
(302,268,l,{
"Letterink-NibData" = {
AngleInDegrees = 21.36191;
};
})
);
}
);
width = 693;
}
);
metricLeft = "=|A";
metricRight = A;
userData = {
position = 10;
width = 615;
};
},
{
glyphname = A.swsh;
kernLeft = A.swsh;
kernRight = A;
layers = (
{
anchors = (
{
name = bottom;
pos = (404,0);
},
{
name = ogonek;
pos = (713,0);
},
{
name = top;
pos = (486,684);
}
);
hints = (
{
name = _corner.caps_swash_diag;
options = 1;
origin = (0,4);
scale = (-1,1);
type = Corner;
},
{
name = _corner.caps_swash.big;
origin = (2,2);
type = Corner;
}
);
layerId = "0CAF3BED-C4AC-4024-B3E1-4C69D1EF7EC0";
shapes = (
{
closed = 1;
nodes = (
(712,0,l,{
"Letterink-NibData" = {
AngleInDegrees = "336.96218";
};
}),
(511,685,l,{
"Letterink-NibData" = {
AngleInDegrees = "270";
};
}),
(464,685,l,{
"Letterink-NibData" = {
AngleInDegrees = "202.82503";
};
}),
(145,97,l,{
"Letterink-NibData" = {
AngleInDegrees = "202.38014";
};
}),
(214,53,l,{
"Letterink-NibData" = {
AngleInDegrees = "22.71999";
};
}),
(319,253,l,{
"Letterink-NibData" = {
AngleInDegrees = "236.57519";
};
}),
(263,210,l,{
"Letterink-NibData" = {
AngleInDegrees = "90";
};
}),
(595,210,l,{
"Letterink-NibData" = {
AngleInDegrees = "303.42481";
};
}),
(551,253,l,{
"Letterink-NibData" = {
AngleInDegrees = "157.34811";
};
}),
(627,0,l,{
"Letterink-NibData" = {
AngleInDegrees = "90";
};
})
);
},
{
closed = 1;
nodes = (
(464,541,l,{
"Letterink-NibData" = {
AngleInDegrees = 8.1301;
};
}),
(474,571,l,{
"Letterink-NibData" = {
AngleInDegrees = "171.8699";
};
}),
(477,541,l,{
"Letterink-NibData" = {
AngleInDegrees = "159.79358";
};
}),
(547,260,l,{
"Letterink-NibData" = {
AngleInDegrees = "35.21759";
};
}),
(572,284,l,{
"Letterink-NibData" = {
AngleInDegrees = "270";
};
}),
(304,284,l,{
"Letterink-NibData" = {
AngleInDegrees = "145.92281";
};
}),
(324,260,l,{
"Letterink-NibData" = {
AngleInDegrees = "20.73026";
};
})
);
},
{
closed = 1;
nodes = (
(484,609,l),
(493,685,l,{
"Letterink-NibData" = {
AngleInDegrees = "270";
};
}),
(310,685,l,{
"Letterink-NibData" = {
AngleInDegrees = "180";
};
}),
(311,609,l,{
"Letterink-NibData" = {
AngleInDegrees = "90";
};
})
);
}
);
width = 754;
},
{
anchors = (
{
name = bottom;
pos = (411,0);
},
{
name = ogonek;
pos = (703,1);
},
{
name = top;
pos = (496,684);
}
);
hints = (
{
name = _corner.caps_swash_diag;
options = 1;
origin = (0,4);
scale = (-1,1);
type = Corner;
},
{
name = _corner.caps_swash.big;
origin = (2,2);
type = Corner;
}
);
layerId = "49C16FD3-6177-408B-A733-AEB3898BB77C";
shapes = (
{
closed = 1;
nodes = (
(703,0,l,{
"Letterink-NibData" = {
AngleInDegrees = "337.30364";
};
}),
(500,684,l,{
"Letterink-NibData" = {
AngleInDegrees = "270";
};
}),
(491,684,l,{
"Letterink-NibData" = {
AngleInDegrees = "202.68401";
};
}),
(152,70,l,{
"Letterink-NibData" = {
AngleInDegrees = "202.61986";
};
}),
(186,54,l,{
"Letterink-NibData" = {
AngleInDegrees = "22.1315";
};
}),
(293,251,l,{
"Letterink-NibData" = {
AngleInDegrees = "235.7843";
};
}),
(268,234,l,{
"Letterink-NibData" = {
AngleInDegrees = "90";
};
}),
(609,234,l,{
"Letterink-NibData" = {
AngleInDegrees = "304.2157";
};
}),
(590,251,l,{
"Letterink-NibData" = {
AngleInDegrees = "157.41269";
};
}),
(662,0,l,{
"Letterink-NibData" = {
AngleInDegrees = "90";
};
})
);
},
{
closed = 1;
nodes = (
(469,576,l,{
"Letterink-NibData" = {
AngleInDegrees = "16.29405";
};
}),
(487,619,l,{
"Letterink-NibData" = {
AngleInDegrees = "163.21735";
};
}),
(496,576,l,{
"Letterink-NibData" = {
AngleInDegrees = "158.19859";
};
}),
(587,257,l,{
"Letterink-NibData" = {
AngleInDegrees = "32.90524";
};
}),
(597,270,l,{
"Letterink-NibData" = {
AngleInDegrees = "270";
};
}),
(288,270,l,{
"Letterink-NibData" = {
AngleInDegrees = "147.09476";
};
}),
(297,257,l,{
"Letterink-NibData" = {
AngleInDegrees = "22.09423";
};
})
);
},
{
closed = 1;
nodes = (
(490,648,l),
(494,684,l,{
"Letterink-NibData" = {
AngleInDegrees = "270";
};
}),
(321,684,l,{
"Letterink-NibData" = {
AngleInDegrees = "180";
};
}),
(322,648,l,{
"Letterink-NibData" = {
AngleInDegrees = "90";
};
})
);
}
);
width = 753;
},
{
anchors = (
{
name = bottom;
pos = (487,0);
},
{
name = ogonek;
pos = (829,0);
},
{
name = top;
pos = (571,694);
}
);
hints = (
{
name = _corner.caps_swash_diag;
options = 1;
origin = (0,4);
scale = (-1,1);
type = Corner;
},
{
name = _corner.caps_swash.big;
origin = (2,2);
type = Corner;
}
);
layerId = m004;
shapes = (
{
closed = 1;
nodes = (
(828,0,l,{
"Letterink-NibData" = {
AngleInDegrees = "337.32254";
};
}),
(644,684,l,{
"Letterink-NibData" = {
AngleInDegrees = "270";
};
}),
(498,684,l,{
"Letterink-NibData" = {
AngleInDegrees = "202.53914";
};
}),
(211,152,l,{
"Letterink-NibData" = {
AngleInDegrees = "90";
};
}),
(352,77,l,{
"Letterink-NibData" = {
AngleInDegrees = "22.65189";
};
}),
(457,258,l,{
"Letterink-NibData" = {
AngleInDegrees = "236.57519";
};
}),
(350,146,l,{
"Letterink-NibData" = {
AngleInDegrees = "90";
};
}),
(660,146,l,{
"Letterink-NibData" = {
AngleInDegrees = "303.42481";
};
}),
(579,257,l,{
"Letterink-NibData" = {
AngleInDegrees = "156.96496";
};
}),
(657,0,l,{
"Letterink-NibData" = {
AngleInDegrees = "90";
};
})
);
},
{
closed = 1;
nodes = (
(564,480,l,{
"Letterink-NibData" = {
AngleInDegrees = "19.98311";
};
}),
(546,484,l,{
"Letterink-NibData" = {
AngleInDegrees = "161.56505";
};
}),
(528,480,l,{
"Letterink-NibData" = {
AngleInDegrees = "158.35875";
};
}),
(570,272,l,{
"Letterink-NibData" = {
AngleInDegrees = "34.87533";
};
}),
(617,288,l,{
"Letterink-NibData" = {
AngleInDegrees = "270";
};
}),
(426,288,l,{
"Letterink-NibData" = {
AngleInDegrees = "145.92281";
};
}),
(470,268,l,{
"Letterink-NibData" = {
AngleInDegrees = "21.36191";
};
})
);
},
{
closed = 1;
nodes = (
(580,536,l),
(598,684,l,{
"Letterink-NibData" = {
AngleInDegrees = "270";
};
}),
(362,684,l,{
"Letterink-NibData" = {
AngleInDegrees = "180";
};
}),
(360,535,l)
);
}
);
width = 865;
}
);
metricLeft = A;
metricRight = A;
userData = {
position = 666;
width = 20;
};
},
{
glyphname = AE;
kernLeft = A;
kernRight = E;
layers = (
{
anchors = (
{
name = bottom;
pos = (501,0);
},
{
name = top;
pos = (595,684);
}
);
hints = (
{
name = _corner.caps_diag;
options = 1;
origin = (0,12);
scale = (-1,1);
type = Corner;
}
);
layerId = "0CAF3BED-C4AC-4024-B3E1-4C69D1EF7EC0";
shapes = (
{
closed = 1;
nodes = (
(878,-1,l),
(887,75,l,{
"Letterink-NibData" = {
AngleInDegrees = 270;
};
}),
(532,75,l),
(563,325,l,{
"Letterink-NibData" = {
AngleInDegrees = 90;
};
}),
(800,325,l),
(809,401,l,{
"Letterink-NibData" = {
AngleInDegrees = 270;
};
}),
(572,401,l),
(598,610,l,{
"Letterink-NibData" = {
AngleInDegrees = 90;
};
}),
(933,610,l),
(942,686,l,{
"Letterink-NibData" = {
AngleInDegrees = 270;
};
}),
(493,686,l,{
"Letterink-NibData" = {
AngleInDegrees = 208.5766;
};
}),
(114,82,l,{
"Letterink-NibData" = {
AngleInDegrees = 209.0546;
};
}),
(176,34,l,{
"Letterink-NibData" = {
AngleInDegrees = 26.8249;
};
}),
(306,252,l,{
"Letterink-NibData" = {
AngleInDegrees = 90;
};
}),
(243,210,l,{
"Letterink-NibData" = {
AngleInDegrees = 90;
};
}),
(502,210,l,{
"Letterink-NibData" = {
AngleInDegrees = 180;
};
}),
(472,256,l,{
"Letterink-NibData" = {
AngleInDegrees = 180;
};
}),
(441,-1,l,{
"Letterink-NibData" = {
AngleInDegrees = 90;
};
})
);
},
{
closed = 1;
nodes = (
(513,286,l,{
"Letterink-NibData" = {
AngleInDegrees = 270;
};
}),
(298,286,l,{
"Letterink-NibData" = {
AngleInDegrees = 28.71031;
};
}),
(315,264,l,{
"Letterink-NibData" = {
AngleInDegrees = 28.71031;
};
}),
(490,537,l,{
"Letterink-NibData" = {
AngleInDegrees = 23.19859;
};
}),
(513,586,l,{
"Letterink-NibData" = {
AngleInDegrees = 180;
};
}),
(473,260,l,{
"Letterink-NibData" = {
AngleInDegrees = 270;
};
})
);
}
);
width = 934;
},
{
anchors = (
{
name = bottom;
pos = (520,0);
},
{
name = top;
pos = (646,684);
}
);
hints = (
{
name = _corner.caps_diag;
origin = (0,12);
scale = (-1,1);
type = Corner;
}
);
layerId = "49C16FD3-6177-408B-A733-AEB3898BB77C";
shapes = (
{
closed = 1;
nodes = (
(893,1,l),
(898,37,l,{
"Letterink-NibData" = {
AngleInDegrees = 270;
};
}),
(518,37,l),
(555,346,l,{
"Letterink-NibData" = {
AngleInDegrees = 90;
};
}),
(811,346,l),
(816,382,l,{
"Letterink-NibData" = {
AngleInDegrees = 270;
};
}),
(560,382,l),
(593,649,l,{
"Letterink-NibData" = {
AngleInDegrees = 90;
};
}),
(953,649,l),
(957,685,l,{
"Letterink-NibData" = {
AngleInDegrees = 270;
};
}),
(531,685,l,{
"Letterink-NibData" = {
AngleInDegrees = 208.82166;
};
}),
(117,56,l,{
"Letterink-NibData" = {
AngleInDegrees = 213.69007;
};
}),
(150,38,l,{
"Letterink-NibData" = {
AngleInDegrees = 29.29136;
};
}),
(282,249,l,{
"Letterink-NibData" = {
AngleInDegrees = 90;
};
}),
(257,237,l,{
"Letterink-NibData" = {
AngleInDegrees = 90;
};
}),
(521,237,l,{
"Letterink-NibData" = {
AngleInDegrees = 180;
};
}),
(507,253,l,{
"Letterink-NibData" = {
AngleInDegrees = 180;
};
}),
(476,1,l,{
"Letterink-NibData" = {
AngleInDegrees = 90;
};
})
);
},
{
closed = 1;
nodes = (
(526,273,l,{
"Letterink-NibData" = {
AngleInDegrees = 270;
};
}),
(280,273,l,{
"Letterink-NibData" = {
AngleInDegrees = 28.59795;
};
}),
(289,259,l,{
"Letterink-NibData" = {
AngleInDegrees = 28.59795;
};
}),
(533,627,l,{
"Letterink-NibData" = {
AngleInDegrees = 27.32389;
};
}),
(558,663,l,{
"Letterink-NibData" = {
AngleInDegrees = 179.84962;
};
}),
(508,257,l,{
"Letterink-NibData" = {
AngleInDegrees = 270;
};
})
);
}
);
width = 948;
},
{
anchors = (
{
name = bottom;
pos = (593,0);
},
{
name = top;
pos = (688,684);
}
);
hints = (
{
name = _corner.caps_diag;
origin = (0,12);
scale = (-1,1);
type = Corner;
}
);
layerId = m004;
shapes = (
{
closed = 1;
nodes = (
(936,0,l),
(954,148,l,{
"Letterink-NibData" = {
AngleInDegrees = "270";
};
}),
(655,148,l),
(672,281,l,{
"Letterink-NibData" = {
AngleInDegrees = "90";
};
}),
(861,281,l),
(879,429,l,{
"Letterink-NibData" = {
AngleInDegrees = "270";
};
}),
(690,429,l),
(703,536,l,{
"Letterink-NibData" = {
AngleInDegrees = "90";
};
}),
(982,536,l),
(1000,685,l,{
"Letterink-NibData" = {
AngleInDegrees = "270";
};
}),
(487,684,l,{
"Letterink-NibData" = {
AngleInDegrees = "209.70894";
};
}),
(141,140,l,{
"Letterink-NibData" = {
AngleInDegrees = "89.3704";
};
}),
(279,60,l,{
"Letterink-NibData" = {
AngleInDegrees = "28.81079";
};
}),
(396,256,l,{
"Letterink-NibData" = {
AngleInDegrees = "90";
};
}),
(290,146,l,{
"Letterink-NibData" = {
AngleInDegrees = "90";
};
}),
(559,146,l,{
"Letterink-NibData" = {
AngleInDegrees = "180";
};
}),
(501,240,l,{
"Letterink-NibData" = {
AngleInDegrees = "180";
};
}),
(472,0,l,{
"Letterink-NibData" = {
AngleInDegrees = "90";
};
})
);
},
{
closed = 1;
nodes = (
(579,296,l,{
"Letterink-NibData" = {
AngleInDegrees = "270";
};
}),
(391,296,l,{
"Letterink-NibData" = {
AngleInDegrees = "28.68615";
};
}),
(427,279,l,{
"Letterink-NibData" = {
AngleInDegrees = "28.68615";
};
}),
(520,450,l),
(531,477,l,{
"Letterink-NibData" = {
AngleInDegrees = "23.62938";
};
}),
(506,275,l,{
"Letterink-NibData" = {
AngleInDegrees = "270";
};
})
);
}
);
width = 995;
}
);
unicode = 198;
userData = {
position = 422;
width = 61;
};
},
{
glyphname = AE.ss01;
kernLeft = Atext;
kernRight = E;
layers = (
{
anchors = (
{
name = bottom;
pos = (459,0);
},
{
name = top;
pos = (553,673);
}
);
layerId = "0CAF3BED-C4AC-4024-B3E1-4C69D1EF7EC0";
shapes = (
{
closed = 1;
nodes = (
(82,0,l,{
"Letterink-NibData" = {
AngleInDegrees = 28.81079;
};
}),
(250,252,l,{
"Letterink-NibData" = {
AngleInDegrees = 90;
};
}),
(191,210,l,{
"Letterink-NibData" = {
AngleInDegrees = 90;
};
}),
(460,210,l,{
"Letterink-NibData" = {
AngleInDegrees = 180;
};
}),
(429,256,l,{
"Letterink-NibData" = {
AngleInDegrees = 180;
};
}),
(398,-1,l,{
"Letterink-NibData" = {
AngleInDegrees = 90;
};
}),
(826,-1,l),
(835,75,l,{
"Letterink-NibData" = {
AngleInDegrees = 270;
};
}),
(490,75,l),
(521,325,l,{
"Letterink-NibData" = {
AngleInDegrees = 90;
};
}),
(748,325,l),
(757,401,l,{
"Letterink-NibData" = {
AngleInDegrees = 270;
};
}),
(530,401,l),
(556,610,l,{
"Letterink-NibData" = {
AngleInDegrees = 90;
};
}),
(881,610,l),
(890,686,l,{
"Letterink-NibData" = {
AngleInDegrees = 270;
};
}),
(457,686,l,{
"Letterink-NibData" = {
AngleInDegrees = 209.70894;
};
}),
(-20,-1,l,{
"Letterink-NibData" = {
AngleInDegrees = 89.3704;
};
})
);
},
{
closed = 1;
nodes = (
(471,286,l,{
"Letterink-NibData" = {
AngleInDegrees = 270;
};
}),
(240,286,l,{
"Letterink-NibData" = {
AngleInDegrees = 28.68615;
};
}),
(257,264,l,{
"Letterink-NibData" = {
AngleInDegrees = 28.68615;
};
}),
(455,561,l,{
"Letterink-NibData" = {
AngleInDegrees = 23.62938;
};
}),
(471,593,l,{
"Letterink-NibData" = {
AngleInDegrees = 180;
};
}),
(430,260,l,{
"Letterink-NibData" = {
AngleInDegrees = 270;
};
})
);
}
);
width = 880;
},
{
anchors = (
{
name = bottom;
pos = (422,0);
},
{
name = top;
pos = (579,684);
}
);
layerId = "49C16FD3-6177-408B-A733-AEB3898BB77C";
shapes = (
{
closed = 1;
nodes = (
(33,1,l,{
"Letterink-NibData" = {
AngleInDegrees = 28.2127;
};
}),
(197,250,l,{
"Letterink-NibData" = {
AngleInDegrees = 90;
};
}),
(161,236,l,{
"Letterink-NibData" = {
AngleInDegrees = 90;
};
}),
(423,236,l,{
"Letterink-NibData" = {
AngleInDegrees = 180;
};
}),
(408,252,l,{
"Letterink-NibData" = {
AngleInDegrees = 180;
};
}),
(377,1,l,{
"Letterink-NibData" = {
AngleInDegrees = 90;
};
}),
(798,1,l),
(803,37,l,{
"Letterink-NibData" = {
AngleInDegrees = 270;
};
}),
(420,37,l),
(457,346,l,{
"Letterink-NibData" = {
AngleInDegrees = 90;
};
}),
(717,346,l),
(722,382,l,{
"Letterink-NibData" = {
AngleInDegrees = 270;
};
}),
(462,382,l),
(495,649,l,{
"Letterink-NibData" = {
AngleInDegrees = 90;
};
}),
(858,649,l),
(862,685,l,{
"Letterink-NibData" = {
AngleInDegrees = 270;
};
}),
(443,685,l,{
"Letterink-NibData" = {
AngleInDegrees = 208.86222;
};
}),
(-12,1,l,{
"Letterink-NibData" = {
AngleInDegrees = 90;
};
})
);
},
{
closed = 1;
nodes = (
(428,272,l,{
"Letterink-NibData" = {
AngleInDegrees = 270;
};
}),
(182,272,l,{
"Letterink-NibData" = {
AngleInDegrees = 28.9193;
};
}),
(203,257,l,{
"Letterink-NibData" = {
AngleInDegrees = 28.9193;
};
}),
(429,601,l,{
"Letterink-NibData" = {
AngleInDegrees = 32.55;
};
}),
(457,650,l,{
"Letterink-NibData" = {
AngleInDegrees = 180;
};
}),
(409,256,l,{
"Letterink-NibData" = {
AngleInDegrees = 270;
};
})
);
}
);
width = 853;
},
{
anchors = (
{
name = bottom;
pos = (418,0);
},
{
name = top;
pos = (585,684);
}
);
layerId = m004;
shapes = (
{
closed = 1;
nodes = (
(174,1,l,{
"Letterink-NibData" = {
AngleInDegrees = "28.81079";
};
}),
(342,256,l,{
"Letterink-NibData" = {
AngleInDegrees = "90";
};
}),
(236,146,l,{
"Letterink-NibData" = {
AngleInDegrees = "90";
};
}),
(505,146,l,{
"Letterink-NibData" = {
AngleInDegrees = "180";
};
}),
(449,264,l,{
"Letterink-NibData" = {
AngleInDegrees = "180";
};
}),
(418,0,l,{
"Letterink-NibData" = {
AngleInDegrees = "90";
};
}),
(882,0,l),
(900,148,l,{
"Letterink-NibData" = {
AngleInDegrees = "270";
};
}),
(601,148,l),
(618,281,l,{
"Letterink-NibData" = {
AngleInDegrees = "90";
};
}),
(807,281,l),
(825,429,l,{
"Letterink-NibData" = {
AngleInDegrees = "270";
};
}),
(636,429,l),
(649,536,l,{
"Letterink-NibData" = {
AngleInDegrees = "90";
};
}),
(928,536,l),
(946,684,l,{
"Letterink-NibData" = {
AngleInDegrees = "270";
};
}),
(432,684,l,{
"Letterink-NibData" = {
AngleInDegrees = "209.70894";
};
}),
(-25,0,l,{
"Letterink-NibData" = {
AngleInDegrees = "89.3704";
};
})
);
},
{
closed = 1;
nodes = (
(525,296,l,{
"Letterink-NibData" = {
AngleInDegrees = "270";
};
}),
(337,296,l,{
"Letterink-NibData" = {
AngleInDegrees = "28.68615";
};
}),
(373,279,l,{
"Letterink-NibData" = {
AngleInDegrees = "28.68615";
};
}),
(480,488,l,{
"Letterink-NibData" = {
AngleInDegrees = "23.62938";
};
}),
(473,449,l,{
"Letterink-NibData" = {
AngleInDegrees = "180";
};
}),
(452,275,l,{
"Letterink-NibData" = {
AngleInDegrees = "270";
};
})
);
}
);
width = 942;
}
);
metricLeft = A.ss01;
metricRight = E;
userData = {
position = 422;
width = 61;
};
},
{
glyphname = AE.swsh;
kernLeft = A;
kernRight = E;
layers = (
{
anchors = (
{
name = bottom;
pos = (590,0);
},
{
name = top;
pos = (601,673);
}
);
hints = (
{
name = _corner.caps_swash_diag;
options = 2;
origin = (0,12);
scale = (-1,1);
type = Corner;
},
{
name = _corner.caps_swash.big;
origin = (2,2);
type = Corner;
}
);
layerId = "0CAF3BED-C4AC-4024-B3E1-4C69D1EF7EC0";
shapes = (
{
closed = 1;
nodes = (
(916,-1,l),
(926,75,l,{
"Letterink-NibData" = {
AngleInDegrees = 270;
};
}),
(571,75,l),
(601,325,l,{
"Letterink-NibData" = {
AngleInDegrees = 90;
};
}),
(838,325,l),
(848,401,l,{
"Letterink-NibData" = {
AngleInDegrees = 270;
};
}),
(611,401,l),
(636,610,l,{
"Letterink-NibData" = {
AngleInDegrees = 90;
};
}),
(971,610,l),
(981,686,l,{
"Letterink-NibData" = {
AngleInDegrees = 270;
};
}),
(530,686,l,{
"Letterink-NibData" = {
AngleInDegrees = 208.5766;
};
}),
(145,93,l,{
"Letterink-NibData" = {
AngleInDegrees = 209.0546;
};
}),
(215,50,l,{
"Letterink-NibData" = {
AngleInDegrees = 26.8249;
};
}),
(339,252,l,{
"Letterink-NibData" = {
AngleInDegrees = 90;
};
}),
(282,210,l,{
"Letterink-NibData" = {
AngleInDegrees = 90;
};
}),
(541,210,l,{
"Letterink-NibData" = {
AngleInDegrees = 180;
};
}),
(511,256,l,{
"Letterink-NibData" = {
AngleInDegrees = 180;
};
}),
(479,-1,l,{
"Letterink-NibData" = {
AngleInDegrees = 90;
};
})
);
},
{
closed = 1;
nodes = (
(550,286,l,{
"Letterink-NibData" = {
AngleInDegrees = 270;
};
}),
(335,286,l,{
"Letterink-NibData" = {
AngleInDegrees = 28.71031;
};
}),
(352,264,l,{
"Letterink-NibData" = {
AngleInDegrees = 28.71031;
};
}),
(529,537,l,{
"Letterink-NibData" = {
AngleInDegrees = 23.19859;
};
}),
(551,586,l,{
"Letterink-NibData" = {
AngleInDegrees = 180;
};
}),
(511,260,l,{
"Letterink-NibData" = {
AngleInDegrees = 270;
};
})
);
},
{
closed = 1;
nodes = (
(521,609,l),
(530,685,l,{
"Letterink-NibData" = {
AngleInDegrees = "270";
};
}),
(347,685,l,{
"Letterink-NibData" = {
AngleInDegrees = "180";
};
}),
(348,609,l,{
"Letterink-NibData" = {
AngleInDegrees = "90";
};
})
);
}
);
width = 969;
},
{
anchors = (
{
name = bottom;
pos = (560,0);
},
{
name = top;
pos = (653,694);
}
);
hints = (
{
name = _corner.caps_swash_diag;
origin = (0,12);
scale = (-1,1);
type = Corner;
},
{
name = _corner.caps_swash.big;
origin = (2,2);
type = Corner;
}
);
layerId = "49C16FD3-6177-408B-A733-AEB3898BB77C";
shapes = (
{
closed = 1;
nodes = (
(932,1,l),
(937,37,l,{
"Letterink-NibData" = {
AngleInDegrees = 270;
};
}),
(558,37,l),
(595,346,l,{
"Letterink-NibData" = {
AngleInDegrees = 90;
};
}),
(851,346,l),
(856,382,l,{
"Letterink-NibData" = {
AngleInDegrees = 270;
};
}),
(600,382,l),
(633,649,l,{
"Letterink-NibData" = {
AngleInDegrees = 90;
};
}),
(992,649,l),
(996,685,l,{
"Letterink-NibData" = {
AngleInDegrees = 270;
};
}),
(579,685,l,{
"Letterink-NibData" = {
AngleInDegrees = 208.82166;
};
}),
(150,61,l,{
"Letterink-NibData" = {
AngleInDegrees = 213.69007;
};
}),
(181,40,l,{
"Letterink-NibData" = {
AngleInDegrees = 29.29136;
};
}),
(327,249,l,{
"Letterink-NibData" = {
AngleInDegrees = 90;
};
}),
(297,237,l,{
"Letterink-NibData" = {
AngleInDegrees = 90;
};
}),
(560,237,l,{
"Letterink-NibData" = {
AngleInDegrees = 180;
};
}),
(546,253,l,{
"Letterink-NibData" = {
AngleInDegrees = 180;
};
}),
(515,1,l,{
"Letterink-NibData" = {
AngleInDegrees = 90;
};
})
);
},
{
closed = 1;
nodes = (
(565,273,l,{
"Letterink-NibData" = {
AngleInDegrees = 270;
};
}),
(320,273,l,{
"Letterink-NibData" = {
AngleInDegrees = 28.59795;
};
}),
(331,259,l,{
"Letterink-NibData" = {
AngleInDegrees = 28.59795;
};
}),
(562,600,l,{
"Letterink-NibData" = {
AngleInDegrees = 27.32389;
};
}),
(594,650,l,{
"Letterink-NibData" = {
AngleInDegrees = 179.84962;
};
}),
(547,257,l,{
"Letterink-NibData" = {
AngleInDegrees = 270;
};
})
);
},
{
closed = 1;
nodes = (
(574,648,l),
(578,684,l,{
"Letterink-NibData" = {
AngleInDegrees = "270";
};
}),
(375,684,l,{
"Letterink-NibData" = {
AngleInDegrees = "180";
};
}),
(376,648,l,{
"Letterink-NibData" = {
AngleInDegrees = "90";
};
})
);
}
);
width = 985;
},
{
anchors = (
{
name = bottom;
pos = (575,0);
},
{
name = top;
pos = (707,673);
}
);
hints = (
{
name = _corner.caps_swash_diag;
options = 1;
origin = (0,12);
scale = (-1,1);
type = Corner;
},
{
name = _corner.caps_swash.big;
origin = (2,2);
type = Corner;
}
);
layerId = m004;
shapes = (
{
closed = 1;
nodes = (
(999,0,l),
(1017,148,l,{
"Letterink-NibData" = {
AngleInDegrees = "270";
};
}),
(718,148,l),
(736,291,l,{
"Letterink-NibData" = {
AngleInDegrees = "90";
};
}),
(925,291,l),
(943,439,l,{
"Letterink-NibData" = {
AngleInDegrees = "270";
};
}),
(754,439,l),
(766,536,l,{
"Letterink-NibData" = {
AngleInDegrees = "90";
};
}),
(1045,536,l),
(1063,684,l,{
"Letterink-NibData" = {
AngleInDegrees = "270";
};
}),
(559,684,l,{
"Letterink-NibData" = {
AngleInDegrees = "209.70894";
};
}),
(211,151,l,{
"Letterink-NibData" = {
AngleInDegrees = "89.3704";
};
}),
(345,64,l,{
"Letterink-NibData" = {
AngleInDegrees = "28.81079";
};
}),
(460,256,l,{
"Letterink-NibData" = {
AngleInDegrees = "90";
};
}),
(354,146,l,{
"Letterink-NibData" = {
AngleInDegrees = "90";
};
}),
(623,146,l,{
"Letterink-NibData" = {
AngleInDegrees = "180";
};
}),
(568,264,l,{
"Letterink-NibData" = {
AngleInDegrees = "180";
};
}),
(535,0,l,{
"Letterink-NibData" = {
AngleInDegrees = "90";
};
})
);
},
{
closed = 1;
nodes = (
(642,296,l,{
"Letterink-NibData" = {
AngleInDegrees = "270";
};
}),
(454,296,l,{
"Letterink-NibData" = {
AngleInDegrees = "28.68615";
};
}),
(489,279,l,{
"Letterink-NibData" = {
AngleInDegrees = "28.68615";
};
}),
(593,476,l,{
"Letterink-NibData" = {
AngleInDegrees = "23.62938";
};
}),
(590,449,l,{
"Letterink-NibData" = {
AngleInDegrees = "180";
};
}),
(569,275,l,{
"Letterink-NibData" = {
AngleInDegrees = "270";
};
})
);
},
{
closed = 1;
nodes = (
(592,536,l),
(610,684,l,{
"Letterink-NibData" = {
AngleInDegrees = "270";
};
}),
(374,684,l,{
"Letterink-NibData" = {
AngleInDegrees = "180";
};
}),
(372,535,l)
);
}
);
width = 1058;
}
);
metricLeft = A.swsh;
userData = {
position = 422;
width = 61;
};
},
{
glyphname = B;
kernLeft = E;
kernRight = B;
layers = (
{
anchors = (
{
name = bottom;
pos = (323,0);
},
{
name = center;
pos = (378,363);
},
{
name = top;
pos = (407,684);
}
);
hints = (
{
name = _corner.caps_left;
origin = (0,18);
type = Corner;
}
);
layerId = "0CAF3BED-C4AC-4024-B3E1-4C69D1EF7EC0";
shapes = (
{
closed = 1;
nodes = (
(495,-10,o),
(595,61,o),
(611,186,cs),
(621,262,o),
(593,316,o),
(544,346,cs,{
"Letterink-NibData" = {
AngleInDegrees = 300.96376;
};
}),
(523,359,o),
(498,370,o),
(489,369,c,{
"Letterink-NibData" = {
AngleInDegrees = 71.56505;
};
}),
(503,371,o),
(519,376,o),
(538,383,cs,{
"Letterink-NibData" = {
AngleInDegrees = 63.43495;
};
}),
(585,400,o),
(611,451,o),
(618,507,cs),
(631,615,o),
(558,684,o),
(430,684,cs,{
"Letterink-NibData" = {
AngleInDegrees = 270;
};
}),
(198,684,l,{
"Letterink-NibData" = {
AngleInDegrees = 180;
};
}),
(198,606,l,{
"Letterink-NibData" = {
AngleInDegrees = 90;
};
}),
(425,606,l,{
"Letterink-NibData" = {
AngleInDegrees = 93.91825;
};
}),
(507,601,o),
(543,570,o),
(536,512,cs,{
"Letterink-NibData" = {
AngleInDegrees = 180;
};
}),
(528,445,o),
(471,401,o),
(394,401,cs,{
"Letterink-NibData" = {
AngleInDegrees = 270;
};
}),
(211,401,l,{
"Letterink-NibData" = {
AngleInDegrees = 180;
};
}),
(202,325,l,{
"Letterink-NibData" = {
AngleInDegrees = 90;
};
}),
(396,324,ls,{
"Letterink-NibData" = {
AngleInDegrees = 90;
};
}),
(489,324,o),
(539,275,o),
(529,192,cs,{
"Letterink-NibData" = {
AngleInDegrees = 180;
};
}),
(518,104,o),
(452,68,o),
(325,64,cs,{
"Letterink-NibData" = {
AngleInDegrees = 270;
};
}),
(291,63,o),
(248,65,o),
(211,71,c),
(283,642,l,{
"Letterink-NibData" = {
AngleInDegrees = 270;
};
}),
(200,642,l,{
"Letterink-NibData" = {
AngleInDegrees = 180;
};
}),
(120,2,l,{
"Letterink-NibData" = {
AngleInDegrees = 96.54629;
};
}),
(184,-5,ls,{
"Letterink-NibData" = {
AngleInDegrees = 96.70984;
};
}),
(205,-7,o),
(271,-10,o),
(310,-10,cs,{
"Letterink-NibData" = {
AngleInDegrees = 90;
};
})
);
}
);
width = 655;
},
{
anchors = (
{
name = bottom;
pos = (288,0);
},
{
name = center;
pos = (324,363);
},
{
name = top;
pos = (361,684);
}
);
hints = (
{
name = _corner.caps_left;
origin = (0,18);
type = Corner;
}
);
layerId = "49C16FD3-6177-408B-A733-AEB3898BB77C";
shapes = (
{
closed = 1;
nodes = (
(445,-9,o),
(558,42,o),
(575,179,cs),
(584,253,o),
(553,315,o),
(487,348,cs,{
"Letterink-NibData" = {
AngleInDegrees = 305.53768;
};
}),
(477,353,o),
(456,361,o),
(431,366,c,{
"Letterink-NibData" = {
AngleInDegrees = 75.67728;
};
}),
(462,373,o),
(478,378,o),
(511,397,cs,{
"Letterink-NibData" = {
AngleInDegrees = 53.1301;
};
}),
(544,416,o),
(576,452,o),
(583,513,cs),
(597,632,o),
(519,684,o),
(415,684,cs,{
"Letterink-NibData" = {
AngleInDegrees = 270;
};
}),
(194,684,l,{
"Letterink-NibData" = {
AngleInDegrees = 180;
};
}),
(194,648,l,{
"Letterink-NibData" = {
AngleInDegrees = 90;
};
}),
(428,648,l,{
"Letterink-NibData" = {
AngleInDegrees = 93.81407;
};
}),
(518,641,o),
(554,599,o),
(544,521,cs,{
"Letterink-NibData" = {
AngleInDegrees = 180;
};
}),
(532,426,o),
(455,382,o),
(368,382,cs,{
"Letterink-NibData" = {
AngleInDegrees = 270;
};
}),
(183,382,l,{
"Letterink-NibData" = {
AngleInDegrees = 180;
};
}),
(178,346,l,{
"Letterink-NibData" = {
AngleInDegrees = 90;
};
}),
(372,346,ls,{
"Letterink-NibData" = {
AngleInDegrees = 90;
};
}),
(491,346,o),
(546,272,o),
(535,183,cs,{
"Letterink-NibData" = {
AngleInDegrees = 180;
};
}),
(522,79,o),
(432,26,o),
(316,26,cs,{
"Letterink-NibData" = {
AngleInDegrees = 270;
};
}),
(309,26,o),
(199,26,o),
(151,32,c),
(228,654,l,{
"Letterink-NibData" = {
AngleInDegrees = 270;
};
}),
(189,654,l,{
"Letterink-NibData" = {
AngleInDegrees = 90;
};
}),
(110,3,l,{
"Letterink-NibData" = {
AngleInDegrees = 98.65254;
};
}),
(153,-4,ls,{
"Letterink-NibData" = {
AngleInDegrees = 99.21103;
};
}),
(192,-10,o),
(296,-9,o),
(304,-9,cs,{
"Letterink-NibData" = {
AngleInDegrees = 90;
};
})
);
}
);
width = 626;
},
{
anchors = (
{
name = bottom;
pos = (384,-2);
},
{
name = center;
pos = (428,356);
},
{
name = top;
pos = (463,684);
}
);
hints = (
{
name = _corner.caps_left;
origin = (0,18);
type = Corner;
}
);
layerId = m004;
shapes = (
{
closed = 1;
nodes = (
(592,18,o),
(663,89,o),
(675,187,cs),
(683,250,o),
(654,316,o),
(610,340,cs),
(583,355,o),
(569,360,o),
(545,364,c,{
"Letterink-NibData" = {
AngleInDegrees = 77.90524;
};
}),
(580,368,o),
(588,370,o),
(610,381,cs,{
"Letterink-NibData" = {
AngleInDegrees = "63.90458";
};
}),
(666,409,o),
(677,455,o),
(683,500,cs),
(696,601,o),
(627,686,o),
(494,686,cs,{
"Letterink-NibData" = {
AngleInDegrees = "270";
};
}),
(227,686,l,{
"Letterink-NibData" = {
AngleInDegrees = "180";
};
}),
(226,537,l),
(467,538,ls,{
"Letterink-NibData" = {
AngleInDegrees = "90";
};
}),
(507,538,o),
(522,517,o),
(518,487,cs,{
"Letterink-NibData" = {
AngleInDegrees = "180";
};
}),
(514,455,o),
(492,424,o),
(458,424,cs,{
"Letterink-NibData" = {
AngleInDegrees = "269.3338";
};
}),
(346,424,l,{
"Letterink-NibData" = {
AngleInDegrees = "180.77422";
};
}),
(329,289,l,{
"Letterink-NibData" = {
AngleInDegrees = "90";
};
}),
(449,289,ls,{
"Letterink-NibData" = {
AngleInDegrees = "90";
};
}),
(497,289,o),
(529,262,o),
(524,219,cs,{
"Letterink-NibData" = {
AngleInDegrees = "180";
};
}),
(517,162,o),
(473,132,o),
(396,132,cs,{
"Letterink-NibData" = {
AngleInDegrees = "270";
};
}),
(376,132,o),
(362,132,o),
(338,136,c),
(392,551,l,{
"Letterink-NibData" = {
AngleInDegrees = "90";
};
}),
(227,552,l),
(160,6,l,{
"Letterink-NibData" = {
AngleInDegrees = 96.4416;
};
}),
(214,-1,ls,{
"Letterink-NibData" = {
AngleInDegrees = "96.65443";
};
}),
(305,-13,o),
(415,-20,o),
(485,-5,cs,{
"Letterink-NibData" = {
AngleInDegrees = "90";
};
})
);
}
);
width = 709;
}
);
metricLeft = E;
unicode = 66;
userData = {
position = 514;
width = 59;
};
},
{
glyphname = B.ss01;
kernLeft = L;
kernRight = B;
layers = (
{
anchors = (
{
name = bottom;
pos = (250,0);
},
{
name = center;
pos = (305,370);
},
{
name = top;
pos = (334,684);
}
);
layerId = "0CAF3BED-C4AC-4024-B3E1-4C69D1EF7EC0";
shapes = (
{
closed = 1;
nodes = (
(421,-10,o),
(520,61,o),
(536,186,cs),
(546,262,o),
(519,317,o),
(471,346,cs,{
"Letterink-NibData" = {
AngleInDegrees = 300.96376;
};
}),
(446,361,o),
(416,368,o),
(406,369,c,{
"Letterink-NibData" = {
AngleInDegrees = 71.56505;
};
}),
(422,372,o),
(443,374,o),
(465,383,cs,{
"Letterink-NibData" = {
AngleInDegrees = 63.43495;
};
}),
(512,402,o),
(538,451,o),
(545,507,cs),
(558,615,o),
(485,684,o),
(357,684,cs,{
"Letterink-NibData" = {
AngleInDegrees = 270;
};
}),
(133,684,l,{
"Letterink-NibData" = {
AngleInDegrees = 180;
};
}),
(123,606,l,{
"Letterink-NibData" = {
AngleInDegrees = 90;
};
}),
(352,606,l,{
"Letterink-NibData" = {
AngleInDegrees = 93.91825;
};
}),
(434,601,o),
(470,570,o),
(463,513,cs,{
"Letterink-NibData" = {
AngleInDegrees = 180;
};
}),
(455,445,o),
(398,401,o),
(321,401,cs,{
"Letterink-NibData" = {
AngleInDegrees = 270;
};
}),
(138,401,l,{
"Letterink-NibData" = {
AngleInDegrees = 180;
};
}),
(129,325,l,{
"Letterink-NibData" = {
AngleInDegrees = 90;
};
}),
(323,324,ls,{
"Letterink-NibData" = {
AngleInDegrees = 90;
};
}),
(416,324,o),
(466,275,o),
(456,192,cs,{
"Letterink-NibData" = {
AngleInDegrees = 180;
};
}),
(445,104,o),
(379,68,o),
(252,64,cs,{
"Letterink-NibData" = {
AngleInDegrees = 270;
};
}),
(218,63,o),
(177,65,o),
(140,71,c),
(212,642,l,{
"Letterink-NibData" = {
AngleInDegrees = 270;
};
}),
(128,642,l,{
"Letterink-NibData" = {
AngleInDegrees = 180;
};
}),
(49,2,l,{
"Letterink-NibData" = {
AngleInDegrees = 96.54629;
};
}),
(111,-5,ls,{
"Letterink-NibData" = {
AngleInDegrees = 96.70984;
};
}),
(132,-7,o),
(198,-10,o),
(237,-10,cs,{
"Letterink-NibData" = {
AngleInDegrees = 90;
};
})
);
}
);
width = 580;
},
{
anchors = (
{
name = bottom;
pos = (243,0);
},
{
name = center;
pos = (282,363);
},
{
name = top;
pos = (327,684);
}
);
layerId = "49C16FD3-6177-408B-A733-AEB3898BB77C";
shapes = (
{
closed = 1;
nodes = (
(412,-9,o),
(507,57,o),
(522,175,cs),
(532,255,o),
(499,316,o),
(444,345,cs,{
"Letterink-NibData" = {
AngleInDegrees = 305.53768;
};
}),
(423,356,o),
(398,361,o),
(375,365,c,{
"Letterink-NibData" = {
AngleInDegrees = 75.67728;
};
}),
(404,369,o),
(434,379,o),
(467,402,cs,{
"Letterink-NibData" = {
AngleInDegrees = 53.1301;
};
}),
(504,428,o),
(524,466,o),
(530,514,cs),
(543,618,o),
(474,684,o),
(353,684,cs,{
"Letterink-NibData" = {
AngleInDegrees = 270;
};
}),
(138,684,l,{
"Letterink-NibData" = {
AngleInDegrees = 180;
};
}),
(134,648,l,{
"Letterink-NibData" = {
AngleInDegrees = 90;
};
}),
(366,648,l,{
"Letterink-NibData" = {
AngleInDegrees = 93.81407;
};
}),
(459,641,o),
(501,597,o),
(492,522,cs,{
"Letterink-NibData" = {
AngleInDegrees = 180;
};
}),
(482,436,o),
(413,382,o),
(315,382,cs,{
"Letterink-NibData" = {
AngleInDegrees = 270;
};
}),
(134,382,l,{
"Letterink-NibData" = {
AngleInDegrees = 180;
};
}),
(130,347,l,{
"Letterink-NibData" = {
AngleInDegrees = 90;
};
}),
(319,347,ls,{
"Letterink-NibData" = {
AngleInDegrees = 90;
};
}),
(429,347,o),
(496,277,o),
(484,181,cs,{
"Letterink-NibData" = {
AngleInDegrees = 180;
};
}),
(469,64,o),
(388,26,o),
(234,26,cs,{
"Letterink-NibData" = {
AngleInDegrees = 270;
};
}),
(200,26,o),
(124,29,o),
(98,32,c),
(175,654,l,{
"Letterink-NibData" = {
AngleInDegrees = 270;
};
}),
(134,654,l,{
"Letterink-NibData" = {
AngleInDegrees = 90;
};
}),
(55,3,l,{
"Letterink-NibData" = {
AngleInDegrees = 98.65254;
};
}),
(100,-4,ls,{
"Letterink-NibData" = {
AngleInDegrees = 99.21103;
};
}),
(139,-10,o),
(261,-9,o),
(278,-9,cs,{
"Letterink-NibData" = {
AngleInDegrees = 90;
};
})
);
}
);
width = 573;
},
{
anchors = (
{
name = bottom;
pos = (261,0);
},
{
name = center;
pos = (305,356);
},
{
name = top;
pos = (345,684);
}
);
layerId = m004;
shapes = (
{
closed = 1;
nodes = (
(469,18,o),
(540,89,o),
(552,187,cs),
(560,250,o),
(531,315,o),
(487,339,cs),
(460,354,o),
(446,360,o),
(422,364,c,{
"Letterink-NibData" = {
AngleInDegrees = 77.90524;
};
}),
(457,368,o),
(474,375,o),
(496,386,cs,{
"Letterink-NibData" = {
AngleInDegrees = "63.90458";
};
}),
(552,414,o),
(564,467,o),
(570,512,cs),
(583,613,o),
(504,686,o),
(371,686,cs,{
"Letterink-NibData" = {
AngleInDegrees = "270";
};
}),
(120,686,l,{
"Letterink-NibData" = {
AngleInDegrees = "180";
};
}),
(102,535,l),
(359,536,ls,{
"Letterink-NibData" = {
AngleInDegrees = "90";
};
}),
(390,536,o),
(409,517,o),
(405,486,cs,{
"Letterink-NibData" = {
AngleInDegrees = "180";
};
}),
(401,455,o),
(380,424,o),
(345,424,cs,{
"Letterink-NibData" = {
AngleInDegrees = "269.3338";
};
}),
(223,424,l,{
"Letterink-NibData" = {
AngleInDegrees = "180.77422";
};
}),
(206,289,l,{
"Letterink-NibData" = {
AngleInDegrees = "90";
};
}),
(326,289,ls,{
"Letterink-NibData" = {
AngleInDegrees = "90";
};
}),
(374,289,o),
(406,262,o),
(401,219,cs,{
"Letterink-NibData" = {
AngleInDegrees = "180";
};
}),
(394,162,o),
(350,132,o),
(273,132,cs,{
"Letterink-NibData" = {
AngleInDegrees = "270";
};
}),
(253,132,o),
(239,132,o),
(215,136,c),
(269,551,l,{
"Letterink-NibData" = {
AngleInDegrees = "90";
};
}),
(104,552,l),
(37,6,l,{
"Letterink-NibData" = {
AngleInDegrees = 96.4416;
};
}),
(91,-1,ls,{
"Letterink-NibData" = {
AngleInDegrees = "96.65443";
};
}),
(182,-13,o),
(292,-20,o),
(362,-5,cs,{
"Letterink-NibData" = {
AngleInDegrees = "90";
};
})
);
}
);
width = 586;
}
);
metricLeft = N.ss01;
metricRight = B;
userData = {
position = 494;
width = 59;
};
},
{
glyphname = B.swsh;
kernLeft = Swash;
kernRight = B;
layers = (
{
anchors = (
{
name = bottom;
pos = (367,0);
},
{
name = center;
pos = (422,369);
},
{
name = top;
pos = (451,684);
}
);
hints = (
{
name = _corner.caps_swash;
options = 1;
origin = (0,18);
type = Corner;
}
);
layerId = "0CAF3BED-C4AC-4024-B3E1-4C69D1EF7EC0";
shapes = (
{
closed = 1;
nodes = (
(538,-10,o),
(637,61,o),
(653,186,cs),
(663,262,o),
(636,317,o),
(592,343,cs,{
"Letterink-NibData" = {
AngleInDegrees = "300.96376";
};
}),
(565,359,o),
(533,369,o),
(523,369,c,{
"Letterink-NibData" = {
AngleInDegrees = "71.56505";
};
}),
(539,373,o),
(560,374,o),
(583,384,cs,{
"Letterink-NibData" = {
AngleInDegrees = "63.43495";
};
}),
(629,404,o),
(655,451,o),
(662,507,cs),
(675,615,o),
(602,684,o),
(474,684,cs,{
"Letterink-NibData" = {
AngleInDegrees = "270";
};
}),
(230,684,l,{
"Letterink-NibData" = {
AngleInDegrees = "180";
};
}),
(231,608,l,{
"Letterink-NibData" = {
AngleInDegrees = "90";
};
}),
(469,608,l,{
"Letterink-NibData" = {
AngleInDegrees = "93.91825";
};
}),
(552,608,o),
(588,570,o),
(581,512,cs,{
"Letterink-NibData" = {
AngleInDegrees = "180";
};
}),
(573,445,o),
(516,401,o),
(438,401,cs,{
"Letterink-NibData" = {
AngleInDegrees = "270";
};
}),
(345,401,l,{
"Letterink-NibData" = {
AngleInDegrees = "180";
};
}),
(336,325,l,{
"Letterink-NibData" = {
AngleInDegrees = "90";
};
}),
(440,324,ls,{
"Letterink-NibData" = {
AngleInDegrees = "90";
};
}),
(532,323,o),
(583,275,o),
(573,197,cs,{
"Letterink-NibData" = {
AngleInDegrees = "180";
};
}),
(562,114,o),
(496,64,o),
(365,64,cs,{
"Letterink-NibData" = {
AngleInDegrees = "270";
};
}),
(335,64,o),
(292,65,o),
(255,71,c),
(318,560,l,{
"Letterink-NibData" = {
AngleInDegrees = "270";
};
}),
(235,560,l,{
"Letterink-NibData" = {
AngleInDegrees = "180";
};
}),
(163,2,l,{
"Letterink-NibData" = {
AngleInDegrees = "96.54629";
};
}),
(228,-5,ls,{
"Letterink-NibData" = {
AngleInDegrees = "96.70984";
};
}),
(249,-7,o),
(315,-10,o),
(354,-10,cs,{
"Letterink-NibData" = {
AngleInDegrees = "90";
};
})
);
}
);
width = 699;
},
{
anchors = (
{
name = bottom;
pos = (298,0);
},
{
name = center;
pos = (361,367);
},
{
name = top;
pos = (382,684);
}
);
hints = (
{
name = _corner.caps_swash;
options = 1;
origin = (0,18);
type = Corner;
}
);
layerId = "49C16FD3-6177-408B-A733-AEB3898BB77C";
shapes = (
{
closed = 1;
nodes = (
(505,-9,o),
(600,57,o),
(615,175,cs),
(625,255,o),
(592,319,o),
(536,347,cs,{
"Letterink-NibData" = {
AngleInDegrees = "305.53768";
};
}),
(516,357,o),
(492,365,o),
(468,369,c,{
"Letterink-NibData" = {
AngleInDegrees = "75.67728";
};
}),
(498,376,o),
(528,383,o),
(561,407,cs,{
"Letterink-NibData" = {
AngleInDegrees = "53.1301";
};
}),
(598,434,o),
(617,466,o),
(623,514,cs),
(636,618,o),
(567,684,o),
(446,684,cs,{
"Letterink-NibData" = {
AngleInDegrees = "270";
};
}),
(218,684,l,{
"Letterink-NibData" = {
AngleInDegrees = "180";
};
}),
(217,648,l,{
"Letterink-NibData" = {
AngleInDegrees = "90";
};
}),
(459,648,l,{
"Letterink-NibData" = {
AngleInDegrees = "93.81407";
};
}),
(552,641,o),
(594,597,o),
(585,522,cs,{
"Letterink-NibData" = {
AngleInDegrees = "180";
};
}),
(575,436,o),
(506,382,o),
(408,382,cs,{
"Letterink-NibData" = {
AngleInDegrees = "270";
};
}),
(320,382,l,{
"Letterink-NibData" = {
AngleInDegrees = "180";
};
}),
(316,347,l,{
"Letterink-NibData" = {
AngleInDegrees = "90";
};
}),
(412,347,ls,{
"Letterink-NibData" = {
AngleInDegrees = "90";
};
}),
(514,347,o),
(589,281,o),
(578,185,cs,{
"Letterink-NibData" = {
AngleInDegrees = "180";
};
}),
(566,77,o),
(481,26,o),
(345,26,cs,{
"Letterink-NibData" = {
AngleInDegrees = "270";
};
}),
(294,26,o),
(217,29,o),
(191,32,c),
(261,597,l,{
"Letterink-NibData" = {
AngleInDegrees = "270";
};
}),
(220,597,l,{
"Letterink-NibData" = {
AngleInDegrees = "179.91332";
};
}),
(148,3,l,{
"Letterink-NibData" = {
AngleInDegrees = "98.65254";
};
}),
(193,-4,ls,{
"Letterink-NibData" = {
AngleInDegrees = 99.21103;
};
}),
(232,-10,o),
(354,-9,o),
(371,-9,cs,{
"Letterink-NibData" = {
AngleInDegrees = "90";
};
})
);
}
);
width = 666;
},
{
anchors = (
{
name = bottom;
pos = (404,0);
},
{
name = center;
pos = (448,355);
},
{
name = top;
pos = (488,684);
}
);
hints = (
{
name = _corner.caps_swash;
options = 1;
origin = (0,18);
type = Corner;
}
);
layerId = m004;
shapes = (
{
closed = 1;
nodes = (
(636,18,o),
(707,89,o),
(719,187,cs),
(727,250,o),
(702,315,o),
(658,339,cs),
(631,354,o),
(613,360,o),
(589,364,c,{
"Letterink-NibData" = {
AngleInDegrees = 77.90524;
};
}),
(624,368,o),
(641,375,o),
(663,386,cs,{
"Letterink-NibData" = {
AngleInDegrees = "63.90458";
};
}),
(719,414,o),
(731,467,o),
(737,512,cs),
(750,613,o),
(671,686,o),
(538,686,cs,{
"Letterink-NibData" = {
AngleInDegrees = "270";
};
}),
(263,686,l,{
"Letterink-NibData" = {
AngleInDegrees = "180";
};
}),
(263,538,l),
(526,538,ls,{
"Letterink-NibData" = {
AngleInDegrees = "90";
};
}),
(561,538,o),
(576,517,o),
(573,493,cs,{
"Letterink-NibData" = {
AngleInDegrees = "180";
};
}),
(568,455,o),
(551,424,o),
(512,424,cs,{
"Letterink-NibData" = {
AngleInDegrees = "269.3338";
};
}),
(460,424,l,{
"Letterink-NibData" = {
AngleInDegrees = "180.77422";
};
}),
(443,289,l,{
"Letterink-NibData" = {
AngleInDegrees = "90";
};
}),
(493,289,ls,{
"Letterink-NibData" = {
AngleInDegrees = "90";
};
}),
(541,289,o),
(573,262,o),
(568,219,cs,{
"Letterink-NibData" = {
AngleInDegrees = "180";
};
}),
(561,162,o),
(517,132,o),
(440,132,cs,{
"Letterink-NibData" = {
AngleInDegrees = "270";
};
}),
(420,132,o),
(406,132,o),
(382,136,c),
(429,498,l,{
"Letterink-NibData" = {
AngleInDegrees = "90";
};
}),
(264,499,l),
(204,6,l,{
"Letterink-NibData" = {
AngleInDegrees = 96.4416;
};
}),
(258,-1,ls,{
"Letterink-NibData" = {
AngleInDegrees = "96.65443";
};
}),
(349,-13,o),
(459,-20,o),
(529,-5,cs,{
"Letterink-NibData" = {
AngleInDegrees = "90";
};
})
);
}
);
width = 756;
}
);
metricLeft = E.swsh;
userData = {
position = 514;
width = 59;
};
},
{
glyphname = C;
kernLeft = O;
kernRight = C;
layers = (
{
anchors = (
{
name = bottom;
pos = (333,-5);
},
{
name = top;
pos = (445,689);
}
);
layerId = "0CAF3BED-C4AC-4024-B3E1-4C69D1EF7EC0";
shapes = (
{
closed = 1;
nodes = (
(467,-21,o),
(578,30,o),
(639,117,c),
(581,156,l),
(533,92,o),
(449,53,o),
(359,55,cs),
(206,56,o),
(112,176,o),
(133,341,cs),
(153,510,o),
(287,628,o),
(439,626,cs),
(531,625,o),
(596,584,o),
(589,527,cs),
(587,509,o),
(579,494,o),
(562,494,cs),
(553,494,o),
(547,498,o),
(541,503,c),
(493,449,l),
(508,430,o),
(530,422,o),
(554,422,cs),
(611,421,o),
(657,470,o),
(663,528,cs),
(675,626,o),
(575,698,o),
(445,700,cs),
(240,703,o),
(73,545,o),
(48,337,cs),
(23,136,o),
(149,-17,o),
(350,-19,cs)
);
}
);
width = 676;
},
{
anchors = (
{
name = bottom;
pos = (356,-4);
},
{
name = top;
pos = (445,688);
}
);
layerId = "49C16FD3-6177-408B-A733-AEB3898BB77C";
shapes = (
{
closed = 1;
nodes = (
(476,-10,o),
(588,47,o),
(636,122,c),
(608,140,l),
(565,76,o),
(465,25,o),
(359,25,cs),
(186,25,o),
(72,154,o),
(93,327,cs),
(118,531,o),
(275,662,o),
(442,662,cs),
(536,662,o),
(639,622,o),
(630,541,cs),
(626,516,o),
(608,483,o),
(576,483,cs),
(567,483,o),
(553,486,o),
(544,494,c),
(522,466,l),
(537,453,o),
(555,447,o),
(571,447,cs),
(617,447,o),
(659,485,o),
(666,542,cs),
(674,613,o),
(605,697,o),
(447,697,cs),
(246,697,o),
(81,554,o),
(53,327,cs),
(30,134,o),
(160,-10,o),
(356,-10,cs)
);
}
);
width = 681;
},
{
anchors = (
{
name = bottom;
pos = (371,-10);
},
{
name = top;
pos = (441,699);
}
);
layerId = m004;
shapes = (
{
closed = 1;
nodes = (
(493,-27,o),
(604,24,o),
(671,118,c),
(549,199,l),
(518,152,o),
(446,118,o),
(372,118,cs),
(257,118,o),
(191,212,o),
(206,329,cs),
(224,467,o),
(320,565,o),
(439,565,cs),
(516,565,o),
(565,536,o),
(559,500,cs),
(557,488,o),
(550,480,o),
(540,480,cs),
(539,480,o),
(536,480,o),
(534,482,c),
(443,383,l),
(459,358,o),
(497,338,o),
(545,338,cs),
(628,338,o),
(696,396,o),
(706,479,cs),
(722,608,o),
(603,709,o),
(436,709,cs),
(233,709,o),
(66,557,o),
(39,345,cs),
(12,134,o),
(153,-27,o),
(369,-27,cs)
);
}
);
width = 707;
}
);
metricLeft = O;
unicode = 67;
userData = {
position = 570;
width = 54;
};
},
{
glyphname = C.ss01;
kernLeft = O;
kernRight = C;
layers = (
{
anchors = (
{
name = bottom;
pos = (354,-6);
},
{
name = top;
pos = (436,689);
}
);
layerId = "0CAF3BED-C4AC-4024-B3E1-4C69D1EF7EC0";
shapes = (
{
closed = 1;
nodes = (
(470,-21,o),
(580,28,o),
(642,118,c),
(582,160,l),
(536,95,o),
(455,53,o),
(360,53,cs),
(215,53,o),
(111,163,o),
(132,331,cs),
(153,503,o),
(281,629,o),
(441,629,cs),
(549,629,o),
(602,572,o),
(617,514,c),
(685,529,l),
(669,623,o),
(577,703,o),
(437,703,cs),
(247,703,o),
(74,556,o),
(48,340,cs),
(21,118,o),
(156,-21,o),
(357,-21,cs)
);
}
);
width = 679;
},
{
anchors = (
{
name = bottom;
pos = (343,-2);
},
{
name = top;
pos = (434,694);
}
);
layerId = "49C16FD3-6177-408B-A733-AEB3898BB77C";
shapes = (
{
closed = 1;
nodes = (
(465,-12,o),
(571,35,o),
(635,123,c),
(605,143,l),
(551,66,o),
(462,23,o),
(355,23,cs),
(191,23,o),
(71,135,o),
(95,335,cs),
(118,528,o),
(275,659,o),
(432,659,cs),
(561,659,o),
(631,596,o),
(644,523,c),
(679,530,l),
(664,625,o),
(573,694,o),
(434,694,cs),
(248,694,o),
(82,549,o),
(55,338,cs),
(28,124,o),
(164,-12,o),
(352,-12,cs)
);
}
);
width = 680;
},
{
anchors = (
{
name = bottom;
pos = (361,-12);
},
{
name = top;
pos = (436,696);
}
);
layerId = m004;
shapes = (
{
closed = 1;
nodes = (
(480,-28,o),
(593,24,o),
(656,117,c),
(535,199,l),
(502,150,o),
(439,116,o),
(369,116,cs),
(261,116,o),
(190,205,o),
(205,325,cs),
(222,463,o),
(318,567,o),
(427,567,cs),
(498,567,o),
(549,535,o),
(556,484,c),
(699,518,l),
(685,629,o),
(578,711,o),
(432,711,cs),
(233,711,o),
(64,555,o),
(39,349,cs),
(13,134,o),
(151,-28,o),
(362,-28,cs)
);
}
);
width = 685;
}
);
metricLeft = O;
userData = {
position = 570;
width = 54;
};
},
{
glyphname = C.swsh;
kernLeft = O;
kernRight = C;
layers = (
{
anchors = (
{
name = bottom;
pos = (360,-8);
},
{
name = top;
pos = (435,691);
}
);
layerId = "0CAF3BED-C4AC-4024-B3E1-4C69D1EF7EC0";
shapes = (
{
closed = 1;
nodes = (
(476,-22,o),
(581,30,o),
(644,119,c),
(586,159,l),
(539,91,o),
(458,52,o),
(365,52,cs),
(207,52,o),
(112,166,o),
(132,331,cs),
(153,502,o),
(282,625,o),
(442,625,cs),
(530,625,o),
(597,580,o),
(590,524,cs),
(587,500,o),
(571,483,o),
(552,483,cs),
(533,483,o),
(517,496,o),
(513,516,c),
(439,498,l),
(448,445,o),
(493,407,o),
(549,407,cs),
(612,407,o),
(662,453,o),
(670,520,cs),
(682,623,o),
(588,699,o),
(444,699,cs),
(240,699,o),
(73,547,o),
(48,339,cs),
(23,130,o),
(153,-22,o),
(360,-22,cs)
);
}
);
width = 683;
},
{
anchors = (
{
name = bottom;
pos = (360,-2);
},
{
name = top;
pos = (445,686);
}
);
layerId = "49C16FD3-6177-408B-A733-AEB3898BB77C";
shapes = (
{
closed = 1;
nodes = (
(479,-10,o),
(583,40,o),
(645,125,c),
(616,144,l),
(562,68,o),
(470,25,o),
(364,25,cs),
(188,25,o),
(71,153,o),
(95,339,cs),
(118,523,o),
(265,657,o),
(443,657,cs),
(554,657,o),
(638,601,o),
(629,532,cs),
(624,491,o),
(596,462,o),
(561,462,cs),
(526,462,o),
(504,482,o),
(499,517,c),
(465,510,l),
(472,459,o),
(506,428,o),
(560,428,cs),
(612,428,o),
(658,471,o),
(665,528,cs),
(676,618,o),
(577,692,o),
(444,692,cs),
(244,692,o),
(80,544,o),
(55,343,cs),
(29,139,o),
(159,-10,o),
(363,-10,cs)
);
}
);
width = 687;
},
{
anchors = (
{
name = bottom;
pos = (365,-12);
},
{
name = top;
pos = (446,696);
}
);
layerId = m004;
shapes = (
{
closed = 1;
nodes = (
(480,-30,o),
(596,26,o),
(657,117,c),
(541,194,l),
(504,143,o),
(448,116,o),
(380,116,cs),
(259,118,o),
(191,204,o),
(207,334,cs),
(224,473,o),
(319,570,o),
(435,568,cs),
(482,568,o),
(556,545,o),
(553,498,cs),
(553,483,o),
(545,472,o),
(534,472,cs),
(527,472,o),
(521,475,o),
(518,485,c),
(394,449,l),
(397,382,o),
(456,329,o),
(523,328,cs),
(615,327,o),
(690,397,o),
(702,497,cs),
(717,618,o),
(609,710,o),
(446,712,cs),
(239,714,o),
(66,557,o),
(39,344,cs),
(13,134,o),
(149,-26,o),
(358,-28,cs)
);
}
);
width = 697;
}
);
metricLeft = O;
userData = {
position = 570;
width = 54;
};
},
{
glyphname = D;
kernLeft = E;
kernRight = O;
layers = (
{
anchors = (
{
name = bottom;
pos = (343,-10);
},
{
name = center;
pos = (244,367);
},
{
name = top;
pos = (443,684);
}
);
hints = (
{
name = _corner.caps_left;
origin = (0,6);
type = Corner;
}
);
layerId = "0CAF3BED-C4AC-4024-B3E1-4C69D1EF7EC0";
shapes = (
{
closed = 1;
nodes = (
(549,-10,o),
(708,134,o),
(734,338,cs),
(759,533,o),
(647,684,o),
(445,684,c,{
"Letterink-NibData" = {
AngleInDegrees = 270.21459;
};
}),
(201,685,l,{
"Letterink-NibData" = {
AngleInDegrees = 180;
};
}),
(199,608,l,{
"Letterink-NibData" = {
AngleInDegrees = 90;
};
}),
(439,608,ls,{
"Letterink-NibData" = {
AngleInDegrees = 92.97373;
};
}),
(597,608,o),
(670,503,o),
(650,343,cs,{
"Letterink-NibData" = {
AngleInDegrees = 180;
};
}),
(628,165,o),
(509,65,o),
(316,65,cs,{
"Letterink-NibData" = {
AngleInDegrees = 270;
};
}),
(287,65,o),
(248,67,o),
(207,70,c),
(280,651,l,{
"Letterink-NibData" = {
AngleInDegrees = 270;
};
}),
(197,651,l,{
"Letterink-NibData" = {
AngleInDegrees = 180;
};
}),
(117,1,l,{
"Letterink-NibData" = {
AngleInDegrees = 95.10217;
};
}),
(174,-4,ls,{
"Letterink-NibData" = {
AngleInDegrees = 95.12819;
};
}),
(240,-10,o),
(263,-10,o),
(346,-10,cs,{
"Letterink-NibData" = {
AngleInDegrees = 90;
};
})
);
}
);
width = 760;
},
{
anchors = (
{
name = bottom;
pos = (302,-9);
},
{
name = center;
pos = (193,358);
},
{
name = top;
pos = (404,685);
}
);
hints = (
{
name = _corner.caps_left;
origin = (0,6);
type = Corner;
}
);
layerId = "49C16FD3-6177-408B-A733-AEB3898BB77C";
shapes = (
{
closed = 1;
nodes = (
(542,-9,o),
(692,130,o),
(718,340,cs),
(743,540,o),
(635,683,o),
(430,684,cs,{
"Letterink-NibData" = {
AngleInDegrees = 270.22037;
};
}),
(194,685,l,{
"Letterink-NibData" = {
AngleInDegrees = 180;
};
}),
(194,648,l,{
"Letterink-NibData" = {
AngleInDegrees = 90;
};
}),
(423,648,ls,{
"Letterink-NibData" = {
AngleInDegrees = 93.25195;
};
}),
(609,648,o),
(701,526,o),
(678,341,cs,{
"Letterink-NibData" = {
AngleInDegrees = 180;
};
}),
(653,142,o),
(524,27,o),
(318,27,cs,{
"Letterink-NibData" = {
AngleInDegrees = 270;
};
}),
(254,27,o),
(169,30,o),
(152,32,c),
(229,649,l,{
"Letterink-NibData" = {
AngleInDegrees = 270;
};
}),
(190,649,l,{
"Letterink-NibData" = {
AngleInDegrees = 180;
};
}),
(110,0,l,{
"Letterink-NibData" = {
AngleInDegrees = 94.18492;
};
}),
(150,-3,ls,{
"Letterink-NibData" = {
AngleInDegrees = 94.20536;
};
}),
(216,-8,o),
(260,-9,o),
(340,-9,cs,{
"Letterink-NibData" = {
AngleInDegrees = 90;
};
})
);
}
);
width = 751;
},
{
anchors = (
{
name = bottom;
pos = (390,-10);
},
{
name = center;
pos = (293,353);
},
{
name = top;
pos = (509,684);
}
);
hints = (
{
name = _corner.caps_left;
origin = (0,6);
type = Corner;
}
);
layerId = m004;
shapes = (
{
closed = 1;
nodes = (
(603,-15,o),
(774,131,o),
(800,338,cs),
(824,527,o),
(703,683,o),
(499,684,cs,{
"Letterink-NibData" = {
AngleInDegrees = "270.21459";
};
}),
(223,685,l,{
"Letterink-NibData" = {
AngleInDegrees = "180";
};
}),
(226,537,l,{
"Letterink-NibData" = {
AngleInDegrees = "90";
};
}),
(487,536,ls,{
"Letterink-NibData" = {
AngleInDegrees = "92.97373";
};
}),
(596,536,o),
(646,465,o),
(632,351,cs,{
"Letterink-NibData" = {
AngleInDegrees = "180";
};
}),
(616,221,o),
(532,141,o),
(411,141,cs,{
"Letterink-NibData" = {
AngleInDegrees = "270";
};
}),
(383,141,o),
(368,141,o),
(345,145,c),
(410,655,l,{
"Letterink-NibData" = {
AngleInDegrees = "270";
};
}),
(242,655,l,{
"Letterink-NibData" = {
AngleInDegrees = "180";
};
}),
(163,5,l,{
"Letterink-NibData" = {
AngleInDegrees = "95.10217";
};
}),
(235,-3,ls,{
"Letterink-NibData" = {
AngleInDegrees = "95.12819";
};
}),
(274,-7,o),
(307,-8,o),
(390,-10,cs,{
"Letterink-NibData" = {
AngleInDegrees = "90";
};
})
);
}
);
width = 816;
}
);
metricLeft = E;
metricRight = O;
unicode = 68;
userData = {
position = 674;
width = 60;
};
},
{
glyphname = D.ss01;
kernLeft = L;
kernRight = O;
layers = (
{
anchors = (
{
name = bottom;
pos = (274,-10);
},
{
name = center;
pos = (175,367);
},
{
name = top;
pos = (346,681);
}
);
layerId = "0CAF3BED-C4AC-4024-B3E1-4C69D1EF7EC0";
shapes = (
{
closed = 1;
nodes = (
(481,-10,o),
(639,107,o),
(666,338,cs),
(689,533,o),
(578,684,o),
(387,684,c,{
"Letterink-NibData" = {
AngleInDegrees = 270.21459;
};
}),
(132,685,l,{
"Letterink-NibData" = {
AngleInDegrees = 180;
};
}),
(123,608,l,{
"Letterink-NibData" = {
AngleInDegrees = 90;
};
}),
(370,608,l,{
"Letterink-NibData" = {
AngleInDegrees = 92.97373;
};
}),
(528,608,o),
(602,503,o),
(582,343,cs,{
"Letterink-NibData" = {
AngleInDegrees = 180;
};
}),
(560,165,o),
(440,65,o),
(247,65,cs,{
"Letterink-NibData" = {
AngleInDegrees = 270;
};
}),
(218,65,o),
(179,67,o),
(138,70,c),
(211,651,l,{
"Letterink-NibData" = {
AngleInDegrees = 270;
};
}),
(128,651,l,{
"Letterink-NibData" = {
AngleInDegrees = 180;
};
}),
(48,1,l,{
"Letterink-NibData" = {
AngleInDegrees = 95.10217;
};
}),
(105,-4,ls,{
"Letterink-NibData" = {
AngleInDegrees = 95.12819;
};
}),
(147,-8,o),
(173,-10,o),
(277,-10,cs,{
"Letterink-NibData" = {
AngleInDegrees = 90;
};
})
);
}
);
width = 692;
},
{
anchors = (
{
name = bottom;
pos = (216,-11);
},
{
name = center;
pos = (135,358);
},
{
name = top;
pos = (367,686);
}
);
layerId = "49C16FD3-6177-408B-A733-AEB3898BB77C";
shapes = (
{
closed = 1;
nodes = (
(485,-9,o),
(631,111,o),
(661,340,cs),
(687,540,o),
(577,684,o),
(385,684,c,{
"Letterink-NibData" = {
AngleInDegrees = 270.22037;
};
}),
(137,685,l,{
"Letterink-NibData" = {
AngleInDegrees = 180;
};
}),
(133,649,l,{
"Letterink-NibData" = {
AngleInDegrees = 90;
};
}),
(374,649,l,{
"Letterink-NibData" = {
AngleInDegrees = 93.25195;
};
}),
(550,649,o),
(645,526,o),
(621,341,cs,{
"Letterink-NibData" = {
AngleInDegrees = 180;
};
}),
(594,134,o),
(467,26,o),
(261,26,cs,{
"Letterink-NibData" = {
AngleInDegrees = 270;
};
}),
(197,26,o),
(112,29,o),
(95,31,c),
(172,649,l,{
"Letterink-NibData" = {
AngleInDegrees = 270;
};
}),
(133,649,l,{
"Letterink-NibData" = {
AngleInDegrees = 180;
};
}),
(53,0,l,{
"Letterink-NibData" = {
AngleInDegrees = 94.18492;
};
}),
(93,-3,ls,{
"Letterink-NibData" = {
AngleInDegrees = 94.20536;
};
}),
(159,-8,o),
(203,-9,o),
(283,-9,cs,{
"Letterink-NibData" = {
AngleInDegrees = 90;
};
})
);
}
);
width = 694;
},
{
anchors = (
{
name = bottom;
pos = (258,-10);
},
{
name = center;
pos = (195,360);
},
{
name = top;
pos = (333,686);
}
);
layerId = m004;
shapes = (
{
closed = 1;
nodes = (
(495,-13,o),
(648,124,o),
(676,338,cs),
(700,519,o),
(585,684,o),
(376,684,c,{
"Letterink-NibData" = {
AngleInDegrees = "270.21459";
};
}),
(120,684,l,{
"Letterink-NibData" = {
AngleInDegrees = "180";
};
}),
(101,532,l,{
"Letterink-NibData" = {
AngleInDegrees = "90";
};
}),
(361,532,l,{
"Letterink-NibData" = {
AngleInDegrees = "92.97373";
};
}),
(484,528,o),
(520,452,o),
(508,351,cs,{
"Letterink-NibData" = {
AngleInDegrees = "180";
};
}),
(492,216,o),
(403,141,o),
(285,141,cs,{
"Letterink-NibData" = {
AngleInDegrees = "270";
};
}),
(267,141,o),
(243,140,o),
(219,145,c),
(284,655,l,{
"Letterink-NibData" = {
AngleInDegrees = "270";
};
}),
(116,655,l,{
"Letterink-NibData" = {
AngleInDegrees = "180";
};
}),
(37,3,l,{
"Letterink-NibData" = {
AngleInDegrees = "95.10217";
};
}),
(129,-5,ls,{
"Letterink-NibData" = {
AngleInDegrees = "95.12819";
};
}),
(132,-5,o),
(175,-9,o),
(264,-10,cs,{
"Letterink-NibData" = {
AngleInDegrees = "90";
};
})
);
}
);
width = 692;
}
);
metricLeft = "=|H";
metricRight = O;
userData = {
position = 674;
width = 60;
};
},
{
glyphname = D.swsh;
kernLeft = Swash;
kernRight = O;
layers = (
{
hints = (
{
name = _corner.caps_swash;
options = 1;
origin = (0,6);
type = Corner;
}
);
layerId = "0CAF3BED-C4AC-4024-B3E1-4C69D1EF7EC0";
shapes = (
{
closed = 1;
nodes = (
(584,-10,o),
(743,134,o),
(769,338,cs),
(794,533,o),
(681,684,o),
(491,684,c,{
"Letterink-NibData" = {
AngleInDegrees = "270.21459";
};
}),
(226,684,l,{
"Letterink-NibData" = {
AngleInDegrees = "180";
};
}),
(225,608,l,{
"Letterink-NibData" = {
AngleInDegrees = "90";
};
}),
(474,608,l,{
"Letterink-NibData" = {
AngleInDegrees = "92.97373";
};
}),
(629,608,o),
(705,503,o),
(685,343,cs,{
"Letterink-NibData" = {
AngleInDegrees = "180";
};
}),
(663,165,o),
(544,65,o),
(351,65,cs,{
"Letterink-NibData" = {
AngleInDegrees = "270";
};
}),
(322,65,o),
(283,67,o),
(242,70,c),
(304,560,l,{
"Letterink-NibData" = {
AngleInDegrees = "270";
};
}),
(221,560,l,{
"Letterink-NibData" = {
AngleInDegrees = "180";
};
}),
(152,1,l,{
"Letterink-NibData" = {
AngleInDegrees = "95.10217";
};
}),
(209,-4,ls,{
"Letterink-NibData" = {
AngleInDegrees = "95.12819";
};
}),
(275,-10,o),
(277,-10,o),
(381,-10,cs,{
"Letterink-NibData" = {
AngleInDegrees = "90";
};
})
);
}
);
width = 795;
},
{
hints = (
{
name = _corner.caps_swash;
options = 1;
origin = (0,6);
type = Corner;
}
);
layerId = "49C16FD3-6177-408B-A733-AEB3898BB77C";
shapes = (
{
closed = 1;
nodes = (
(574,-9,o),
(724,130,o),
(750,340,cs),
(775,540,o),
(666,685,o),
(474,685,c,{
"Letterink-NibData" = {
AngleInDegrees = "270.22037";
};
}),
(216,685,l,{
"Letterink-NibData" = {
AngleInDegrees = "180";
};
}),
(215,649,l,{
"Letterink-NibData" = {
AngleInDegrees = "90";
};
}),
(463,649,l,{
"Letterink-NibData" = {
AngleInDegrees = 93.25195;
};
}),
(639,649,o),
(732,525,o),
(710,341,cs,{
"Letterink-NibData" = {
AngleInDegrees = "180";
};
}),
(686,142,o),
(556,26,o),
(350,26,cs,{
"Letterink-NibData" = {
AngleInDegrees = "270";
};
}),
(286,26,o),
(211,29,o),
(194,31,c),
(261,569,l,{
"Letterink-NibData" = {
AngleInDegrees = "270";
};
}),
(222,569,l,{
"Letterink-NibData" = {
AngleInDegrees = "180";
};
}),
(152,0,l,{
"Letterink-NibData" = {
AngleInDegrees = 94.18492;
};
}),
(182,-3,ls,{
"Letterink-NibData" = {
AngleInDegrees = "94.20536";
};
}),
(248,-10,o),
(292,-9,o),
(372,-9,cs,{
"Letterink-NibData" = {
AngleInDegrees = "90";
};
})
);
}
);
width = 783;
},
{
hints = (
{
name = _corner.caps_swash;
options = 1;
origin = (0,6);
type = Corner;
}
);
layerId = m004;
shapes = (
{
closed = 1;
nodes = (
(666,-10,o),
(820,144,o),
(843,327,cs),
(866,516,o),
(754,684,o),
(562,684,c,{
"Letterink-NibData" = {
AngleInDegrees = "270.21459";
};
}),
(263,685,l,{
"Letterink-NibData" = {
AngleInDegrees = "180";
};
}),
(265,537,l,{
"Letterink-NibData" = {
AngleInDegrees = "90";
};
}),
(535,537,l,{
"Letterink-NibData" = {
AngleInDegrees = "92.97373";
};
}),
(658,537,o),
(689,450,o),
(677,350,cs,{
"Letterink-NibData" = {
AngleInDegrees = "180";
};
}),
(660,215,o),
(566,141,o),
(455,141,cs,{
"Letterink-NibData" = {
AngleInDegrees = "270";
};
}),
(440,141,o),
(414,143,o),
(392,146,c),
(438,499,l,{
"Letterink-NibData" = {
AngleInDegrees = "270";
};
}),
(270,499,l,{
"Letterink-NibData" = {
AngleInDegrees = "180";
};
}),
(210,5,l,{
"Letterink-NibData" = {
AngleInDegrees = "95.10217";
};
}),
(302,-4,ls,{
"Letterink-NibData" = {
AngleInDegrees = "95.12819";
};
}),
(335,-7,o),
(380,-10,o),
(412,-10,cs,{
"Letterink-NibData" = {
AngleInDegrees = "90";
};
})
);
}
);
width = 861;
}
);
metricLeft = E;
metricRight = O;
userData = {
position = 674;
width = 60;
};
},
{
glyphname = E;
kernLeft = E;
kernRight = E;
layers = (
{
anchors = (
{
name = bottom;
pos = (381,2);
},
{
name = ogonek;
pos = (592,-1);
},
{
name = top;
pos = (426,684);
},
{
name = topleft;
pos = (135,684);
}
);
hints = (
{
name = _corner.caps_left;
origin = (0,10);
type = Corner;
}
);
layerId = "0CAF3BED-C4AC-4024-B3E1-4C69D1EF7EC0";
shapes = (
{
closed = 1;
nodes = (
(592,-1,l),
(601,75,l,{
"Letterink-NibData" = {
AngleInDegrees = "270";
};
}),
(215,75,l),
(246,323,l,{
"Letterink-NibData" = {
AngleInDegrees = "90";
};
}),
(516,323,l),
(525,399,l,{
"Letterink-NibData" = {
AngleInDegrees = "270";
};
}),
(255,399,l),
(281,608,l,{
"Letterink-NibData" = {
AngleInDegrees = "90";
};
}),
(648,608,l),
(657,684,l,{
"Letterink-NibData" = {
AngleInDegrees = "270";
};
}),
(197,684,l,{
"Letterink-NibData" = {
AngleInDegrees = "180";
};
}),
(198,609,l),
(123,-1,l,{
"Letterink-NibData" = {
AngleInDegrees = "90";
};
})
);
}
);
width = 646;
},
{
anchors = (
{
name = bottom;
pos = (318,0);
},
{
name = ogonek;
pos = (537,1);
},
{
name = top;
pos = (409,684);
},
{
name = topleft;
pos = (95,684);
}
);
hints = (
{
name = _corner.caps_left;
origin = (0,10);
type = Corner;
}
);
layerId = "49C16FD3-6177-408B-A733-AEB3898BB77C";
shapes = (
{
closed = 1;
nodes = (
(538,0,l),
(542,36,l,{
"Letterink-NibData" = {
AngleInDegrees = 270;
};
}),
(156,36,l),
(194,346,l,{
"Letterink-NibData" = {
AngleInDegrees = 90;
};
}),
(457,346,l),
(462,382,l,{
"Letterink-NibData" = {
AngleInDegrees = 270;
};
}),
(199,382,l),
(232,648,l,{
"Letterink-NibData" = {
AngleInDegrees = 90;
};
}),
(610,648,l),
(614,684,l,{
"Letterink-NibData" = {
AngleInDegrees = 269.86613;
};
}),
(194,684,l,{
"Letterink-NibData" = {
AngleInDegrees = 180;
};
}),
(194,649,l),
(113,0,l,{
"Letterink-NibData" = {
AngleInDegrees = 90;
};
})
);
}
);
width = 593;
},
{
anchors = (
{
name = bottom;
pos = (419,0);
},
{
name = ogonek;
pos = (622,0);
},
{
name = top;
pos = (466,684);
},
{
name = topleft;
pos = (244,684);
}
);
hints = (
{
name = _corner.caps_left;
origin = (0,10);
type = Corner;
}
);
layerId = m004;
shapes = (
{
closed = 1;
nodes = (
(622,0,l),
(640,148,l,{
"Letterink-NibData" = {
AngleInDegrees = "270";
};
}),
(344,148,l),
(360,273,l,{
"Letterink-NibData" = {
AngleInDegrees = "90";
};
}),
(560,273,l),
(578,421,l,{
"Letterink-NibData" = {
AngleInDegrees = "270";
};
}),
(378,421,l),
(392,536,l,{
"Letterink-NibData" = {
AngleInDegrees = "90";
};
}),
(673,536,l),
(691,684,l,{
"Letterink-NibData" = {
AngleInDegrees = "270";
};
}),
(233,684,l,{
"Letterink-NibData" = {
AngleInDegrees = "180";
};
}),
(226,536,l),
(160,0,l,{
"Letterink-NibData" = {
AngleInDegrees = "90";
};
})
);
}
);
width = 682;
}
);
unicode = 69;
userData = {
position = 130;
width = 61;
};
},
{
glyphname = E.ss01;
kernLeft = L;
kernRight = E;
layers = (
{
anchors = (
{
name = bottom;
pos = (286,0);
},
{
name = ogonek;
pos = (517,-1);
},
{
name = top;
pos = (372,685);
},
{
name = topleft;
pos = (68,684);
}
);
layerId = "0CAF3BED-C4AC-4024-B3E1-4C69D1EF7EC0";
shapes = (
{
closed = 1;
nodes = (
(517,-1,l),
(526,75,l,{
"Letterink-NibData" = {
AngleInDegrees = 270;
};
}),
(139,75,l),
(170,323,l,{
"Letterink-NibData" = {
AngleInDegrees = 90;
};
}),
(441,323,l),
(450,399,l,{
"Letterink-NibData" = {
AngleInDegrees = 270;
};
}),
(179,399,l),
(205,608,l,{
"Letterink-NibData" = {
AngleInDegrees = 90;
};
}),
(573,608,l),
(582,684,l,{
"Letterink-NibData" = {
AngleInDegrees = 270;
};
}),
(132,684,l,{
"Letterink-NibData" = {
AngleInDegrees = 180;
};
}),
(48,-1,l,{
"Letterink-NibData" = {
AngleInDegrees = 90;
};
})
);
}
);
width = 571;
},
{
anchors = (
{
name = bottom;
pos = (282,2);
},
{
name = ogonek;
pos = (504,1);
},
{
name = top;
pos = (364,684);
},
{
name = topleft;
pos = (72,684);
}
);
layerId = "49C16FD3-6177-408B-A733-AEB3898BB77C";
shapes = (
{
closed = 1;
nodes = (
(504,0,l),
(508,36,l,{
"Letterink-NibData" = {
AngleInDegrees = 270;
};
}),
(96,36,l),
(134,346,l,{
"Letterink-NibData" = {
AngleInDegrees = 90;
};
}),
(423,346,l),
(428,382,l,{
"Letterink-NibData" = {
AngleInDegrees = 270;
};
}),
(138,382,l),
(171,649,l,{
"Letterink-NibData" = {
AngleInDegrees = 90;
};
}),
(564,649,l),
(568,685,l,{
"Letterink-NibData" = {
AngleInDegrees = 270;
};
}),
(137,685,l,{
"Letterink-NibData" = {
AngleInDegrees = 180;
};
}),
(53,0,l,{
"Letterink-NibData" = {
AngleInDegrees = 90;
};
})
);
}
);
width = 559;
},
{
anchors = (
{
name = bottom;
pos = (292,0);
},
{
name = ogonek;
pos = (527,0);
},
{
name = top;
pos = (363,687);
},
{
name = topleft;
pos = (119,684);
}
);
layerId = m004;
shapes = (
{
closed = 1;
nodes = (
(527,0,l),
(545,148,l,{
"Letterink-NibData" = {
AngleInDegrees = 270;
};
}),
(219,148,l),
(235,273,l,{
"Letterink-NibData" = {
AngleInDegrees = 90;
};
}),
(465,273,l),
(483,421,l,{
"Letterink-NibData" = {
AngleInDegrees = 270;
};
}),
(253,421,l),
(267,536,l,{
"Letterink-NibData" = {
AngleInDegrees = 90;
};
}),
(578,536,l),
(596,684,l,{
"Letterink-NibData" = {
AngleInDegrees = 270;
};
}),
(119,684,l,{
"Letterink-NibData" = {
AngleInDegrees = 180;
};
}),
(35,0,l,{
"Letterink-NibData" = {
AngleInDegrees = 90;
};
})
);
}
);
width = 587;
}
);
metricLeft = N.ss01;
metricRight = E;
userData = {
position = 95;
width = 61;
};
},
{
glyphname = E.swsh;
kernLeft = Swash;
kernRight = E;
layers = (
{
anchors = (
{
name = bottom;
pos = (412,0);
},
{
name = ogonek;
pos = (630,0);
},
{
name = top;
pos = (489,684);
},
{
name = topleft;
pos = (97,684);
}
);
hints = (
{
name = _corner.caps_swash;
origin = (1,2);
type = Corner;
}
);
layerId = "0CAF3BED-C4AC-4024-B3E1-4C69D1EF7EC0";
shapes = (
{
closed = 1;
nodes = (
(630,0,l),
(639,76,l,{
"Letterink-NibData" = {
AngleInDegrees = 270;
};
}),
(274,76,l),
(305,325,l,{
"Letterink-NibData" = {
AngleInDegrees = 90;
};
}),
(554,325,l),
(563,401,l,{
"Letterink-NibData" = {
AngleInDegrees = 270;
};
}),
(314,401,l),
(334,559,l,{
"Letterink-NibData" = {
AngleInDegrees = 270;
};
}),
(251,559,l,{
"Letterink-NibData" = {
AngleInDegrees = 180;
};
}),
(182,0,l,{
"Letterink-NibData" = {
AngleInDegrees = 90;
};
})
);
},
{
closed = 1;
nodes = (
(695,609,l),
(704,685,l,{
"Letterink-NibData" = {
AngleInDegrees = 270;
};
}),
(231,685,l,{
"Letterink-NibData" = {
AngleInDegrees = 180;
};
}),
(232,609,l,{
"Letterink-NibData" = {
AngleInDegrees = 90;
};
})
);
}
);
width = 684;
},
{
anchors = (
{
name = bottom;
pos = (390,0);
},
{
name = ogonek;
pos = (598,0);
},
{
name = top;
pos = (464,684);
},
{
name = topleft;
pos = (68,684);
}
);
hints = (
{
name = _corner.caps_swash;
origin = (1,2);
type = Corner;
}
);
layerId = "49C16FD3-6177-408B-A733-AEB3898BB77C";
shapes = (
{
closed = 1;
nodes = (
(598,0,l),
(602,36,l,{
"Letterink-NibData" = {
AngleInDegrees = 270;
};
}),
(212,36,l),
(250,346,l,{
"Letterink-NibData" = {
AngleInDegrees = 90;
};
}),
(516,346,l),
(521,382,l,{
"Letterink-NibData" = {
AngleInDegrees = 270;
};
}),
(253,382,l),
(276,570,l,{
"Letterink-NibData" = {
AngleInDegrees = 270;
};
}),
(239,570,l,{
"Letterink-NibData" = {
AngleInDegrees = 180;
};
}),
(169,0,l,{
"Letterink-NibData" = {
AngleInDegrees = 90;
};
})
);
},
{
closed = 1;
nodes = (
(668,648,l),
(672,684,l,{
"Letterink-NibData" = {
AngleInDegrees = 270;
};
}),
(215,684,l,{
"Letterink-NibData" = {
AngleInDegrees = 180;
};
}),
(215,648,l,{
"Letterink-NibData" = {
AngleInDegrees = 90;
};
})
);
}
);
width = 653;
},
{
anchors = (
{
name = bottom;
pos = (452,0);
},
{
name = ogonek;
pos = (683,0);
},
{
name = top;
pos = (524,684);
},
{
name = topleft;
pos = (81,728);
}
);
hints = (
{
name = _corner.caps_swash;
origin = (1,2);
type = Corner;
}
);
layerId = m004;
shapes = (
{
closed = 1;
nodes = (
(683,0,l),
(701,148,l,{
"Letterink-NibData" = {
AngleInDegrees = "270";
};
}),
(385,148,l),
(401,276,l,{
"Letterink-NibData" = {
AngleInDegrees = "90";
};
}),
(621,276,l),
(639,424,l,{
"Letterink-NibData" = {
AngleInDegrees = "270";
};
}),
(419,424,l),
(429,501,l,{
"Letterink-NibData" = {
AngleInDegrees = "90";
};
}),
(262,500,l,{
"Letterink-NibData" = {
AngleInDegrees = "180";
};
}),
(201,0,l,{
"Letterink-NibData" = {
AngleInDegrees = "90";
};
})
);
},
{
closed = 1;
nodes = (
(734,536,l),
(752,684,l,{
"Letterink-NibData" = {
AngleInDegrees = "270";
};
}),
(270,684,l,{
"Letterink-NibData" = {
AngleInDegrees = "180";
};
}),
(267,536,l)
);
}
);
width = 743;
}
);
metricRight = E;
userData = {
position = 130;
width = 61;
};
},
{
glyphname = Schwa;
kernLeft = O;
kernRight = O;
layers = (
{
anchors = (
{
name = bottom;
pos = (268,-1);
},
{
name = ogonek;
pos = (102,621);
},
{
name = top;
pos = (334,701);
}
);
layerId = "49C16FD3-6177-408B-A733-AEB3898BB77C";
shapes = (
{
closed = 1;
nodes = (
(571,386,l),
(552,391,o),
(424,399,o),
(366,399,cs,{
"Letterink-NibData" = {
AngleInDegrees = 90;
};
}),
(179,399,o),
(59,325,o),
(42,191,cs),
(27,73,o),
(107,-10,o),
(240,-10,cs,{
"Letterink-NibData" = {
AngleInDegrees = 270;
};
}),
(425,-10,o),
(577,149,o),
(603,360,cs,{
"Letterink-NibData" = {
AngleInDegrees = 180;
};
}),
(630,580,o),
(524,701,o),
(334,701,cs,{
"Letterink-NibData" = {
AngleInDegrees = 90;
};
}),
(238,701,o),
(165,674,o),
(83,616,c,{
"Letterink-NibData" = {
AngleInDegrees = 324.09028;
};
}),
(102,587,l,{
"Letterink-NibData" = {
AngleInDegrees = 237.68038;
};
}),
(170,634,o),
(243,666,o),
(333,666,cs,{
"Letterink-NibData" = {
AngleInDegrees = 270;
};
}),
(504,666,o),
(585,555,o),
(564,367,cs,{
"Letterink-NibData" = {
AngleInDegrees = 90;
};
}),
(543,177,o),
(398,25,o),
(237,25,cs,{
"Letterink-NibData" = {
AngleInDegrees = 90;
};
}),
(131,25,o),
(70,96,o),
(82,187,cs,{
"Letterink-NibData" = {
AngleInDegrees = 180;
};
}),
(97,300,o),
(202,366,o),
(365,363,cs,{
"Letterink-NibData" = {
AngleInDegrees = 270;
};
}),
(476,361,o),
(546,354,o),
(567,353,c,{
"Letterink-NibData" = {
AngleInDegrees = 357.92997;
};
})
);
}
);
userData = {
RMXScaler = {
height = 140;
verticalShift = -260;
width = 135;
};
};
width = 635;
},
{
anchors = (
{
name = bottom;
pos = (280,-2);
},
{
name = ogonek;
pos = (100,617);
},
{
name = top;
pos = (354,697);
}
);
layerId = "0CAF3BED-C4AC-4024-B3E1-4C69D1EF7EC0";
shapes = (
{
closed = 1;
nodes = (
(539,405,l),
(540,407,o),
(422,417,o),
(388,417,cs,{
"Letterink-NibData" = {
AngleInDegrees = 91.29217;
};
}),
(184,417,o),
(54,335,o),
(37,200,cs),
(21,74,o),
(109,-18,o),
(250,-18,cs,{
"Letterink-NibData" = {
AngleInDegrees = 270;
};
}),
(434,-18,o),
(585,104,o),
(617,360,cs,{
"Letterink-NibData" = {
AngleInDegrees = 180;
};
}),
(643,567,o),
(537,702,o),
(341,702,cs,{
"Letterink-NibData" = {
AngleInDegrees = 90;
};
}),
(248,702,o),
(158,672,o),
(77,609,c,{
"Letterink-NibData" = {
AngleInDegrees = 321.70984;
};
}),
(114,550,l,{
"Letterink-NibData" = {
AngleInDegrees = 233.56914;
};
}),
(184,599,o),
(257,628,o),
(336,628,cs,{
"Letterink-NibData" = {
AngleInDegrees = 270;
};
}),
(478,628,o),
(549,539,o),
(534,386,cs,{
"Letterink-NibData" = {
AngleInDegrees = 91.10171;
};
}),
(507,114,o),
(363,56,o),
(250,56,cs,{
"Letterink-NibData" = {
AngleInDegrees = 90;
};
}),
(164,56,o),
(109,110,o),
(119,191,cs,{
"Letterink-NibData" = {
AngleInDegrees = 180;
};
}),
(131,291,o),
(224,346,o),
(387,343,cs,{
"Letterink-NibData" = {
AngleInDegrees = 270;
};
}),
(456,342,o),
(480,340,o),
(553,332,c,{
"Letterink-NibData" = {
AngleInDegrees = 3.91825;
};
})
);
}
);
userData = {
RMXScaler = {
height = 140;
verticalShift = -260;
width = 135;
};
};
width = 644;
},
{
anchors = (
{
name = bottom;
pos = (287,-10);
},
{
name = ogonek;
pos = (82,610);
},
{
name = top;
pos = (371,700);
}
);
layerId = m004;
shapes = (
{
closed = 1;
nodes = (
(510,437,l),
(489,438,o),
(389,441,o),
(377,441,cs,{
"Letterink-NibData" = {
AngleInDegrees = 91.29217;
};
}),
(179,441,o),
(46,355,o),
(29,215,cs),
(12,77,o),
(110,-26,o),
(272,-28,cs,{
"Letterink-NibData" = {
AngleInDegrees = 270;
};
}),
(461,-30,o),
(619,126,o),
(646,348,cs,{
"Letterink-NibData" = {
AngleInDegrees = 180;
};
}),
(673,570,o),
(556,713,o),
(356,715,cs,{
"Letterink-NibData" = {
AngleInDegrees = 90;
};
}),
(256,716,o),
(150,678,o),
(67,611,c,{
"Letterink-NibData" = {
AngleInDegrees = 321.70984;
};
}),
(141,494,l,{
"Letterink-NibData" = {
AngleInDegrees = "241.22019";
};
}),
(200,541,o),
(275,571,o),
(343,571,cs,{
"Letterink-NibData" = {
AngleInDegrees = "270";
};
}),
(445,571,o),
(492,510,o),
(482,402,cs,{
"Letterink-NibData" = {
AngleInDegrees = 91.10171;
};
}),
(464,195,o),
(380,116,o),
(275,116,cs,{
"Letterink-NibData" = {
AngleInDegrees = 90;
};
}),
(228,116,o),
(191,155,o),
(196,199,cs,{
"Letterink-NibData" = {
AngleInDegrees = 180;
};
}),
(205,269,o),
(261,299,o),
(377,302,cs,{
"Letterink-NibData" = {
AngleInDegrees = 270;
};
}),
(424,303,o),
(462,307,o),
(523,301,c,{
"Letterink-NibData" = {
AngleInDegrees = 3.91825;
};
})
);
}
);
userData = {
RMXScaler = {
height = 140;
verticalShift = -260;
width = 135;
};
};
width = 664;
}
);
unicode = 399;
userData = {
RMXScaler = {
source = schwa;
};
};
},
{
glyphname = F;
kernLeft = E;
kernRight = F;
layers = (
{
anchors = (
{
name = bottom;
pos = (337,0);
},
{
name = top;
pos = (422,684);
}
);
hints = (
{
name = _corner.caps_left;
origin = (0,8);
type = Corner;
}
);
layerId = "0CAF3BED-C4AC-4024-B3E1-4C69D1EF7EC0";
shapes = (
{
closed = 1;
nodes = (
(206,-1,l),
(246,324,l,{
"Letterink-NibData" = {
AngleInDegrees = 90;
};
}),
(496,324,l),
(505,400,l,{
"Letterink-NibData" = {
AngleInDegrees = 270;
};
}),
(255,400,l),
(281,609,l,{
"Letterink-NibData" = {
AngleInDegrees = 90;
};
}),
(617,609,l),
(626,685,l,{
"Letterink-NibData" = {
AngleInDegrees = 270;
};
}),
(197,685,l,{
"Letterink-NibData" = {
AngleInDegrees = 179.91648;
};
}),
(198,609,l),
(124,-1,l,{
"Letterink-NibData" = {
AngleInDegrees = 90;
};
})
);
}
);
width = 591;
},
{
anchors = (
{
name = bottom;
pos = (326,-18);
},
{
name = top;
pos = (414,684);
}
);
hints = (
{
name = _corner.caps_left;
origin = (0,8);
type = Corner;
}
);
layerId = "49C16FD3-6177-408B-A733-AEB3898BB77C";
shapes = (
{
closed = 1;
nodes = (
(152,0,l),
(195,345,l,{
"Letterink-NibData" = {
AngleInDegrees = 90;
};
}),
(461,345,l),
(466,381,l,{
"Letterink-NibData" = {
AngleInDegrees = 270;
};
}),
(199,381,l),
(232,648,l,{
"Letterink-NibData" = {
AngleInDegrees = 90;
};
}),
(592,648,l),
(596,684,l,{
"Letterink-NibData" = {
AngleInDegrees = 270;
};
}),
(194,684,l,{
"Letterink-NibData" = {
AngleInDegrees = 180;
};
}),
(194,649,l),
(114,0,l,{
"Letterink-NibData" = {
AngleInDegrees = 90;
};
})
);
}
);
width = 562;
},
{
anchors = (
{
name = bottom;
pos = (403,-3);
},
{
name = top;
pos = (489,684);
}
);
hints = (
{
name = _corner.caps_left;
origin = (0,8);
type = Corner;
}
);
layerId = m004;
shapes = (
{
closed = 1;
nodes = (
(327,0,l),
(358,263,l,{
"Letterink-NibData" = {
AngleInDegrees = "90";
};
}),
(558,263,l),
(576,411,l,{
"Letterink-NibData" = {
AngleInDegrees = "270";
};
}),
(376,411,l),
(392,536,l,{
"Letterink-NibData" = {
AngleInDegrees = "90";
};
}),
(678,536,l),
(696,684,l,{
"Letterink-NibData" = {
AngleInDegrees = "270";
};
}),
(229,684,l,{
"Letterink-NibData" = {
AngleInDegrees = "180";
};
}),
(226,538,l),
(160,0,l,{
"Letterink-NibData" = {
AngleInDegrees = "90";
};
})
);
}
);
width = 666;
}
);
metricLeft = E;
metricRight = "=E*.8";
unicode = 70;
userData = {
position = 129;
width = 61;
};
},
{
glyphname = F.ss01;
kernRight = F;
layers = (
{
anchors = (
{
name = bottom;
pos = (262,0);
},
{
name = top;
pos = (347,684);
}
);
layerId = "0CAF3BED-C4AC-4024-B3E1-4C69D1EF7EC0";
shapes = (
{
closed = 1;
nodes = (
(132,-1,l),
(171,317,l,{
"Letterink-NibData" = {
AngleInDegrees = 90;
};
}),
(448,317,l),
(457,393,l,{
"Letterink-NibData" = {
AngleInDegrees = 270;
};
}),
(180,393,l),
(207,610,l,{
"Letterink-NibData" = {
AngleInDegrees = 90;
};
}),
(552,610,l),
(561,686,l,{
"Letterink-NibData" = {
AngleInDegrees = 270;
};
}),
(133,686,l,{
"Letterink-NibData" = {
AngleInDegrees = 180;
};
}),
(49,-1,l,{
"Letterink-NibData" = {
AngleInDegrees = 90;
};
})
);
}
);
width = 526;
},
{
anchors = (
{
name = bottom;
pos = (251,0);
},
{
name = top;
pos = (337,684);
}
);
layerId = "49C16FD3-6177-408B-A733-AEB3898BB77C";
shapes = (
{
closed = 1;
nodes = (
(91,1,l),
(132,337,l,{
"Letterink-NibData" = {
AngleInDegrees = 90;
};
}),
(429,337,l),
(434,372,l,{
"Letterink-NibData" = {
AngleInDegrees = 270;
};
}),
(137,372,l),
(171,648,l,{
"Letterink-NibData" = {
AngleInDegrees = 90;
};
}),
(540,648,l),
(544,685,l,{
"Letterink-NibData" = {
AngleInDegrees = 270;
};
}),
(137,685,l,{
"Letterink-NibData" = {
AngleInDegrees = 180;
};
}),
(53,1,l,{
"Letterink-NibData" = {
AngleInDegrees = 90;
};
})
);
}
);
width = 510;
},
{
anchors = (
{
name = bottom;
pos = (268,-11);
},
{
name = top;
pos = (355,684);
}
);
layerId = m004;
shapes = (
{
closed = 1;
nodes = (
(202,1,l),
(233,263,l,{
"Letterink-NibData" = {
AngleInDegrees = "90";
};
}),
(453,263,l),
(471,411,l,{
"Letterink-NibData" = {
AngleInDegrees = "270";
};
}),
(251,411,l),
(267,536,l,{
"Letterink-NibData" = {
AngleInDegrees = "90";
};
}),
(573,536,l),
(591,684,l,{
"Letterink-NibData" = {
AngleInDegrees = "270";
};
}),
(119,684,l,{
"Letterink-NibData" = {
AngleInDegrees = "180";
};
}),
(35,1,l,{
"Letterink-NibData" = {
AngleInDegrees = "90";
};
})
);
}
);
width = 561;
}
);
metricLeft = N.ss01;
metricRight = "=E*.8";
userData = {
position = 95;
width = 61;
};
},
{
glyphname = F.swsh;
kernLeft = Swash;
kernRight = F;
layers = (
{
anchors = (
{
name = bottom;
pos = (374,0);
},
{
name = top;
pos = (452,684);
}
);
hints = (
{
name = _corner.caps_swash;
options = 1;
origin = (1,2);
type = Corner;
}
);
layerId = "0CAF3BED-C4AC-4024-B3E1-4C69D1EF7EC0";
shapes = (
{
closed = 1;
nodes = (
(265,-1,l),
(309,360,l,{
"Letterink-NibData" = {
AngleInDegrees = 90;
};
}),
(268,324,l,{
"Letterink-NibData" = {
AngleInDegrees = 90;
};
}),
(554,324,l),
(563,400,l,{
"Letterink-NibData" = {
AngleInDegrees = 270;
};
}),
(279,400,l),
(310,364,l),
(334,559,l,{
"Letterink-NibData" = {
AngleInDegrees = 270;
};
}),
(251,559,l,{
"Letterink-NibData" = {
AngleInDegrees = 180;
};
}),
(182,-1,l,{
"Letterink-NibData" = {
AngleInDegrees = 90;
};
})
);
},
{
closed = 1;
nodes = (
(685,608,l),
(694,684,l,{
"Letterink-NibData" = {
AngleInDegrees = 270;
};
}),
(230,684,l,{
"Letterink-NibData" = {
AngleInDegrees = 180;
};
}),
(231,608,l,{
"Letterink-NibData" = {
AngleInDegrees = 90;
};
})
);
}
);
width = 659;
},
{
anchors = (
{
name = bottom;
pos = (354,0);
},
{
name = top;
pos = (434,684);
}
);
hints = (
{
name = _corner.caps_swash;
options = 1;
origin = (1,2);
type = Corner;
}
);
layerId = "49C16FD3-6177-408B-A733-AEB3898BB77C";
shapes = (
{
closed = 1;
nodes = (
(210,0,l),
(254,361,l,{
"Letterink-NibData" = {
AngleInDegrees = 90;
};
}),
(236,345,l,{
"Letterink-NibData" = {
AngleInDegrees = 90;
};
}),
(520,345,l),
(525,381,l,{
"Letterink-NibData" = {
AngleInDegrees = 270;
};
}),
(241,381,l),
(255,365,l),
(280,570,l,{
"Letterink-NibData" = {
AngleInDegrees = 270;
};
}),
(242,570,l,{
"Letterink-NibData" = {
AngleInDegrees = 180;
};
}),
(172,0,l,{
"Letterink-NibData" = {
AngleInDegrees = 90;
};
})
);
},
{
closed = 1;
nodes = (
(662,648,l),
(666,684,l,{
"Letterink-NibData" = {
AngleInDegrees = 270;
};
}),
(218,684,l,{
"Letterink-NibData" = {
AngleInDegrees = 180;
};
}),
(219,648,l,{
"Letterink-NibData" = {
AngleInDegrees = 90;
};
})
);
}
);
width = 632;
},
{
anchors = (
{
name = bottom;
pos = (456,-4);
},
{
name = top;
pos = (543,684);
}
);
hints = (
{
name = _corner.caps_swash;
options = 1;
origin = (1,2);
type = Corner;
}
);
layerId = m004;
shapes = (
{
closed = 1;
nodes = (
(370,0,l),
(411,334,l,{
"Letterink-NibData" = {
AngleInDegrees = "90";
};
}),
(330,263,l,{
"Letterink-NibData" = {
AngleInDegrees = "90";
};
}),
(622,263,l),
(640,411,l,{
"Letterink-NibData" = {
AngleInDegrees = "270";
};
}),
(351,411,l),
(413,340,l),
(431,499,l,{
"Letterink-NibData" = {
AngleInDegrees = "90";
};
}),
(265,499,l),
(204,0,l,{
"Letterink-NibData" = {
AngleInDegrees = "90";
};
})
);
},
{
closed = 1;
nodes = (
(742,536,l),
(760,684,l,{
"Letterink-NibData" = {
AngleInDegrees = "270";
};
}),
(263,684,l,{
"Letterink-NibData" = {
AngleInDegrees = "180";
};
}),
(260,536,l)
);
}
);
width = 730;
}
);
metricLeft = E.swsh;
metricRight = F;
userData = {
position = 129;
width = 61;
};
},
{
glyphname = G;
kernLeft = O;
kernRight = O;
layers = (
{
anchors = (
{
name = bottom;
pos = (341,-9);
},
{
name = top;
pos = (427,689);
}
);
layerId = "0CAF3BED-C4AC-4024-B3E1-4C69D1EF7EC0";
shapes = (
{
closed = 1;
nodes = (
(557,-19,o),
(668,137,o),
(700,330,cs),
(702,342,l),
(386,342,l),
(377,272,l),
(656,272,l),
(612,305,l),
(594,187,o),
(512,55,o),
(363,55,cs),
(212,55,o),
(109,162,o),
(130,335,cs),
(150,502,o),
(284,627,o),
(437,627,cs),
(567,627,o),
(605,577,o),
(601,545,cs),
(599,529,o),
(586,508,o),
(567,508,cs),
(563,508,o),
(554,508,o),
(546,513,c),
(502,455,l),
(523,440,o),
(545,434,o),
(565,434,cs),
(617,434,o),
(670,475,o),
(678,537,cs),
(693,651,o),
(575,701,o),
(439,701,cs),
(249,701,o),
(72,540,o),
(48,343,cs),
(22,130,o),
(157,-19,o),
(361,-19,cs)
);
}
);
width = 727;
},
{
anchors = (
{
name = bottom;
pos = (350,0);
},
{
name = top;
pos = (432,688);
}
);
layerId = "49C16FD3-6177-408B-A733-AEB3898BB77C";
shapes = (
{
closed = 1;
nodes = (
(533,-11,o),
(666,120,o),
(695,310,cs),
(698,330,l),
(408,330,l),
(405,294,l),
(675,294,l),
(658,312,l),
(633,148,o),
(515,24,o),
(357,24,cs),
(172,24,o),
(72,152,o),
(95,338,cs),
(118,527,o),
(265,659,o),
(431,659,cs),
(574,659,o),
(636,587,o),
(630,540,cs),
(627,514,o),
(608,482,o),
(578,482,cs),
(568,485,o),
(556,488,o),
(548,491,c),
(523,464,l),
(541,450,o),
(561,446,o),
(577,446,cs),
(617,446,o),
(661,483,o),
(668,536,cs),
(679,618,o),
(587,694,o),
(432,694,cs),
(251,694,o),
(81,555,o),
(55,342,cs),
(29,133,o),
(152,-11,o),
(356,-11,cs)
);
}
);
width = 731;
},
{
anchors = (
{
name = bottom;
pos = (349,-10);
},
{
name = top;
pos = (436,703);
}
);
layerId = m004;
shapes = (
{
closed = 1;
nodes = (
(563,-25,o),
(698,111,o),
(717,338,cs),
(719,362,l),
(401,362,l),
(385,224,l),
(630,224,l),
(563,289,l),
(554,186,o),
(480,119,o),
(371,119,cs),
(254,119,o),
(190,199,o),
(205,325,cs),
(222,469,o),
(321,567,o),
(448,567,cs),
(506,567,o),
(563,546,o),
(561,521,cs),
(560,510,o),
(551,502,o),
(541,502,cs),
(537,502,o),
(534,503,o),
(530,507,c),
(455,422,l),
(475,400,o),
(506,385,o),
(545,385,cs),
(621,385,o),
(691,444,o),
(700,517,cs),
(714,627,o),
(604,711,o),
(448,711,cs),
(236,711,o),
(64,557,o),
(38,343,cs),
(12,130,o),
(144,-25,o),
(353,-25,cs)
);
}
);
width = 733;
}
);
metricLeft = O;
metricRight = "=O*.975";
note = "Bold: 98/95.5%";
unicode = 71;
userData = {
position = 593;
width = 57;
};
},
{
glyphname = G.ss01;
kernLeft = O;
kernRight = O;
layers = (
{
anchors = (
{
name = bottom;
pos = (355,-19);
},
{
name = top;
pos = (439,702);
}
);
layerId = "0CAF3BED-C4AC-4024-B3E1-4C69D1EF7EC0";
shapes = (
{
closed = 1;
nodes = (
(543,-19,o),
(683,112,o),
(708,314,cs),
(713,354,l),
(405,354,l),
(396,278,l),
(665,278,l),
(630,318,l),
(611,160,o),
(503,55,o),
(359,55,cs),
(205,55,o),
(111,172,o),
(131,337,cs),
(151,505,o),
(282,628,o),
(438,628,cs),
(536,628,o),
(610,581,o),
(624,511,c),
(697,529,l),
(680,631,o),
(575,702,o),
(439,702,cs),
(238,702,o),
(75,552,o),
(49,344,cs),
(23,132,o),
(150,-19,o),
(355,-19,cs)
);
}
);
width = 737;
},
{
anchors = (
{
name = bottom;
pos = (352,-2);
},
{
name = top;
pos = (444,694);
}
);
layerId = "49C16FD3-6177-408B-A733-AEB3898BB77C";
shapes = (
{
closed = 1;
nodes = (
(539,-11,o),
(678,120,o),
(700,318,cs),
(702,336,l),
(402,336,l),
(398,300,l),
(682,300,l),
(667,320,l),
(645,143,o),
(520,24,o),
(358,24,cs),
(185,24,o),
(73,152,o),
(95,337,cs),
(118,532,o),
(269,661,o),
(442,661,cs),
(571,661,o),
(643,594,o),
(657,525,c),
(689,534,l),
(671,622,o),
(581,696,o),
(443,696,cs),
(250,696,o),
(81,556,o),
(55,341,cs),
(30,134,o),
(157,-11,o),
(357,-11,cs)
);
}
);
width = 736;
},
{
anchors = (
{
name = bottom;
pos = (342,-12);
},
{
name = top;
pos = (443,698);
}
);
layerId = m004;
shapes = (
{
closed = 1;
nodes = (
(550,-31,o),
(702,112,o),
(729,336,c),
(736,387,l),
(419,387,l),
(402,249,l),
(644,249,l),
(578,317,l),
(564,194,o),
(485,112,o),
(367,112,cs),
(253,112,o),
(186,194,o),
(203,330,cs),
(220,464,o),
(313,567,o),
(439,567,cs),
(515,567,o),
(560,527,o),
(567,489,c),
(712,523,l),
(691,643,o),
(576,711,o),
(440,711,cs),
(235,711,o),
(65,562,o),
(39,348,cs),
(12,122,o),
(146,-31,o),
(351,-31,cs)
);
}
);
width = 746;
}
);
metricLeft = O;
metricRight = O;
userData = {
position = 593;
width = 57;
};
},
{
glyphname = G.swsh;
kernLeft = O;
kernRight = O;
layers = (
{
layerId = "0CAF3BED-C4AC-4024-B3E1-4C69D1EF7EC0";
shapes = (
{
closed = 1;
nodes = (
(561,-266,o),
(632,-218,o),
(645,-112,cs),
(701,342,l),
(624,342,l),
(569,-108,ls),
(563,-154,o),
(536,-190,o),
(494,-190,cs),
(476,-190,o),
(455,-179,o),
(446,-155,c),
(376,-185,l),
(394,-233,o),
(438,-266,o),
(492,-266,cs)
);
},
{
ref = G;
}
);
width = 727;
},
{
layerId = "49C16FD3-6177-408B-A733-AEB3898BB77C";
shapes = (
{
closed = 1;
nodes = (
(566,-268,o),
(628,-223,o),
(640,-128,cs),
(696,328,l),
(658,328,l),
(602,-126,ls),
(594,-187,o),
(553,-226,o),
(504,-226,cs),
(475,-226,o),
(450,-210,o),
(438,-179,c),
(399,-197,l),
(417,-240,o),
(456,-268,o),
(503,-268,cs)
);
},
{
ref = G;
}
);
width = 731;
},
{
layerId = m004;
shapes = (
{
closed = 1;
nodes = (
(560,-239,o),
(650,-177,o),
(668,-31,cs),
(713,335,l),
(564,335,l),
(520,-23,ls),
(516,-56,o),
(501,-91,o),
(469,-91,cs),
(462,-91,o),
(445,-85,o),
(438,-67,c),
(302,-127,l),
(327,-193,o),
(386,-239,o),
(463,-239,cs)
);
},
{
ref = G;
}
);
width = 733;
}
);
metricLeft = O;
metricRight = G;
userData = {
position = 593;
width = 57;
};
},
{
glyphname = H;
kernLeft = E;
layers = (
{
anchors = (
{
name = bottom;
pos = (373,0);
},
{
name = center;
pos = (434,500);
},
{
name = leftstem;
pos = (149,0);
},
{
name = top;
pos = (456,675);
},
{
name = topleft;
pos = (98,684);
}
);
hints = (
{
name = _corner.caps_vert;
options = 1;
origin = (0,9);
type = Corner;
}
);
layerId = "0CAF3BED-C4AC-4024-B3E1-4C69D1EF7EC0";
shapes = (
{
closed = 1;
nodes = (
(190,0,l),
(227,319,l,{
"Letterink-NibData" = {
AngleInDegrees = 90;
};
}),
(584,319,l,{
"Letterink-NibData" = {
AngleInDegrees = 180;
};
}),
(545,-1,l,{
"Letterink-NibData" = {
AngleInDegrees = 90;
};
}),
(628,-1,l),
(712,686,l,{
"Letterink-NibData" = {
AngleInDegrees = 270;
};
}),
(630,686,l,{
"Letterink-NibData" = {
AngleInDegrees = 180;
};
}),
(594,395,l,{
"Letterink-NibData" = {
AngleInDegrees = 270;
};
}),
(236,395,l),
(257,574,l,{
"Letterink-NibData" = {
AngleInDegrees = 269.30131;
};
}),
(174,573,l,{
"Letterink-NibData" = {
AngleInDegrees = 180;
};
}),
(108,0,l,{
"Letterink-NibData" = {
AngleInDegrees = 90;
};
})
);
}
);
width = 738;
},
{
anchors = (
{
name = bottom;
pos = (369,0);
},
{
name = center;
pos = (429,489);
},
{
name = leftstem;
pos = (137,0);
},
{
name = top;
pos = (453,685);
},
{
name = topleft;
pos = (126,684);
}
);
hints = (
{
name = _corner.caps_vert;
options = 1;
origin = (0,9);
type = Corner;
}
);
layerId = "49C16FD3-6177-408B-A733-AEB3898BB77C";
shapes = (
{
closed = 1;
nodes = (
(156,0,l),
(199,340,l,{
"Letterink-NibData" = {
AngleInDegrees = 90;
};
}),
(614,340,l,{
"Letterink-NibData" = {
AngleInDegrees = 180;
};
}),
(572,1,l,{
"Letterink-NibData" = {
AngleInDegrees = 90;
};
}),
(611,1,l),
(695,685,l,{
"Letterink-NibData" = {
AngleInDegrees = 270;
};
}),
(657,685,l,{
"Letterink-NibData" = {
AngleInDegrees = 180;
};
}),
(619,376,l,{
"Letterink-NibData" = {
AngleInDegrees = 270;
};
}),
(203,376,l),
(228,581,l,{
"Letterink-NibData" = {
AngleInDegrees = 270;
};
}),
(190,581,l,{
"Letterink-NibData" = {
AngleInDegrees = 180;
};
}),
(118,0,l,{
"Letterink-NibData" = {
AngleInDegrees = 90;
};
})
);
}
);
width = 726;
},
{
anchors = (
{
name = bottom;
pos = (399,0);
},
{
name = center;
pos = (453,500);
},
{
name = leftstem;
pos = (195,0);
},
{
name = top;
pos = (469,684);
},
{
name = topleft;
pos = (160,684);
}
);
hints = (
{
name = _corner.caps_vert;
options = 1;
origin = (0,9);
type = Corner;
}
);
layerId = m004;
shapes = (
{
closed = 1;
nodes = (
(279,0,l),
(312,270,l,{
"Letterink-NibData" = {
AngleInDegrees = "90";
};
}),
(547,270,l,{
"Letterink-NibData" = {
AngleInDegrees = "180";
};
}),
(514,0,l,{
"Letterink-NibData" = {
AngleInDegrees = "90";
};
}),
(679,0,l),
(763,684,l,{
"Letterink-NibData" = {
AngleInDegrees = "270";
};
}),
(598,684,l,{
"Letterink-NibData" = {
AngleInDegrees = "180";
};
}),
(566,422,l,{
"Letterink-NibData" = {
AngleInDegrees = "270";
};
}),
(330,422,l),
(340,500,l,{
"Letterink-NibData" = {
AngleInDegrees = "270";
};
}),
(174,500,l,{
"Letterink-NibData" = {
AngleInDegrees = "180";
};
}),
(114,0,l,{
"Letterink-NibData" = {
AngleInDegrees = "90";
};
})
);
}
);
width = 776;
}
);
unicode = 72;
userData = {
position = 554;
width = 61;
};
},
{
glyphname = H.ss01;
layers = (
{
anchors = (
{
name = bottom;
pos = (326,0);
},
{
name = center;
pos = (387,512);
},
{
name = top;
pos = (410,684);
},
{
name = topleft;
pos = (93,684);
}
);
hints = (
{
name = _corner.left;
options = 2;
origin = (0,10);
type = Corner;
}
);
layerId = "0CAF3BED-C4AC-4024-B3E1-4C69D1EF7EC0";
shapes = (
{
closed = 1;
nodes = (
(136,-1,l),
(175,318,l,{
"Letterink-NibData" = {
AngleInDegrees = 90;
};
}),
(552,318,l,{
"Letterink-NibData" = {
AngleInDegrees = 180;
};
}),
(513,-1,l,{
"Letterink-NibData" = {
AngleInDegrees = 90;
};
}),
(595,-1,l),
(679,684,l,{
"Letterink-NibData" = {
AngleInDegrees = 270;
};
}),
(597,684,l,{
"Letterink-NibData" = {
AngleInDegrees = 180;
};
}),
(561,394,l,{
"Letterink-NibData" = {
AngleInDegrees = 270;
};
}),
(184,394,l),
(204,543,l,{
"Letterink-NibData" = {
AngleInDegrees = 270;
};
}),
(121,543,l,{
"Letterink-NibData" = {
AngleInDegrees = 180;
};
}),
(53,-1,l,{
"Letterink-NibData" = {
AngleInDegrees = 90;
};
})
);
}
);
width = 705;
},
{
anchors = (
{
name = bottom;
pos = (306,0);
},
{
name = center;
pos = (369,498);
},
{
name = top;
pos = (391,684);
},
{
name = topleft;
pos = (81,684);
}
);
hints = (
{
name = _corner.left;
options = 2;
origin = (0,10);
type = Corner;
}
);
layerId = "49C16FD3-6177-408B-A733-AEB3898BB77C";
shapes = (
{
closed = 1;
nodes = (
(94,0,l),
(138,340,l,{
"Letterink-NibData" = {
AngleInDegrees = 90;
};
}),
(563,340,l,{
"Letterink-NibData" = {
AngleInDegrees = 180;
};
}),
(522,0,l,{
"Letterink-NibData" = {
AngleInDegrees = 90;
};
}),
(560,0,l),
(644,684,l,{
"Letterink-NibData" = {
AngleInDegrees = 270;
};
}),
(606,684,l,{
"Letterink-NibData" = {
AngleInDegrees = 180;
};
}),
(568,376,l,{
"Letterink-NibData" = {
AngleInDegrees = 270;
};
}),
(143,376,l),
(166,553,l,{
"Letterink-NibData" = {
AngleInDegrees = 270;
};
}),
(128,553,l,{
"Letterink-NibData" = {
AngleInDegrees = 180;
};
}),
(56,0,l,{
"Letterink-NibData" = {
AngleInDegrees = 90;
};
})
);
}
);
width = 675;
},
{
anchors = (
{
name = bottom;
pos = (330,0);
},
{
name = center;
pos = (393,508);
},
{
name = top;
pos = (414,684);
},
{
name = topleft;
pos = (80,684);
}
);
hints = (
{
name = _corner.left;
origin = (0,10);
type = Corner;
}
);
layerId = m004;
shapes = (
{
closed = 1;
nodes = (
(205,0,l),
(238,270,l,{
"Letterink-NibData" = {
AngleInDegrees = "90";
};
}),
(488,270,l,{
"Letterink-NibData" = {
AngleInDegrees = "180";
};
}),
(455,0,l,{
"Letterink-NibData" = {
AngleInDegrees = "90";
};
}),
(620,0,l),
(704,684,l,{
"Letterink-NibData" = {
AngleInDegrees = "270";
};
}),
(539,684,l,{
"Letterink-NibData" = {
AngleInDegrees = "180";
};
}),
(507,422,l,{
"Letterink-NibData" = {
AngleInDegrees = "270";
};
}),
(257,422,l),
(270,525,l,{
"Letterink-NibData" = {
AngleInDegrees = "270";
};
}),
(104,525,l,{
"Letterink-NibData" = {
AngleInDegrees = "180";
};
}),
(39,0,l,{
"Letterink-NibData" = {
AngleInDegrees = "90";
};
})
);
}
);
width = 717;
}
);
metricRight = H;
userData = {
position = 525;
width = 61;
};
},
{
glyphname = H.swsh;
kernLeft = Swash;
layers = (
{
anchors = (
{
name = bottom;
pos = (409,0);
},
{
name = center;
pos = (468,478);
},
{
name = top;
pos = (492,675);
},
{
name = topleft;
pos = (131,684);
}
);
hints = (
{
name = _corner.caps_swash_vert;
options = 1;
origin = (0,9);
type = Corner;
}
);
layerId = "0CAF3BED-C4AC-4024-B3E1-4C69D1EF7EC0";
shapes = (
{
closed = 1;
nodes = (
(233,-1,l),
(272,317,l,{
"Letterink-NibData" = {
AngleInDegrees = 90;
};
}),
(617,317,l,{
"Letterink-NibData" = {
AngleInDegrees = 180;
};
}),
(578,-1,l,{
"Letterink-NibData" = {
AngleInDegrees = 90;
};
}),
(660,-1,l),
(744,686,l,{
"Letterink-NibData" = {
AngleInDegrees = 270;
};
}),
(662,686,l,{
"Letterink-NibData" = {
AngleInDegrees = 180;
};
}),
(626,395,l,{
"Letterink-NibData" = {
AngleInDegrees = 270;
};
}),
(281,395,l),
(299,536,l,{
"Letterink-NibData" = {
AngleInDegrees = 270;
};
}),
(216,537,l,{
"Letterink-NibData" = {
AngleInDegrees = 180;
};
}),
(150,-1,l,{
"Letterink-NibData" = {
AngleInDegrees = 90;
};
})
);
}
);
width = 770;
},
{
anchors = (
{
name = bottom;
pos = (405,0);
},
{
name = center;
pos = (460,450);
},
{
name = top;
pos = (489,684);
},
{
name = topleft;
pos = (156,684);
}
);
hints = (
{
name = _corner.caps_swash_vert;
options = 1;
origin = (0,9);
type = Corner;
}
);
layerId = "49C16FD3-6177-408B-A733-AEB3898BB77C";
shapes = (
{
closed = 1;
nodes = (
(200,1,l),
(242,340,l,{
"Letterink-NibData" = {
AngleInDegrees = 90;
};
}),
(653,340,l,{
"Letterink-NibData" = {
AngleInDegrees = 180;
};
}),
(611,1,l,{
"Letterink-NibData" = {
AngleInDegrees = 90;
};
}),
(649,1,l),
(733,685,l,{
"Letterink-NibData" = {
AngleInDegrees = 270;
};
}),
(695,685,l,{
"Letterink-NibData" = {
AngleInDegrees = 180;
};
}),
(657,376,l,{
"Letterink-NibData" = {
AngleInDegrees = 270;
};
}),
(246,376,l),
(268,558,l,{
"Letterink-NibData" = {
AngleInDegrees = 270;
};
}),
(230,558,l,{
"Letterink-NibData" = {
AngleInDegrees = 180;
};
}),
(162,1,l,{
"Letterink-NibData" = {
AngleInDegrees = 90;
};
})
);
}
);
width = 764;
},
{
anchors = (
{
name = bottom;
pos = (464,0);
},
{
name = center;
pos = (527,512);
},
{
name = top;
pos = (548,684);
},
{
name = topleft;
pos = (223,684);
}
);
hints = (
{
name = _corner.caps_swash_vert;
options = 1;
origin = (0,9);
type = Corner;
}
);
layerId = m004;
shapes = (
{
closed = 1;
nodes = (
(348,0,l),
(382,270,l,{
"Letterink-NibData" = {
AngleInDegrees = "90";
};
}),
(619,270,l,{
"Letterink-NibData" = {
AngleInDegrees = "180";
};
}),
(587,0,l,{
"Letterink-NibData" = {
AngleInDegrees = "90";
};
}),
(752,0,l),
(835,684,l,{
"Letterink-NibData" = {
AngleInDegrees = "270";
};
}),
(670,684,l,{
"Letterink-NibData" = {
AngleInDegrees = "180";
};
}),
(638,422,l,{
"Letterink-NibData" = {
AngleInDegrees = "270";
};
}),
(401,422,l),
(407,472,l,{
"Letterink-NibData" = {
AngleInDegrees = "270";
};
}),
(241,471,l,{
"Letterink-NibData" = {
AngleInDegrees = "180";
};
}),
(182,0,l,{
"Letterink-NibData" = {
AngleInDegrees = "90";
};
})
);
}
);
width = 849;
}
);
metricRight = H;
userData = {
position = 554;
width = 61;
};
},
{
glyphname = I;
layers = (
{
anchors = (
{
name = bottom;
pos = (90,0);
},
{
name = center;
pos = (131,340);
},
{
name = ogonek;
pos = (131,-1);
},
{
name = top;
pos = (172,684);
},
{
name = topleft;
pos = (67,684);
}
);
layerId = "0CAF3BED-C4AC-4024-B3E1-4C69D1EF7EC0";
shapes = (
{
closed = 1;
nodes = (
(131,-1,l),
(215,684,l,{
"Letterink-NibData" = {
AngleInDegrees = 270;
};
}),
(132,684,l,{
"Letterink-NibData" = {
AngleInDegrees = 180;
};
}),
(48,-1,l,{
"Letterink-NibData" = {
AngleInDegrees = 90;
};
})
);
}
);
width = 241;
},
{
anchors = (
{
name = bottom;
pos = (70,0);
},
{
name = center;
pos = (112,343);
},
{
name = ogonek;
pos = (91,1);
},
{
name = top;
pos = (156,685);
},
{
name = topleft;
pos = (68,684);
}
);
layerId = "49C16FD3-6177-408B-A733-AEB3898BB77C";
shapes = (
{
closed = 1;
nodes = (
(91,1,l),
(175,684,l,{
"Letterink-NibData" = {
AngleInDegrees = 270;
};
}),
(137,684,l,{
"Letterink-NibData" = {
AngleInDegrees = 180;
};
}),
(53,1,l,{
"Letterink-NibData" = {
AngleInDegrees = 90;
};
})
);
}
);
width = 206;
},
{
anchors = (
{
name = bottom;
pos = (119,-1);
},
{
name = center;
pos = (161,339);
},
{
name = ogonek;
pos = (201,0);
},
{
name = top;
pos = (202,684);
},
{
name = topleft;
pos = (58,684);
}
);
layerId = m004;
shapes = (
{
closed = 1;
nodes = (
(201,0,l),
(285,684,l,{
"Letterink-NibData" = {
AngleInDegrees = 270;
};
}),
(119,684,l,{
"Letterink-NibData" = {
AngleInDegrees = 180;
};
}),
(35,0,l,{
"Letterink-NibData" = {
AngleInDegrees = 90;
};
})
);
}
);
width = 298;
}
);
metricLeft = "=|H";
metricRight = H;
unicode = 73;
userData = {
position = 54;
width = 61;
};
},
{
glyphname = I.swsh;
kernLeft = Swash;
layers = (
{
anchors = (
{
name = bottom;
pos = (231,0);
},
{
name = center;
pos = (272,340);
},
{
name = ogonek;
pos = (322,-1);
},
{
name = top;
pos = (315,684);
},
{
name = topleft;
pos = (174,684);
}
);
hints = (
{
name = _corner.caps_swash;
options = 1;
origin = (0,2);
type = Corner;
}
);
layerId = "0CAF3BED-C4AC-4024-B3E1-4C69D1EF7EC0";
shapes = (
{
closed = 1;
nodes = (
(295,608,l),
(295,684,l),
(230,684,l),
(230,608,l)
);
},
{
closed = 1;
nodes = (
(272,0,l),
(356,684,l,{
"Letterink-NibData" = {
AngleInDegrees = 270;
};
}),
(273,684,l,{
"Letterink-NibData" = {
AngleInDegrees = 180;
};
}),
(189,0,l,{
"Letterink-NibData" = {
AngleInDegrees = 90;
};
})
);
}
);
width = 382;
},
{
anchors = (
{
name = bottom;
pos = (253,0);
},
{
name = center;
pos = (252,342);
},
{
name = ogonek;
pos = (275,1);
},
{
name = top;
pos = (252,684);
},
{
name = topleft;
pos = (164,684);
}
);
hints = (
{
name = _corner.caps_swash;
origin = (0,2);
type = Corner;
}
);
layerId = "49C16FD3-6177-408B-A733-AEB3898BB77C";
shapes = (
{
closed = 1;
nodes = (
(269,648,l),
(269,684,l),
(215,684,l),
(215,648,l)
);
},
{
closed = 1;
nodes = (
(220,1,l),
(304,684,l,{
"Letterink-NibData" = {
AngleInDegrees = 270;
};
}),
(266,684,l,{
"Letterink-NibData" = {
AngleInDegrees = 180;
};
}),
(182,1,l,{
"Letterink-NibData" = {
AngleInDegrees = 90;
};
})
);
}
);
width = 335;
},
{
anchors = (
{
name = bottom;
pos = (295,0);
},
{
name = center;
pos = (341,341);
},
{
name = ogonek;
pos = (428,-1);
},
{
name = top;
pos = (382,684);
},
{
name = topleft;
pos = (197,684);
}
);
hints = (
{
name = _corner.caps_swash;
options = 1;
origin = (0,2);
type = Corner;
}
);
layerId = m004;
shapes = (
{
closed = 1;
nodes = (
(401,536,l),
(401,684,l),
(263,684,l,{
"Letterink-NibData" = {
AngleInDegrees = 180;
};
}),
(263,536,l)
);
},
{
closed = 1;
nodes = (
(378,-1,l),
(462,684,l,{
"Letterink-NibData" = {
AngleInDegrees = 270;
};
}),
(296,684,l,{
"Letterink-NibData" = {
AngleInDegrees = 180;
};
}),
(212,-1,l,{
"Letterink-NibData" = {
AngleInDegrees = 90;
};
})
);
}
);
width = 475;
}
);
metricLeft = E.swsh;
metricRight = H;
userData = {
position = 54;
width = 61;
};
},
{
glyphname = IJ;
kernRight = J;
layers = (
{
anchors = (
{
name = bottom;
pos = (352,0);
},
{
name = top;
pos = (352,684);
}
);
layerId = "0CAF3BED-C4AC-4024-B3E1-4C69D1EF7EC0";
shapes = (
{
closed = 1;
nodes = (
(450,-13,o),
(554,72,o),
(574,234,cs),
(629,684,l,{
"Letterink-NibData" = {
AngleInDegrees = "270";
};
}),
(554,684,l,{
"Letterink-NibData" = {
AngleInDegrees = "211.6075";
};
}),
(543,654,l),
(493,245,ls,{
"Letterink-NibData" = {
AngleInDegrees = "180";
};
}),
(478,124,o),
(406,63,o),
(305,63,cs,{
"Letterink-NibData" = {
AngleInDegrees = "270";
};
}),
(204,63,o),
(163,137,o),
(169,194,c),
(89,187,l),
(78,81,o),
(159,-13,o),
(300,-13,cs,{
"Letterink-NibData" = {
AngleInDegrees = "90";
};
})
);
},
{
pos = (35,285);
ref = I;
scale = (1,0.5845);
slant = (-4.1049,0);
},
{
closed = 1;
nodes = (
(538,677,o),
(525,671,o),
(502,671,cs),
(474,671,o),
(454,702,o),
(400,702,cs),
(364,702,o),
(324,693,o),
(280,664,c),
(320,600,l),
(349,620,o),
(369,626,o),
(398,626,cs),
(426,626,o),
(446,595,o),
(500,595,cs),
(558,595,o),
(616,633,o),
(629,682,c),
(548,685,l)
);
}
);
width = 647;
},
{
anchors = (
{
name = bottom;
pos = (354,0);
},
{
name = top;
pos = (370,684);
}
);
layerId = "49C16FD3-6177-408B-A733-AEB3898BB77C";
shapes = (
{
closed = 1;
nodes = (
(425,-6,o),
(520,81,o),
(537,218,cs),
(595,687,l,{
"Letterink-NibData" = {
AngleInDegrees = "268.5679";
};
}),
(559,687,l,{
"Letterink-NibData" = {
AngleInDegrees = "184.66686";
};
}),
(553,656,l),
(500,223,ls,{
"Letterink-NibData" = {
AngleInDegrees = "180";
};
}),
(485,104,o),
(403,30,o),
(291,30,cs,{
"Letterink-NibData" = {
AngleInDegrees = "270";
};
}),
(191,30,o),
(129,84,o),
(131,176,c),
(93,173,l),
(89,65,o),
(163,-6,o),
(291,-6,cs,{
"Letterink-NibData" = {
AngleInDegrees = "90";
};
})
);
},
{
alignment = -1;
pos = (33,264);
ref = I;
scale = (1,0.6157);
slant = (-4.3232,0);
},
{
closed = 1;
nodes = (
(544,675,o),
(522,666,o),
(494,666,cs),
(453,666,o),
(433,696,o),
(376,696,cs),
(342,696,o),
(300,683,o),
(273,663,c),
(293,633,l),
(313,648,o),
(346,660,o),
(375,660,cs),
(414,660,o),
(435,630,o),
(493,630,cs),
(535,630,o),
(577,649,o),
(594,686,c),
(555,688,l)
);
}
);
width = 617;
},
{
anchors = (
{
name = bottom;
pos = (381,0);
},
{
name = top;
pos = (356,684);
}
);
layerId = m004;
shapes = (
{
closed = 1;
nodes = (
(493,-27,o),
(614,73,o),
(634,240,cs),
(688,684,l,{
"Letterink-NibData" = {
AngleInDegrees = "270";
};
}),
(565,684,l,{
"Letterink-NibData" = {
AngleInDegrees = "211.6075";
};
}),
(516,632,l),
(470,251,ls,{
"Letterink-NibData" = {
AngleInDegrees = "180";
};
}),
(463,191,o),
(408,125,o),
(326,125,cs,{
"Letterink-NibData" = {
AngleInDegrees = "270";
};
}),
(263,125,o),
(211,161,o),
(214,221,c),
(62,216,l),
(52,81,o),
(148,-27,o),
(321,-27,cs,{
"Letterink-NibData" = {
AngleInDegrees = "90";
};
})
);
},
{
pos = (41,300);
ref = I;
scale = (1,0.5611);
slant = (-3.9411,0);
},
{
closed = 1;
nodes = (
(547,680,o),
(532,668,o),
(514,668,cs),
(496,668,o),
(463,703,o),
(407,703,cs),
(378,703,o),
(342,694,o),
(305,668,c),
(363,536,l),
(378,550,o),
(387,555,o),
(402,555,cs),
(426,555,o),
(455,520,o),
(508,520,cs),
(582,520,o),
(676,595,o),
(688,680,c),
(550,688,l)
);
}
);
width = 694;
}
);
metricLeft = I;
metricRight = J;
unicode = 306;
userData = {
position = 507;
width = 53;
};
},
{
glyphname = IJ.ss01;
kernRight = J;
layers = (
{
layerId = "0CAF3BED-C4AC-4024-B3E1-4C69D1EF7EC0";
shapes = (
{
closed = 1;
nodes = (
(411,-13,o),
(509,72,o),
(526,210,cs),
(584,684,l,{
"Letterink-NibData" = {
AngleInDegrees = "270";
};
}),
(503,684,l,{
"Letterink-NibData" = {
AngleInDegrees = "211.6075";
};
}),
(445,217,ls,{
"Letterink-NibData" = {
AngleInDegrees = "180";
};
}),
(434,124,o),
(367,63,o),
(275,63,cs,{
"Letterink-NibData" = {
AngleInDegrees = "270";
};
}),
(187,63,o),
(151,121,o),
(157,174,c),
(77,167,l),
(67,71,o),
(141,-13,o),
(270,-13,cs,{
"Letterink-NibData" = {
AngleInDegrees = "90";
};
})
);
},
{
pos = (36,241);
ref = I;
scale = (1,0.6481);
slant = (-4.5498,0);
}
);
width = 602;
},
{
layerId = "49C16FD3-6177-408B-A733-AEB3898BB77C";
shapes = (
{
closed = 1;
nodes = (
(424,-6,o),
(517,79,o),
(533,213,cs),
(591,685,l,{
"Letterink-NibData" = {
AngleInDegrees = 268.5679;
};
}),
(553,684,l,{
"Letterink-NibData" = {
AngleInDegrees = 184.66686;
};
}),
(496,218,ls,{
"Letterink-NibData" = {
AngleInDegrees = 180;
};
}),
(482,102,o),
(402,30,o),
(293,30,cs,{
"Letterink-NibData" = {
AngleInDegrees = 270;
};
}),
(204,30,o),
(141,84,o),
(143,176,c),
(105,173,l),
(100,65,o),
(171,-6,o),
(293,-6,cs,{
"Letterink-NibData" = {
AngleInDegrees = 90;
};
})
);
},
{
alignment = -1;
pos = (37,234);
ref = I;
scale = (1,0.6583);
slant = (-4.6211,0);
}
);
width = 614;
},
{
layerId = m004;
shapes = (
{
closed = 1;
nodes = (
(462,-22,o),
(566,74,o),
(586,235,cs),
(641,684,l,{
"Letterink-NibData" = {
AngleInDegrees = "270";
};
}),
(476,684,l,{
"Letterink-NibData" = {
AngleInDegrees = "211.6075";
};
}),
(422,246,ls,{
"Letterink-NibData" = {
AngleInDegrees = "180";
};
}),
(416,191,o),
(375,130,o),
(304,130,cs,{
"Letterink-NibData" = {
AngleInDegrees = "270";
};
}),
(240,130,o),
(217,166,o),
(224,226,c),
(69,221,l),
(45,86,o),
(126,-22,o),
(299,-22,cs,{
"Letterink-NibData" = {
AngleInDegrees = "90";
};
})
);
},
{
pos = (34,275);
ref = I;
scale = (1,0.5969);
slant = (-4.1917,0);
}
);
width = 647;
}
);
metricLeft = I;
metricRight = J;
userData = {
position = 507;
width = 53;
};
},
{
glyphname = J;
kernLeft = J;
kernRight = J;
layers = (
{
anchors = (
{
name = bottom;
pos = (217,0);
},
{
name = top;
pos = (301,684);
}
);
layerId = "0CAF3BED-C4AC-4024-B3E1-4C69D1EF7EC0";
shapes = (
{
closed = 1;
nodes = (
(326,-7,o),
(417,72,o),
(433,201,cs),
(493,689,l,{
"Letterink-NibData" = {
AngleInDegrees = 270;
};
}),
(421,691,l,{
"Letterink-NibData" = {
AngleInDegrees = 211.6075;
};
}),
(411,678,o),
(379,663,o),
(357,663,cs,{
"Letterink-NibData" = {
AngleInDegrees = 270;
};
}),
(317,663,o),
(288,698,o),
(236,698,cs,{
"Letterink-NibData" = {
AngleInDegrees = 270;
};
}),
(202,698,o),
(169,693,o),
(109,665,c,{
"Letterink-NibData" = {
AngleInDegrees = 153.09391;
};
}),
(139,596,l,{
"Letterink-NibData" = {
AngleInDegrees = 67.52057;
};
}),
(168,608,o),
(199,620,o),
(226,620,cs,{
"Letterink-NibData" = {
AngleInDegrees = 90;
};
}),
(272,620,o),
(305,587,o),
(350,587,cs,{
"Letterink-NibData" = {
AngleInDegrees = 90;
};
}),
(370,587,o),
(385,588,o),
(399,593,c,{
"Letterink-NibData" = {
AngleInDegrees = 180;
};
}),
(350,208,ls,{
"Letterink-NibData" = {
AngleInDegrees = 180;
};
}),
(339,123,o),
(282,67,o),
(202,67,cs,{
"Letterink-NibData" = {
AngleInDegrees = 270;
};
}),
(122,67,o),
(81,118,o),
(94,192,c,{
"Letterink-NibData" = {
AngleInDegrees = 274.39871;
};
}),
(16,196,l,{
"Letterink-NibData" = {
AngleInDegrees = 181.88819;
};
}),
(-3,73,o),
(67,-7,o),
(197,-7,cs,{
"Letterink-NibData" = {
AngleInDegrees = 90;
};
})
);
}
);
width = 510;
},
{
anchors = (
{
name = bottom;
pos = (258,0);
},
{
name = top;
pos = (274,684);
}
);
layerId = "49C16FD3-6177-408B-A733-AEB3898BB77C";
shapes = (
{
closed = 1;
nodes = (
(306,-6,o),
(393,71,o),
(408,193,cs),
(468,688,l,{
"Letterink-NibData" = {
AngleInDegrees = "270";
};
}),
(423,689,l,{
"Letterink-NibData" = {
AngleInDegrees = "209.35776";
};
}),
(411,672,o),
(382,660,o),
(359,660,cs,{
"Letterink-NibData" = {
AngleInDegrees = "270";
};
}),
(319,660,o),
(264,696,o),
(220,696,cs,{
"Letterink-NibData" = {
AngleInDegrees = "270";
};
}),
(196,696,o),
(171,696,o),
(122,672,c,{
"Letterink-NibData" = {
AngleInDegrees = "153.43495";
};
}),
(136,640,l,{
"Letterink-NibData" = {
AngleInDegrees = 70.82099;
};
}),
(155,650,o),
(184,661,o),
(215,661,cs,{
"Letterink-NibData" = {
AngleInDegrees = "90";
};
}),
(278,661,o),
(292,625,o),
(356,625,cs,{
"Letterink-NibData" = {
AngleInDegrees = "90";
};
}),
(383,625,o),
(407,631,o),
(426,649,c,{
"Letterink-NibData" = {
AngleInDegrees = "180";
};
}),
(370,198,ls,{
"Letterink-NibData" = {
AngleInDegrees = "180";
};
}),
(357,94,o),
(287,29,o),
(189,29,cs,{
"Letterink-NibData" = {
AngleInDegrees = "270";
};
}),
(88,29,o),
(44,87,o),
(51,167,c,{
"Letterink-NibData" = {
AngleInDegrees = "275.5722";
};
}),
(15,169,l,{
"Letterink-NibData" = {
AngleInDegrees = "176.71075";
};
}),
(9,63,o),
(71,-6,o),
(185,-6,cs,{
"Letterink-NibData" = {
AngleInDegrees = "90";
};
})
);
}
);
width = 491;
},
{
anchors = (
{
name = bottom;
pos = (280,0);
},
{
name = top;
pos = (339,684);
}
);
layerId = m004;
shapes = (
{
closed = 1;
nodes = (
(387,-22,o),
(490,66,o),
(508,213,cs),
(568,699,l,{
"Letterink-NibData" = {
AngleInDegrees = 270;
};
}),
(457,700,l,{
"Letterink-NibData" = {
AngleInDegrees = 211.6075;
};
}),
(439,685,o),
(412,674,o),
(386,674,cs,{
"Letterink-NibData" = {
AngleInDegrees = 270;
};
}),
(350,674,o),
(314,696,o),
(243,696,cs,{
"Letterink-NibData" = {
AngleInDegrees = 270;
};
}),
(191,696,o),
(158,688,o),
(107,655,c,{
"Letterink-NibData" = {
AngleInDegrees = 153.09391;
};
}),
(165,519,l,{
"Letterink-NibData" = {
AngleInDegrees = 67.52057;
};
}),
(191,532,o),
(222,541,o),
(252,541,cs,{
"Letterink-NibData" = {
AngleInDegrees = 90;
};
}),
(290,541,o),
(312,524,o),
(345,524,cs,{
"Letterink-NibData" = {
AngleInDegrees = 90;
};
}),
(363,524,o),
(378,526,o),
(382,530,c,{
"Letterink-NibData" = {
AngleInDegrees = 180;
};
}),
(342,224,ls,{
"Letterink-NibData" = {
AngleInDegrees = 180;
};
}),
(335,172,o),
(299,122,o),
(241,122,cs,{
"Letterink-NibData" = {
AngleInDegrees = 270;
};
}),
(184,122,o),
(157,159,o),
(166,233,c,{
"Letterink-NibData" = {
AngleInDegrees = 274.39871;
};
}),
(15,241,l,{
"Letterink-NibData" = {
AngleInDegrees = 181.88819;
};
}),
(-13,98,o),
(68,-22,o),
(236,-22,cs,{
"Letterink-NibData" = {
AngleInDegrees = 90;
};
})
);
}
);
width = 572;
}
);
metricRight = "=H*.9";
unicode = 74;
userData = {
position = 333;
width = 53;
};
},
{
glyphname = J.ss01;
kernLeft = Jtext;
kernRight = J;
layers = (
{
anchors = (
{
name = bottom;
pos = (192,-9);
},
{
name = top;
pos = (456,684);
}
);
layerId = "0CAF3BED-C4AC-4024-B3E1-4C69D1EF7EC0";
shapes = (
{
closed = 1;
nodes = (
(332,-11,o),
(424,71,o),
(443,224,cs),
(499,684,l,{
"Letterink-NibData" = {
AngleInDegrees = 270;
};
}),
(417,684,l,{
"Letterink-NibData" = {
AngleInDegrees = 180;
};
}),
(361,231,ls,{
"Letterink-NibData" = {
AngleInDegrees = 180;
};
}),
(347,119,o),
(284,64,o),
(214,64,cs,{
"Letterink-NibData" = {
AngleInDegrees = 270;
};
}),
(117,64,o),
(73,105,o),
(88,210,c,{
"Letterink-NibData" = {
AngleInDegrees = 274.39871;
};
}),
(13,214,l,{
"Letterink-NibData" = {
AngleInDegrees = 181.88819;
};
}),
(-7,78,o),
(55,-11,o),
(202,-11,cs,{
"Letterink-NibData" = {
AngleInDegrees = 90;
};
})
);
}
);
width = 517;
},
{
anchors = (
{
name = bottom;
pos = (175,-6);
},
{
name = top;
pos = (453,684);
}
);
layerId = "49C16FD3-6177-408B-A733-AEB3898BB77C";
shapes = (
{
closed = 1;
nodes = (
(308,-6,o),
(396,77,o),
(413,209,cs),
(471,685,l,{
"Letterink-NibData" = {
AngleInDegrees = 268.5679;
};
}),
(431,684,l,{
"Letterink-NibData" = {
AngleInDegrees = 184.66686;
};
}),
(377,214,ls,{
"Letterink-NibData" = {
AngleInDegrees = 180;
};
}),
(363,99,o),
(286,29,o),
(184,29,cs,{
"Letterink-NibData" = {
AngleInDegrees = 270;
};
}),
(92,29,o),
(37,79,o),
(47,189,c,{
"Letterink-NibData" = {
AngleInDegrees = 275.19443;
};
}),
(12,191,l,{
"Letterink-NibData" = {
AngleInDegrees = 178.68309;
};
}),
(-2,73,o),
(64,-6,o),
(184,-6,cs,{
"Letterink-NibData" = {
AngleInDegrees = 90;
};
})
);
}
);
width = 494;
},
{
anchors = (
{
name = bottom;
pos = (215,-5);
},
{
name = top;
pos = (446,684);
}
);
layerId = m004;
shapes = (
{
closed = 1;
nodes = (
(360,-22,o),
(458,70,o),
(477,223,cs),
(533,686,l,{
"Letterink-NibData" = {
AngleInDegrees = "270";
};
}),
(367,686,l,{
"Letterink-NibData" = {
AngleInDegrees = "180";
};
}),
(312,234,ls,{
"Letterink-NibData" = {
AngleInDegrees = "180";
};
}),
(305,169,o),
(270,123,o),
(219,123,cs,{
"Letterink-NibData" = {
AngleInDegrees = "270";
};
}),
(160,123,o),
(149,173,o),
(158,220,c,{
"Letterink-NibData" = {
AngleInDegrees = "274.39871";
};
}),
(9,228,l,{
"Letterink-NibData" = {
AngleInDegrees = "181.88819";
};
}),
(-20,93,o),
(56,-22,o),
(212,-22,cs,{
"Letterink-NibData" = {
AngleInDegrees = "90";
};
})
);
}
);
width = 539;
}
);
metricLeft = "=J*.75";
metricRight = J;
userData = {
position = 333;
width = 53;
};
},
{
glyphname = J.swsh;
kernLeft = J;
kernRight = J;
layers = (
{
anchors = (
{
name = bottom;
pos = (236,0);
},
{
name = top;
pos = (320,684);
}
);
layerId = "0CAF3BED-C4AC-4024-B3E1-4C69D1EF7EC0";
shapes = (
{
closed = 1;
nodes = (
(50,454,o),
(189,413,o),
(252,492,c),
(195,542,l),
(187,533,o),
(178,528,o),
(169,528,cs),
(153,528,o),
(141,546,o),
(144,568,cs),
(148,598,o),
(176,627,o),
(221,627,cs),
(277,627,o),
(356,545,o),
(488,629,c),
(443,685,l),
(347,630,o),
(339,703,o),
(223,703,cs),
(138,703,o),
(75,637,o),
(66,571,cs)
);
},
{
closed = 1;
nodes = (
(15,192,l),
(3,68,o),
(75,-12,o),
(205,-12,cs,{
"Letterink-NibData" = {
AngleInDegrees = 90;
};
}),
(339,-12,o),
(433,71,o),
(450,206,cs),
(509,685,l,{
"Letterink-NibData" = {
AngleInDegrees = 270;
};
}),
(444,685,l,{
"Letterink-NibData" = {
AngleInDegrees = 211.6075;
};
}),
(419,626,l),
(369,213,ls,{
"Letterink-NibData" = {
AngleInDegrees = 180;
};
}),
(358,122,o),
(301,62,o),
(211,62,cs,{
"Letterink-NibData" = {
AngleInDegrees = 270;
};
}),
(129,62,o),
(80,113,o),
(93,196,c)
);
}
);
width = 527;
},
{
anchors = (
{
name = bottom;
pos = (227,0);
},
{
name = top;
pos = (310,684);
}
);
layerId = "49C16FD3-6177-408B-A733-AEB3898BB77C";
shapes = (
{
closed = 1;
nodes = (
(69,489,o),
(184,447,o),
(241,519,c),
(218,541,l),
(204,525,o),
(188,516,o),
(174,516,cs),
(134,516,o),
(112,548,o),
(115,590,cs),
(119,628,o),
(161,666,o),
(222,666,cs),
(295,666,o),
(351,579,o),
(471,658,c),
(456,686,l,{
"Letterink-NibData" = {
AngleInDegrees = 180;
};
}),
(358,626,o),
(320,702,o),
(222,702,cs),
(142,702,o),
(85,645,o),
(79,590,cs)
);
},
{
closed = 1;
nodes = (
(15,170,l),
(14,62,o),
(82,-6,o),
(194,-6,cs,{
"Letterink-NibData" = {
AngleInDegrees = 90;
};
}),
(322,-6,o),
(413,76,o),
(429,203,cs),
(488,686,l,{
"Letterink-NibData" = {
AngleInDegrees = 270;
};
}),
(456,686,l,{
"Letterink-NibData" = {
AngleInDegrees = 180;
};
}),
(446,662,l),
(391,208,ls,{
"Letterink-NibData" = {
AngleInDegrees = 180;
};
}),
(378,98,o),
(305,29,o),
(201,29,cs,{
"Letterink-NibData" = {
AngleInDegrees = 270;
};
}),
(107,29,o),
(46,88,o),
(51,171,c)
);
}
);
width = 511;
},
{
anchors = (
{
name = bottom;
pos = (279,0);
},
{
name = top;
pos = (288,692);
}
);
layerId = m004;
shapes = (
{
closed = 1;
nodes = (
(50,382,o),
(226,318,o),
(336,434,c),
(230,522,l),
(227,518,o),
(220,513,o),
(213,513,cs),
(205,513,o),
(199,518,o),
(200,529,cs),
(202,548,o),
(221,560,o),
(249,560,cs),
(307,560,o),
(370,490,o),
(500,581,c),
(423,677,l,{
"Letterink-NibData" = {
AngleInDegrees = 211.6075;
};
}),
(389,654,o),
(323,700,o),
(237,703,cs),
(120,707,o),
(50,618,o),
(50,524,cs)
);
},
{
closed = 1;
nodes = (
(23,223,l),
(-5,99,o),
(67,-23,o),
(237,-23,cs,{
"Letterink-NibData" = {
AngleInDegrees = 90;
};
}),
(385,-23,o),
(487,63,o),
(504,204,cs),
(562,677,l,{
"Letterink-NibData" = {
AngleInDegrees = 270;
};
}),
(423,677,l,{
"Letterink-NibData" = {
AngleInDegrees = 211.6075;
};
}),
(376,536,l),
(340,215,ls,{
"Letterink-NibData" = {
AngleInDegrees = 180;
};
}),
(334,162,o),
(301,121,o),
(245,121,cs,{
"Letterink-NibData" = {
AngleInDegrees = 270;
};
}),
(190,121,o),
(163,162,o),
(174,228,c)
);
}
);
width = 569;
}
);
metricLeft = J;
metricRight = J;
userData = {
position = 333;
width = 53;
};
},
{
glyphname = K;
kernLeft = E;
kernRight = K;
layers = (
{
anchors = (
{
name = bottom;
pos = (330,2);
},
{
name = top;
pos = (330,684);
}
);
hints = (
{
name = _corner.caps_vert;
origin = (1,1);
type = Corner;
}
);
layerId = "0CAF3BED-C4AC-4024-B3E1-4C69D1EF7EC0";
shapes = (
{
closed = 1;
nodes = (
(643,-20,o),
(665,1,o),
(679,19,c),
(626,65,l),
(621,58,o),
(613,54,o),
(602,54,cs),
(582,54,o),
(564,73,o),
(546,106,cs),
(493,208,o),
(498,370,o),
(278,381,c),
(275,319,l),
(426,296,o),
(413,183,o),
(475,66,cs),
(500,19,o),
(542,-20,o),
(598,-20,cs)
);
},
{
closed = 1;
nodes = (
(217,0,l),
(217,583,l,{
"Letterink-NibData" = {
AngleInDegrees = 270;
};
}),
(135,583,l,{
"Letterink-NibData" = {
AngleInDegrees = 180;
};
}),
(135,0,l,{
"Letterink-NibData" = {
AngleInDegrees = 90;
};
})
);
},
{
closed = 1;
nodes = (
(265,319,l),
(520,322,o),
(539,522,o),
(582,684,c),
(498,684,l),
(456,527,o),
(449,393,o),
(269,393,c),
(158,393,l),
(158,319,l)
);
}
);
width = 686;
},
{
anchors = (
{
name = bottom;
pos = (326,0);
},
{
name = top;
pos = (326,684);
}
);
hints = (
{
name = _corner.caps_vert;
origin = (1,1);
type = Corner;
}
);
layerId = "49C16FD3-6177-408B-A733-AEB3898BB77C";
shapes = (
{
closed = 1;
nodes = (
(629,-5,o),
(646,18,o),
(652,26,c),
(626,48,l),
(617,37,o),
(607,31,o),
(592,31,cs),
(565,31,o),
(550,53,o),
(525,97,cs),
(464,204,o),
(463,342,o),
(266,379,c),
(261,343,l),
(419,319,o),
(425,198,o),
(494,75,cs),
(509,48,o),
(538,-5,o),
(589,-5,cs)
);
},
{
closed = 1;
nodes = (
(183,2,l,{
"Letterink-NibData" = {
AngleInDegrees = 359.89895;
};
}),
(183,598,l,{
"Letterink-NibData" = {
AngleInDegrees = 270;
};
}),
(145,598,l,{
"Letterink-NibData" = {
AngleInDegrees = 180;
};
}),
(145,2,l,{
"Letterink-NibData" = {
AngleInDegrees = 90;
};
})
);
},
{
closed = 1;
nodes = (
(255,343,l),
(470,343,o),
(530,517,o),
(564,684,c),
(525,684,l),
(497,554,o),
(452,380,o),
(256,380,c),
(161,380,l),
(161,343,l)
);
}
);
width = 674;
},
{
anchors = (
{
name = bottom;
pos = (404,0);
},
{
name = top;
pos = (401,684);
}
);
hints = (
{
name = _corner.caps_vert;
origin = (1,1);
type = Corner;
}
);
layerId = m004;
shapes = (
{
closed = 1;
nodes = (
(679,-24,o),
(722,-2,o),
(755,42,c),
(660,126,l),
(657,122,o),
(653,119,o),
(644,119,cs),
(632,119,o),
(613,144,o),
(600,180,cs),
(580,235,o),
(549,371,o),
(371,384,c),
(343,287,l),
(420,273,o),
(431,175,o),
(462,93,cs),
(489,21,o),
(545,-24,o),
(625,-24,cs)
);
},
{
closed = 1;
nodes = (
(310,-4,l),
(308,528,l,{
"Letterink-NibData" = {
AngleInDegrees = 270;
};
}),
(143,528,l,{
"Letterink-NibData" = {
AngleInDegrees = 180;
};
}),
(143,-4,l,{
"Letterink-NibData" = {
AngleInDegrees = 90;
};
})
);
},
{
closed = 1;
nodes = (
(319,287,l),
(578,287,o),
(636,488,o),
(672,684,c),
(507,684,l),
(481,560,o),
(447,425,o),
(316,425,c),
(217,425,l),
(217,287,l)
);
}
);
width = 758;
}
);
metricLeft = H;
unicode = 75;
userData = {
position = 542;
width = 57;
};
},
{
glyphname = K.ss01;
kernRight = K;
layers = (
{
anchors = (
{
name = bottom;
pos = (306,0);
},
{
name = top;
pos = (306,684);
}
);
layerId = "0CAF3BED-C4AC-4024-B3E1-4C69D1EF7EC0";
shapes = (
{
closed = 1;
nodes = (
(161,0,l),
(161,684,l,{
"Letterink-NibData" = {
AngleInDegrees = 270;
};
}),
(79,684,l,{
"Letterink-NibData" = {
AngleInDegrees = 180;
};
}),
(79,0,l,{
"Letterink-NibData" = {
AngleInDegrees = 90;
};
})
);
},
{
closed = 1;
nodes = (
(226,320,ls),
(437,322,o),
(499,522,o),
(542,684,c),
(458,684,l),
(416,527,o),
(368,393,o),
(227,393,cs),
(118,393,l),
(118,319,l)
);
},
{
closed = 1;
nodes = (
(513,81,o),
(475,158,o),
(433,232,cs),
(384,318,o),
(323,378,o),
(226,383,c),
(226,320,l),
(281,314,o),
(318,268,o),
(361,192,cs),
(403,119,o),
(456,9,o),
(565,-13,c),
(581,67,l)
);
}
);
width = 597;
},
{
anchors = (
{
name = bottom;
pos = (290,0);
},
{
name = top;
pos = (289,684);
}
);
layerId = "49C16FD3-6177-408B-A733-AEB3898BB77C";
shapes = (
{
closed = 1;
nodes = (
(124,1,l,{
"Letterink-NibData" = {
AngleInDegrees = 359.91599;
};
}),
(124,684,l,{
"Letterink-NibData" = {
AngleInDegrees = 270;
};
}),
(86,684,l,{
"Letterink-NibData" = {
AngleInDegrees = 180;
};
}),
(86,1,l,{
"Letterink-NibData" = {
AngleInDegrees = 90;
};
})
);
},
{
closed = 1;
nodes = (
(201,343,l),
(408,343,o),
(476,517,o),
(510,684,c),
(471,684,l),
(443,554,o),
(398,380,o),
(202,380,c),
(107,380,l),
(107,343,l)
);
},
{
closed = 1;
nodes = (
(496.583,44.528,o),
(455.958,134.582,o),
(413.719,213.025,c),
(367.205,298.976,o),
(319,373,o),
(216,373,c),
(216,343,l),
(297,343,o),
(334.795,279.024,o),
(380.281,194.975,c),
(421.947,117.594,o),
(469.612,11.43,o),
(568.033,-9.581,c),
(575.967,27.581,l)
);
}
);
width = 599;
},
{
anchors = (
{
name = bottom;
pos = (334,0);
},
{
name = top;
pos = (334,684);
}
);
layerId = m004;
shapes = (
{
closed = 1;
nodes = (
(231,0,l),
(231,684,l,{
"Letterink-NibData" = {
AngleInDegrees = 270;
};
}),
(66,684,l,{
"Letterink-NibData" = {
AngleInDegrees = 180;
};
}),
(66,0,l,{
"Letterink-NibData" = {
AngleInDegrees = 90;
};
})
);
},
{
closed = 1;
nodes = (
(269,287,ls),
(528,287,o),
(586,488,o),
(622,684,c),
(457,684,l),
(429,560,o),
(397,425,o),
(266,425,cs),
(167,425,l),
(167,287,l)
);
},
{
closed = 1;
nodes = (
(596,136,o),
(566,162,o),
(502,275,cs),
(452,364,o),
(363,418,o),
(259,418,c),
(259,287,l),
(299,283,o),
(332,244,o),
(372,166,cs),
(427,57,o),
(512,-15,o),
(604,-32,c),
(636,130,l)
);
}
);
width = 657;
},
{
anchors = (
{
name = bottom;
pos = (351,0);
},
{
name = top;
pos = (334,684);
}
);
associatedMasterId = m004;
layerId = "08C25A10-20A5-46B3-A5E8-5B31FFDBA5A3";
name = "Oct 30, 24 at 08:42";
shapes = (
{
closed = 1;
nodes = (
(231,0,l),
(231,684,l,{
"Letterink-NibData" = {
AngleInDegrees = 270;
};
}),
(66,684,l,{
"Letterink-NibData" = {
AngleInDegrees = 180;
};
}),
(66,0,l,{
"Letterink-NibData" = {
AngleInDegrees = 90;
};
})
);
},
{
closed = 1;
nodes = (
(642,135,l),
(616,135,o),
(601,142,o),
(582,173,cs),
(526,264,o),
(465,376,o),
(425,416,c),
(309,312,l),
(322,298,o),
(387,182,o),
(447,85,cs),
(480,32,o),
(530,-23,o),
(642,-23,c)
);
},
{
closed = 1;
nodes = (
(289,287,l),
(548,287,o),
(606,488,o),
(642,684,c),
(477,684,l),
(444,560,o),
(417,425,o),
(286,425,c),
(187,425,l),
(187,287,l)
);
},
{
closed = 0;
nodes = (
(317,373,l),
(382,365,o),
(412,301,o),
(458,220,cs),
(500,146,o),
(551,63,o),
(640,45,c)
);
}
);
width = 666;
},
{
anchors = (
{
name = bottom;
pos = (306,0);
},
{
name = top;
pos = (306,684);
}
);
associatedMasterId = "0CAF3BED-C4AC-4024-B3E1-4C69D1EF7EC0";
layerId = "C4F6D6F7-9CB3-4F52-8FD6-72F6E42DA14B";
name = "Oct 30, 24 at 08:45";
shapes = (
{
closed = 1;
nodes = (
(161,0,l),
(161,684,l,{
"Letterink-NibData" = {
AngleInDegrees = 270;
};
}),
(79,684,l,{
"Letterink-NibData" = {
AngleInDegrees = 180;
};
}),
(79,0,l,{
"Letterink-NibData" = {
AngleInDegrees = 90;
};
})
);
},
{
closed = 1;
nodes = (
(603,54,l),
(576,54,o),
(562,75,o),
(541,110,cs),
(486,198,o),
(396,362,o),
(364,394,c),
(306,342,l),
(325,323,o),
(413,165,o),
(471,70,cs),
(501,24,o),
(536,-20,o),
(603,-20,c)
);
},
{
closed = 1;
nodes = (
(204,319,l),
(459,322,o),
(499,522,o),
(542,684,c),
(458,684,l),
(416,527,o),
(379,393,o),
(199,393,c),
(118,393,l),
(118,319,l)
);
}
);
width = 618;
}
);
metricLeft = "=|H";
userData = {
position = 542;
width = 57;
};
},
{
glyphname = K.swsh;
kernLeft = Swash;
kernRight = K;
layers = (
{
anchors = (
{
name = bottom;
pos = (375,0);
},
{
name = top;
pos = (373,684);
}
);
hints = (
{
name = _corner.caps_swash_vert;
origin = (1,1);
type = Corner;
}
);
layerId = "0CAF3BED-C4AC-4024-B3E1-4C69D1EF7EC0";
shapes = (
{
closed = 1;
nodes = (
(703,-20,o),
(743,10,o),
(753,50,c),
(681,73,l),
(677,62,o),
(667,56,o),
(655,56,cs),
(639,56,o),
(625,65,o),
(599,111,cs),
(543,211,o),
(512,380,o),
(335,387,c),
(335,321,l),
(445,306,o),
(464,186,o),
(529,71,cs),
(567,4,o),
(611,-20,o),
(655,-20,cs)
);
},
{
closed = 1;
nodes = (
(264,0,l),
(264,560,l,{
"Letterink-NibData" = {
AngleInDegrees = 270;
};
}),
(182,560,l,{
"Letterink-NibData" = {
AngleInDegrees = 180;
};
}),
(182,0,l,{
"Letterink-NibData" = {
AngleInDegrees = 90;
};
})
);
},
{
closed = 1;
nodes = (
(310,319,l),
(565,322,o),
(584,522,o),
(627,684,c),
(543,684,l),
(501,527,o),
(494,393,o),
(314,393,c),
(203,393,l),
(203,319,l)
);
}
);
width = 762;
},
{
anchors = (
{
name = bottom;
pos = (359,0);
},
{
name = top;
pos = (361,684);
}
);
hints = (
{
name = _corner.caps_swash_vert;
origin = (1,1);
type = Corner;
}
);
layerId = "49C16FD3-6177-408B-A733-AEB3898BB77C";
shapes = (
{
closed = 1;
nodes = (
(671,-9,o),
(705,10,o),
(715,45,c),
(682,54,l),
(676,39,o),
(663,27,o),
(636,27,cs),
(605,27,o),
(578,61,o),
(562,91,cs),
(506,197,o),
(489,357,o),
(318,377,c),
(318,344,l),
(456,326,o),
(469,186,o),
(530,71,cs),
(553,27,o),
(591,-9,o),
(636,-9,cs)
);
},
{
closed = 1;
nodes = (
(226,0,l),
(223,576,l,{
"Letterink-NibData" = {
AngleInDegrees = 270;
};
}),
(185,576,l,{
"Letterink-NibData" = {
AngleInDegrees = 180;
};
}),
(185,0,l,{
"Letterink-NibData" = {
AngleInDegrees = 90;
};
})
);
},
{
closed = 1;
nodes = (
(295,343,l),
(510,343,o),
(570,517,o),
(604,684,c),
(565,684,l),
(537,554,o),
(492,380,o),
(296,380,c),
(201,380,l),
(201,343,l)
);
}
);
width = 738;
},
{
anchors = (
{
name = bottom;
pos = (487,0);
},
{
name = top;
pos = (481,684);
}
);
hints = (
{
name = _corner.caps_swash_vert;
origin = (1,1);
type = Corner;
}
);
layerId = m004;
shapes = (
{
closed = 1;
nodes = (
(782,-31,o),
(855,8,o),
(867,98,c),
(730,132,l),
(728,128,o),
(725,124,o),
(719,124,cs),
(703,124,o),
(691,146,o),
(682,167,cs),
(650,239,o),
(615,373,o),
(455,413,c),
(418,286,l),
(480,269,o),
(515,161,o),
(552,83,cs),
(588,7,o),
(650,-31,o),
(723,-31,cs)
);
},
{
closed = 1;
nodes = (
(378,0,l),
(375,507,l,{
"Letterink-NibData" = {
AngleInDegrees = 270;
};
}),
(210,507,l,{
"Letterink-NibData" = {
AngleInDegrees = 180;
};
}),
(210,0,l,{
"Letterink-NibData" = {
AngleInDegrees = 90;
};
})
);
},
{
closed = 1;
nodes = (
(428,286,l),
(613,285,o),
(706,488,o),
(742,684,c),
(577,684,l),
(551,560,o),
(517,425,o),
(403,425,c),
(287,425,l),
(287,287,l)
);
}
);
width = 874;
}
);
metricLeft = H.swsh;
userData = {
position = 542;
width = 57;
};
},
{
glyphname = L;
kernRight = L;
layers = (
{
anchors = (
{
name = bottom;
pos = (270,6);
},
{
name = center;
pos = (138,362);
},
{
name = top;
pos = (174,684);
},
{
name = topright;
pos = (350,439);
}
);
layerId = "0CAF3BED-C4AC-4024-B3E1-4C69D1EF7EC0";
shapes = (
{
closed = 1;
nodes = (
(477,-1,l),
(486,75,l,{
"Letterink-NibData" = {
AngleInDegrees = 270;
};
}),
(140,75,l),
(215,684,l,{
"Letterink-NibData" = {
AngleInDegrees = 270;
};
}),
(132,684,l,{
"Letterink-NibData" = {
AngleInDegrees = 180;
};
}),
(48,-1,l,{
"Letterink-NibData" = {
AngleInDegrees = 90;
};
})
);
}
);
width = 521;
},
{
anchors = (
{
name = bottom;
pos = (248,0);
},
{
name = center;
pos = (127,379);
},
{
name = top;
pos = (156,683);
},
{
name = topright;
pos = (326,461);
}
);
layerId = "49C16FD3-6177-408B-A733-AEB3898BB77C";
shapes = (
{
closed = 1;
nodes = (
(469,0,l),
(473,36,l,{
"Letterink-NibData" = {
AngleInDegrees = 270;
};
}),
(96,36,l),
(176,684,l,{
"Letterink-NibData" = {
AngleInDegrees = 270;
};
}),
(138,684,l,{
"Letterink-NibData" = {
AngleInDegrees = 180;
};
}),
(53,0,l,{
"Letterink-NibData" = {
AngleInDegrees = 90;
};
})
);
}
);
width = 517;
},
{
anchors = (
{
name = bottom;
pos = (279,-5);
},
{
name = center;
pos = (165,370);
},
{
name = top;
pos = (202,684);
},
{
name = topright;
pos = (341,436);
}
);
layerId = m004;
shapes = (
{
closed = 1;
nodes = (
(515,0,l),
(533,148,l,{
"Letterink-NibData" = {
AngleInDegrees = 270;
};
}),
(219,148,l),
(285,684,l,{
"Letterink-NibData" = {
AngleInDegrees = 270;
};
}),
(119,684,l,{
"Letterink-NibData" = {
AngleInDegrees = 180;
};
}),
(35,0,l,{
"Letterink-NibData" = {
AngleInDegrees = 90;
};
})
);
}
);
width = 561;
}
);
metricLeft = "=|H";
unicode = 76;
userData = {
position = 54;
width = 61;
};
},
{
glyphname = L.swsh;
kernLeft = Swash;
kernRight = L;
layers = (
{
anchors = (
{
name = bottom;
pos = (367,11);
},
{
name = center;
pos = (282,342);
},
{
name = top;
pos = (285,684);
},
{
name = topright;
pos = (314,559);
}
);
hints = (
{
name = _corner.caps_swash;
origin = (1,2);
type = Corner;
}
);
layerId = "0CAF3BED-C4AC-4024-B3E1-4C69D1EF7EC0";
shapes = (
{
closed = 1;
nodes = (
(588,-1,l),
(597,75,l,{
"Letterink-NibData" = {
AngleInDegrees = 270;
};
}),
(251,75,l),
(326,684,l,{
"Letterink-NibData" = {
AngleInDegrees = 270;
};
}),
(243,684,l,{
"Letterink-NibData" = {
AngleInDegrees = 180;
};
}),
(159,-1,l,{
"Letterink-NibData" = {
AngleInDegrees = 90;
};
})
);
},
{
closed = 1;
nodes = (
(251,608,l),
(251,684,l),
(193,684,l),
(193,608,l)
);
}
);
width = 632;
},
{
anchors = (
{
name = bottom;
pos = (326,-10);
},
{
name = center;
pos = (319,342);
},
{
name = top;
pos = (412,696);
},
{
name = topright;
pos = (572,684);
}
);
hints = (
{
name = _corner.caps_swash;
origin = (1,2);
type = Corner;
}
);
layerId = "49C16FD3-6177-408B-A733-AEB3898BB77C";
shapes = (
{
closed = 1;
nodes = (
(538,1,l),
(543,37,l,{
"Letterink-NibData" = {
AngleInDegrees = 270;
};
}),
(176,37,l),
(255,683,l,{
"Letterink-NibData" = {
AngleInDegrees = 270;
};
}),
(217,683,l,{
"Letterink-NibData" = {
AngleInDegrees = 180;
};
}),
(133,1,l,{
"Letterink-NibData" = {
AngleInDegrees = 90;
};
})
);
},
{
closed = 1;
nodes = (
(232,647,l),
(232,683,l),
(178,683,l),
(178,647,l)
);
}
);
width = 586;
},
{
anchors = (
{
name = bottom;
pos = (420,0);
},
{
name = center;
pos = (322,345);
},
{
name = top;
pos = (348,683);
},
{
name = topright;
pos = (412,520);
}
);
hints = (
{
name = _corner.caps_swash;
origin = (1,2);
type = Corner;
}
);
layerId = m004;
shapes = (
{
closed = 1;
nodes = (
(654,1,l),
(672,149,l,{
"Letterink-NibData" = {
AngleInDegrees = "270";
};
}),
(364,149,l),
(430,684,l,{
"Letterink-NibData" = {
AngleInDegrees = "270";
};
}),
(264,684,l,{
"Letterink-NibData" = {
AngleInDegrees = "180";
};
}),
(180,1,l,{
"Letterink-NibData" = {
AngleInDegrees = "90";
};
})
);
},
{
closed = 1;
nodes = (
(277,536,l),
(277,684,l),
(222,684,l),
(222,536,l)
);
}
);
width = 700;
}
);
metricLeft = EI.swsh;
metricRight = L;
userData = {
position = 54;
width = 61;
};
},
{
glyphname = M;
kernLeft = A;
kernRight = M;
layers = (
{
anchors = (
{
name = bottom;
pos = (493,0);
},
{
name = top;
pos = (575,684);
}
);
hints = (
{
name = _corner.caps_diag;
options = 2;
origin = (0,14);
scale = (-1,1);
type = Corner;
}
);
layerId = "0CAF3BED-C4AC-4024-B3E1-4C69D1EF7EC0";
shapes = (
{
closed = 1;
nodes = (
(529,-1,l,{
"Letterink-NibData" = {
AngleInDegrees = 19.82904;
};
}),
(788,537,l,{
"Letterink-NibData" = {
AngleInDegrees = 10.61966;
};
}),
(795,562,l,{
"Letterink-NibData" = {
AngleInDegrees = 176.42367;
};
}),
(793,537,l,{
"Letterink-NibData" = {
AngleInDegrees = 168.64911;
};
}),
(833,0,l,{
"Letterink-NibData" = {
AngleInDegrees = 90;
};
}),
(916,0,l,{
"Letterink-NibData" = {
AngleInDegrees = 348.40167;
};
}),
(859,684,l,{
"Letterink-NibData" = {
AngleInDegrees = 270;
};
}),
(779,684,l,{
"Letterink-NibData" = {
AngleInDegrees = 200.24505;
};
}),
(519,147,l,{
"Letterink-NibData" = {
AngleInDegrees = 195.78075;
};
}),
(504,101,l,{
"Letterink-NibData" = {
AngleInDegrees = 344.21925;
};
}),
(500,147,l,{
"Letterink-NibData" = {
AngleInDegrees = 339.94696;
};
}),
(374,684,l,{
"Letterink-NibData" = {
AngleInDegrees = 270;
};
}),
(293,684,l,{
"Letterink-NibData" = {
AngleInDegrees = 191.97887;
};
}),
(96,89,l,{
"Letterink-NibData" = {
AngleInDegrees = 201.80141;
};
}),
(170,66,l,{
"Letterink-NibData" = {
AngleInDegrees = 11.90108;
};
}),
(324,531,l,{
"Letterink-NibData" = {
AngleInDegrees = 7.76516;
};
}),
(330,556,l,{
"Letterink-NibData" = {
AngleInDegrees = 172.23484;
};
}),
(332,531,l,{
"Letterink-NibData" = {
AngleInDegrees = 160.25072;
};
}),
(457,-1,l,{
"Letterink-NibData" = {
AngleInDegrees = 90;
};
})
);
}
);
width = 969;
},
{
anchors = (
{
name = bottom;
pos = (513,1);
},
{
name = top;
pos = (596,683);
}
);
hints = (
{
name = _corner.caps_diag;
options = 2;
origin = (0,14);
scale = (-1,1);
type = Corner;
}
);
layerId = "49C16FD3-6177-408B-A733-AEB3898BB77C";
shapes = (
{
closed = 1;
nodes = (
(537,1,l,{
"Letterink-NibData" = {
AngleInDegrees = 19.8453;
};
}),
(814,572,l,{
"Letterink-NibData" = {
AngleInDegrees = 15.73201;
};
}),
(845,649,l,{
"Letterink-NibData" = {
AngleInDegrees = 170.40687;
};
}),
(849,572,l,{
"Letterink-NibData" = {
AngleInDegrees = 168.65127;
};
}),
(896,0,l,{
"Letterink-NibData" = {
AngleInDegrees = 90;
};
}),
(934,0,l,{
"Letterink-NibData" = {
AngleInDegrees = 348.43256;
};
}),
(878,685,l,{
"Letterink-NibData" = {
AngleInDegrees = 270;
};
}),
(830,685,l,{
"Letterink-NibData" = {
AngleInDegrees = 200.22945;
};
}),
(543,103,l,{
"Letterink-NibData" = {
AngleInDegrees = 195.70864;
};
}),
(516,35,l,{
"Letterink-NibData" = {
AngleInDegrees = 344.29136;
};
}),
(505,103,l,{
"Letterink-NibData" = {
AngleInDegrees = 339.85787;
};
}),
(363,685,l,{
"Letterink-NibData" = {
AngleInDegrees = 270;
};
}),
(317,685,l,{
"Letterink-NibData" = {
AngleInDegrees = 191.99471;
};
}),
(108,68,l,{
"Letterink-NibData" = {
AngleInDegrees = "202.61986";
};
}),
(144,55,l,{
GSCorner = {
name = _corner.caps_diag;
options = "1";
scale = "{-1, 1}";
};
"Letterink-NibData" = {
AngleInDegrees = "22.1315";
};
}),
(318,571,l,{
"Letterink-NibData" = {
AngleInDegrees = 8.56914;
};
}),
(340,651,l,{
"Letterink-NibData" = {
AngleInDegrees = 164.67849;
};
}),
(353,571,l,{
"Letterink-NibData" = {
AngleInDegrees = 160.21186;
};
}),
(487,1,l,{
"Letterink-NibData" = {
AngleInDegrees = 90;
};
})
);
}
);
width = 993;
},
{
anchors = (
{
name = bottom;
pos = (508,0);
},
{
name = top;
pos = (592,684);
}
);
hints = (
{
name = _corner.caps_diag;
options = 2;
origin = (0,14);
scale = (-1,1);
type = Corner;
}
);
layerId = m004;
shapes = (
{
closed = 1;
nodes = (
(573,4,l,{
"Letterink-NibData" = {
AngleInDegrees = 19.82904;
};
}),
(775,443,l,{
"Letterink-NibData" = {
AngleInDegrees = 10.61966;
};
}),
(764,495,l,{
"Letterink-NibData" = {
AngleInDegrees = 176.42367;
};
}),
(750,439,l,{
"Letterink-NibData" = {
AngleInDegrees = 168.64911;
};
}),
(776,0,l,{
"Letterink-NibData" = {
AngleInDegrees = 90;
};
}),
(948,2,l,{
"Letterink-NibData" = {
AngleInDegrees = 348.40167;
};
}),
(887,684,l,{
"Letterink-NibData" = {
AngleInDegrees = 270;
};
}),
(740,684,l,{
"Letterink-NibData" = {
AngleInDegrees = 200.24505;
};
}),
(553,302,l,{
"Letterink-NibData" = {
AngleInDegrees = 195.78075;
};
}),
(539,256,l,{
"Letterink-NibData" = {
AngleInDegrees = 344.21925;
};
}),
(535,302,l,{
"Letterink-NibData" = {
AngleInDegrees = 339.94696;
};
}),
(445,684,l,{
"Letterink-NibData" = {
AngleInDegrees = 270;
};
}),
(297,684,l,{
"Letterink-NibData" = {
AngleInDegrees = 191.97887;
};
}),
(123,141,l,{
"Letterink-NibData" = {
AngleInDegrees = 201.80141;
};
}),
(276,94,l,{
"Letterink-NibData" = {
AngleInDegrees = 11.90108;
};
}),
(377,418,l,{
"Letterink-NibData" = {
AngleInDegrees = 7.76516;
};
}),
(367,466,l,{
"Letterink-NibData" = {
AngleInDegrees = 172.23484;
};
}),
(353,418,l,{
"Letterink-NibData" = {
AngleInDegrees = 160.25072;
};
}),
(452,4,l,{
"Letterink-NibData" = {
AngleInDegrees = 90;
};
})
);
}
);
width = 991;
}
);
unicode = 77;
userData = {
position = 664;
width = 20;
};
},
{
glyphname = M.ss01;
layers = (
{
anchors = (
{
name = bottom;
pos = (380,0);
},
{
name = top;
pos = (461,684);
}
);
layerId = "0CAF3BED-C4AC-4024-B3E1-4C69D1EF7EC0";
shapes = (
{
closed = 1;
nodes = (
(707,0,l,{
"Letterink-NibData" = {
AngleInDegrees = "90";
};
}),
(792,695,l,{
"Letterink-NibData" = {
AngleInDegrees = "180";
};
}),
(739,695,l,{
"Letterink-NibData" = {
AngleInDegrees = "270";
};
}),
(408,300,l,{
"Letterink-NibData" = {
AngleInDegrees = 321.44015;
};
}),
(397,206,l),
(421,206,l,{
"Letterink-NibData" = {
AngleInDegrees = 43.21009;
};
}),
(650,471,l,{
"Letterink-NibData" = {
AngleInDegrees = 139.07037;
};
}),
(695,539,l,{
"Letterink-NibData" = {
AngleInDegrees = 143.97263;
};
}),
(682,465,l),
(624,0,l)
);
},
{
closed = 1;
nodes = (
(132,0,l),
(188,465,l),
(195,539,l,{
"Letterink-NibData" = {
AngleInDegrees = 143.97263;
};
}),
(224,471,l,{
"Letterink-NibData" = {
AngleInDegrees = 139.07037;
};
}),
(387,206,l,{
"Letterink-NibData" = {
AngleInDegrees = 43.21009;
};
}),
(409,206,l),
(420,300,l,{
"Letterink-NibData" = {
AngleInDegrees = 321.44015;
};
}),
(187,695,l,{
"Letterink-NibData" = {
AngleInDegrees = 270;
};
}),
(134,695,l,{
"Letterink-NibData" = {
AngleInDegrees = 180;
};
}),
(49,0,l,{
"Letterink-NibData" = {
AngleInDegrees = 90;
};
})
);
}
);
width = 817;
},
{
anchors = (
{
name = bottom;
pos = (359,0);
},
{
name = top;
pos = (443,684);
}
);
layerId = "49C16FD3-6177-408B-A733-AEB3898BB77C";
shapes = (
{
closed = 1;
nodes = (
(668,1,l,{
"Letterink-NibData" = {
AngleInDegrees = "90";
};
}),
(753,693,l,{
"Letterink-NibData" = {
AngleInDegrees = "180";
};
}),
(732,694,l,{
"Letterink-NibData" = {
AngleInDegrees = "270";
};
}),
(390,269,l,{
"Letterink-NibData" = {
AngleInDegrees = 321.67095;
};
}),
(383,219,l),
(396,219,l,{
"Letterink-NibData" = {
AngleInDegrees = 42.83309;
};
}),
(690,580,l,{
"Letterink-NibData" = {
AngleInDegrees = 141.24191;
};
}),
(716,616,l,{
"Letterink-NibData" = {
AngleInDegrees = 150.64224;
};
}),
(700,573,l),
(630,1,l)
);
},
{
closed = 1;
nodes = (
(91,1,l),
(161,573,l),
(157,616,l,{
"Letterink-NibData" = {
AngleInDegrees = 150.64224;
};
}),
(175,580,l,{
"Letterink-NibData" = {
AngleInDegrees = 141.24191;
};
}),
(379,219,l,{
"Letterink-NibData" = {
AngleInDegrees = 42.83309;
};
}),
(391,219,l,{
"Letterink-NibData" = {
AngleInDegrees = 42.83309;
};
}),
(397,269,l,{
"Letterink-NibData" = {
AngleInDegrees = 321.67095;
};
}),
(158,694,l,{
"Letterink-NibData" = {
AngleInDegrees = 270;
};
}),
(138,693,l,{
"Letterink-NibData" = {
AngleInDegrees = 180;
};
}),
(53,1,l,{
"Letterink-NibData" = {
AngleInDegrees = 90;
};
})
);
}
);
width = 783;
},
{
anchors = (
{
name = bottom;
pos = (391,0);
},
{
name = top;
pos = (484,684);
}
);
layerId = m004;
shapes = (
{
closed = 1;
nodes = (
(746,0,l,{
"Letterink-NibData" = {
AngleInDegrees = "90";
};
}),
(831,695,l,{
"Letterink-NibData" = {
AngleInDegrees = "180";
};
}),
(728,696,l,{
"Letterink-NibData" = {
AngleInDegrees = "270";
};
}),
(430,360,l,{
"Letterink-NibData" = {
AngleInDegrees = "321.44015";
};
}),
(382,161,l,{
"Letterink-NibData" = {
AngleInDegrees = 43.21009;
};
}),
(439,161,l,{
"Letterink-NibData" = {
AngleInDegrees = "43.21009";
};
}),
(603,349,l,{
"Letterink-NibData" = {
AngleInDegrees = "139.07037";
};
}),
(632,395,l,{
"Letterink-NibData" = {
AngleInDegrees = "143.97263";
};
}),
(617,319,l),
(581,0,l)
);
},
{
closed = 1;
nodes = (
(201,0,l),
(243,319,l),
(251,395,l,{
"Letterink-NibData" = {
AngleInDegrees = 143.97263;
};
}),
(275,338,l,{
"Letterink-NibData" = {
AngleInDegrees = 139.07037;
};
}),
(385,161,l,{
"Letterink-NibData" = {
AngleInDegrees = 43.21009;
};
}),
(438,161,l,{
"Letterink-NibData" = {
AngleInDegrees = 43.21009;
};
}),
(438,360,l,{
"Letterink-NibData" = {
AngleInDegrees = 321.44015;
};
}),
(222,696,l,{
"Letterink-NibData" = {
AngleInDegrees = 270;
};
}),
(121,695,l,{
"Letterink-NibData" = {
AngleInDegrees = 180;
};
}),
(36,0,l,{
"Letterink-NibData" = {
AngleInDegrees = 90;
};
})
);
}
);
width = 843;
}
);
metricLeft = "=|H";
metricRight = H;
userData = {
position = 658;
width = 61;
};
},
{
glyphname = M.swsh;
kernLeft = A.swsh;
kernRight = M;
layers = (
{
anchors = (
{
name = bottom;
pos = (566,-2);
},
{
name = top;
pos = (643,684);
}
);
hints = (
{
name = _corner.caps_swash_diag;
options = 2;
origin = (0,14);
scale = (-1,1);
type = Corner;
},
{
name = _corner.caps_swash.big;
origin = (1,2);
type = Corner;
}
);
layerId = "0CAF3BED-C4AC-4024-B3E1-4C69D1EF7EC0";
shapes = (
{
closed = 1;
nodes = (
(597,-1,l,{
"Letterink-NibData" = {
AngleInDegrees = 19.93149;
};
}),
(856,534,l,{
"Letterink-NibData" = {
AngleInDegrees = 7.59464;
};
}),
(863,555,l,{
"Letterink-NibData" = {
AngleInDegrees = 172.40536;
};
}),
(862,534,l,{
"Letterink-NibData" = {
AngleInDegrees = 168.58713;
};
}),
(903,-1,l,{
"Letterink-NibData" = {
AngleInDegrees = 90;
};
}),
(982,-1,l,{
"Letterink-NibData" = {
AngleInDegrees = 348.40167;
};
}),
(925,685,l,{
"Letterink-NibData" = {
AngleInDegrees = 270;
};
}),
(852,685,l,{
"Letterink-NibData" = {
AngleInDegrees = 200.03195;
};
}),
(577,121,l,{
"Letterink-NibData" = {
AngleInDegrees = 184.08562;
};
}),
(573,103,l,{
"Letterink-NibData" = {
AngleInDegrees = 351.8699;
};
}),
(572,121,l,{
"Letterink-NibData" = {
AngleInDegrees = 340.23704;
};
}),
(440,685,l,{
"Letterink-NibData" = {
AngleInDegrees = 270;
};
}),
(362,685,l,{
"Letterink-NibData" = {
AngleInDegrees = 192.03371;
};
}),
(169,99,l,{
"Letterink-NibData" = {
AngleInDegrees = 192.99462;
};
}),
(247,75,l,{
"Letterink-NibData" = {
AngleInDegrees = 11.94652;
};
}),
(389,528,l,{
"Letterink-NibData" = {
AngleInDegrees = 10.7843;
};
}),
(397,554,l,{
"Letterink-NibData" = {
AngleInDegrees = 169.2157;
};
}),
(399,528,l,{
"Letterink-NibData" = {
AngleInDegrees = 160.14745;
};
}),
(524,-1,l,{
"Letterink-NibData" = {
AngleInDegrees = 90;
};
})
);
},
{
closed = 1;
nodes = (
(397,609,l),
(397,685,l,{
"Letterink-NibData" = {
AngleInDegrees = "270";
};
}),
(264,685,l,{
"Letterink-NibData" = {
AngleInDegrees = "180";
};
}),
(264,609,l,{
"Letterink-NibData" = {
AngleInDegrees = "90";
};
})
);
}
);
width = 1035;
},
{
anchors = (
{
name = bottom;
pos = (561,1);
},
{
name = top;
pos = (644,683);
}
);
hints = (
{
name = _corner.caps_swash_diag;
options = 2;
origin = (0,14);
scale = (-1,1);
type = Corner;
},
{
name = _corner.caps_swash.big;
origin = (1,2);
type = Corner;
}
);
layerId = "49C16FD3-6177-408B-A733-AEB3898BB77C";
shapes = (
{
closed = 1;
nodes = (
(581,1,l,{
"Letterink-NibData" = {
AngleInDegrees = 19.90221;
};
}),
(859,573,l,{
"Letterink-NibData" = {
AngleInDegrees = 15.18584;
};
}),
(889,650,l,{
"Letterink-NibData" = {
AngleInDegrees = 170.40687;
};
}),
(893,572,l,{
"Letterink-NibData" = {
AngleInDegrees = 168.65127;
};
}),
(937,1,l,{
"Letterink-NibData" = {
AngleInDegrees = 90;
};
}),
(977,1,l,{
"Letterink-NibData" = {
AngleInDegrees = 348.43256;
};
}),
(920,685,l,{
"Letterink-NibData" = {
AngleInDegrees = 270;
};
}),
(876,685,l,{
"Letterink-NibData" = {
AngleInDegrees = 200.22945;
};
}),
(591,105,l,{
"Letterink-NibData" = {
AngleInDegrees = 195.70864;
};
}),
(563,36,l,{
"Letterink-NibData" = {
AngleInDegrees = 344.29136;
};
}),
(551,105,l,{
"Letterink-NibData" = {
AngleInDegrees = 339.85787;
};
}),
(410,684,l,{
"Letterink-NibData" = {
AngleInDegrees = 270;
};
}),
(366,684,l,{
"Letterink-NibData" = {
AngleInDegrees = 191.97342;
};
}),
(166,77,l,{
"Letterink-NibData" = {
AngleInDegrees = 196.18921;
};
}),
(202,65,l,{
"Letterink-NibData" = {
AngleInDegrees = 12.01367;
};
}),
(366,571,l,{
"Letterink-NibData" = {
AngleInDegrees = 8.56914;
};
}),
(388,651,l,{
"Letterink-NibData" = {
AngleInDegrees = 165.41108;
};
}),
(400,571,l,{
"Letterink-NibData" = {
AngleInDegrees = 160.21186;
};
}),
(534,1,l,{
"Letterink-NibData" = {
AngleInDegrees = 90;
};
})
);
},
{
closed = 1;
nodes = (
(366,648,l),
(366,684,l,{
"Letterink-NibData" = {
AngleInDegrees = "270";
};
}),
(263,684,l,{
"Letterink-NibData" = {
AngleInDegrees = "180";
};
}),
(263,648,l,{
"Letterink-NibData" = {
AngleInDegrees = "90";
};
})
);
}
);
width = 1036;
},
{
anchors = (
{
name = bottom;
pos = (567,-2);
},
{
name = top;
pos = (686,684);
}
);
hints = (
{
name = _corner.caps_swash_diag;
options = 2;
origin = (0,14);
scale = (-1,1);
type = Corner;
},
{
name = _corner.caps_swash.big;
origin = (1,2);
type = Corner;
}
);
layerId = m004;
shapes = (
{
closed = 1;
nodes = (
(663,-5,l,{
"Letterink-NibData" = {
AngleInDegrees = "19.82904";
};
}),
(866,443,l,{
"Letterink-NibData" = {
AngleInDegrees = "10.61966";
};
}),
(856,495,l,{
"Letterink-NibData" = {
AngleInDegrees = "176.42367";
};
}),
(842,439,l,{
"Letterink-NibData" = {
AngleInDegrees = "168.64911";
};
}),
(867,-5,l,{
"Letterink-NibData" = {
AngleInDegrees = "90";
};
}),
(1031,-5,l,{
"Letterink-NibData" = {
AngleInDegrees = "348.40167";
};
}),
(970,684,l,{
"Letterink-NibData" = {
AngleInDegrees = "270";
};
}),
(834,684,l,{
"Letterink-NibData" = {
AngleInDegrees = "200.24505";
};
}),
(661,338,l,{
"Letterink-NibData" = {
AngleInDegrees = "195.78075";
};
}),
(630,256,l,{
"Letterink-NibData" = {
AngleInDegrees = "344.21925";
};
}),
(620,338,l,{
"Letterink-NibData" = {
AngleInDegrees = "339.94696";
};
}),
(535,684,l,{
"Letterink-NibData" = {
AngleInDegrees = "270";
};
}),
(396,684,l,{
"Letterink-NibData" = {
AngleInDegrees = "191.97887";
};
}),
(220,157,l,{
"Letterink-NibData" = {
AngleInDegrees = "201.80141";
};
}),
(372,107,l,{
"Letterink-NibData" = {
AngleInDegrees = "11.90108";
};
}),
(470,418,l,{
"Letterink-NibData" = {
AngleInDegrees = "7.76516";
};
}),
(466,466,l,{
"Letterink-NibData" = {
AngleInDegrees = "172.23484";
};
}),
(444,418,l,{
"Letterink-NibData" = {
AngleInDegrees = "160.25072";
};
}),
(542,-5,l,{
"Letterink-NibData" = {
AngleInDegrees = "90";
};
})
);
},
{
closed = 1;
nodes = (
(483,535,l),
(483,684,l,{
"Letterink-NibData" = {
AngleInDegrees = "270";
};
}),
(311,684,l,{
"Letterink-NibData" = {
AngleInDegrees = "180";
};
}),
(311,535,l)
);
}
);
width = 1075;
}
);
metricRight = M;
userData = {
position = 664;
width = 20;
};
},
{
glyphname = N;
kernLeft = N;
layers = (
{
anchors = (
{
name = bottom;
pos = (374,0);
},
{
name = eng;
pos = (609,0);
},
{
name = top;
pos = (472,684);
}
);
hints = (
{
name = _corner.caps_vert.001;
origin = (0,10);
scale = (-1,1);
type = Corner;
}
);
layerId = "0CAF3BED-C4AC-4024-B3E1-4C69D1EF7EC0";
shapes = (
{
closed = 1;
nodes = (
(650,-1,l,{
"Letterink-NibData" = {
AngleInDegrees = "180";
};
}),
(734,684,l,{
"Letterink-NibData" = {
AngleInDegrees = "90";
};
}),
(651,684,l),
(591,188,l,{
"Letterink-NibData" = {
AngleInDegrees = 355.66769;
};
}),
(592,141,l,{
"Letterink-NibData" = {
AngleInDegrees = 143.1301;
};
}),
(540,229,l,{
"Letterink-NibData" = {
AngleInDegrees = 140.24946;
};
}),
(313,594,l),
(237,696,l,{
"Letterink-NibData" = {
AngleInDegrees = "270";
};
}),
(189,696,l,{
"Letterink-NibData" = {
AngleInDegrees = "180";
};
}),
(118,117,l,{
"Letterink-NibData" = {
AngleInDegrees = "90";
};
}),
(201,117,l),
(245,477,l,{
"Letterink-NibData" = {
AngleInDegrees = 355.66769;
};
}),
(248,554,l,{
"Letterink-NibData" = {
AngleInDegrees = 143.1301;
};
}),
(300,466,l,{
"Letterink-NibData" = {
AngleInDegrees = 140.24946;
};
}),
(527,101,l),
(603,-1,l,{
"Letterink-NibData" = {
AngleInDegrees = "270";
};
})
);
}
);
width = 760;
},
{
anchors = (
{
name = bottom;
pos = (381,-8);
},
{
name = eng;
pos = (624,0);
},
{
name = top;
pos = (472,695);
}
);
hints = (
{
name = _corner.caps_vert.001;
origin = (0,10);
scale = (-1,1);
type = Corner;
}
);
layerId = "49C16FD3-6177-408B-A733-AEB3898BB77C";
shapes = (
{
closed = 1;
nodes = (
(642,0,l,{
"Letterink-NibData" = {
AngleInDegrees = "180";
};
}),
(726,683,l),
(684,683,l,{
"Letterink-NibData" = {
AngleInDegrees = 359.58179;
};
}),
(617,105,l),
(612,64,l,{
"Letterink-NibData" = {
AngleInDegrees = 145.43748;
};
}),
(592,96,l,{
"Letterink-NibData" = {
AngleInDegrees = 141.25478;
};
}),
(284,601,l,{
"Letterink-NibData" = {
AngleInDegrees = 318.39493;
};
}),
(230,683,l,{
"Letterink-NibData" = {
AngleInDegrees = 270;
};
}),
(203,683,l,{
"Letterink-NibData" = {
AngleInDegrees = 180;
};
}),
(132,101,l,{
"Letterink-NibData" = {
AngleInDegrees = 180;
};
}),
(170,101,l,{
"Letterink-NibData" = {
AngleInDegrees = 359.58179;
};
}),
(228,583,l),
(228,618,l,{
"Letterink-NibData" = {
AngleInDegrees = 145.43748;
};
}),
(246,588,l,{
"Letterink-NibData" = {
AngleInDegrees = 141.25478;
};
}),
(555,79,l),
(611,0,l,{
"Letterink-NibData" = {
AngleInDegrees = "270";
};
})
);
}
);
width = 757;
},
{
anchors = (
{
name = bottom;
pos = (428,0);
},
{
name = eng;
pos = (629,0);
},
{
name = top;
pos = (512,684);
}
);
hints = (
{
name = _corner.caps_vert.001;
origin = (0,10);
scale = (-1,1);
type = Corner;
}
);
layerId = m004;
shapes = (
{
closed = 1;
nodes = (
(711,-5,l,{
"Letterink-NibData" = {
AngleInDegrees = "180";
};
}),
(796,684,l,{
"Letterink-NibData" = {
AngleInDegrees = "90";
};
}),
(631,684,l),
(592,365,l,{
"Letterink-NibData" = {
AngleInDegrees = 355.66769;
};
}),
(588,285,l,{
"Letterink-NibData" = {
AngleInDegrees = 143.1301;
};
}),
(568,323,l,{
"Letterink-NibData" = {
AngleInDegrees = 140.24946;
};
}),
(367,636,l),
(318,698,l,{
"Letterink-NibData" = {
AngleInDegrees = "270";
};
}),
(214,698,l,{
"Letterink-NibData" = {
AngleInDegrees = "180";
};
}),
(147,166,l,{
"Letterink-NibData" = {
AngleInDegrees = "90";
};
}),
(313,166,l),
(330,312,l,{
"Letterink-NibData" = {
AngleInDegrees = 355.66769;
};
}),
(333,408,l,{
"Letterink-NibData" = {
AngleInDegrees = 143.1301;
};
}),
(400,286,l,{
"Letterink-NibData" = {
AngleInDegrees = 140.24946;
};
}),
(562,53,l),
(608,-5,l,{
"Letterink-NibData" = {
AngleInDegrees = "270";
};
})
);
}
);
width = 809;
}
);
metricRight = H;
unicode = 78;
userData = {
position = 642;
width = 56;
};
},
{
glyphname = N.ss01;
layers = (
{
anchors = (
{
name = bottom;
pos = (325,0);
},
{
name = eng;
pos = (553,-11);
},
{
name = top;
pos = (411,684);
}
);
layerId = "0CAF3BED-C4AC-4024-B3E1-4C69D1EF7EC0";
shapes = (
{
closed = 1;
nodes = (
(595,-11,l,{
"Letterink-NibData" = {
AngleInDegrees = "180";
};
}),
(680,684,l,{
"Letterink-NibData" = {
AngleInDegrees = "90";
};
}),
(597,684,l),
(542,233,l,{
"Letterink-NibData" = {
AngleInDegrees = 355.66769;
};
}),
(536,131,l,{
"Letterink-NibData" = {
AngleInDegrees = 143.1301;
};
}),
(482,219,l,{
"Letterink-NibData" = {
AngleInDegrees = 140.24946;
};
}),
(257,594,l),
(193,696,l,{
"Letterink-NibData" = {
AngleInDegrees = 270;
};
}),
(134,696,l,{
"Letterink-NibData" = {
AngleInDegrees = 180;
};
}),
(49,-1,l,{
"Letterink-NibData" = {
AngleInDegrees = 90;
};
}),
(131,-1,l),
(187,452,l,{
"Letterink-NibData" = {
AngleInDegrees = 355.66769;
};
}),
(193,554,l,{
"Letterink-NibData" = {
AngleInDegrees = 143.1301;
};
}),
(245,466,l,{
"Letterink-NibData" = {
AngleInDegrees = 140.24946;
};
}),
(471,91,l),
(546,-11,l,{
"Letterink-NibData" = {
AngleInDegrees = "270";
};
})
);
}
);
width = 706;
},
{
anchors = (
{
name = bottom;
pos = (321,0);
},
{
name = eng;
pos = (563,0);
},
{
name = top;
pos = (407,684);
}
);
layerId = "49C16FD3-6177-408B-A733-AEB3898BB77C";
shapes = (
{
closed = 1;
nodes = (
(581,-1,l,{
"Letterink-NibData" = {
AngleInDegrees = "180";
};
}),
(665,685,l),
(627,685,l,{
"Letterink-NibData" = {
AngleInDegrees = 359.58179;
};
}),
(556,107,l),
(555,66,l,{
"Letterink-NibData" = {
AngleInDegrees = 145.43748;
};
}),
(533,97,l,{
"Letterink-NibData" = {
AngleInDegrees = 141.25478;
};
}),
(215,601,l,{
"Letterink-NibData" = {
AngleInDegrees = 318.39493;
};
}),
(158,683,l,{
"Letterink-NibData" = {
AngleInDegrees = "270";
};
}),
(137,683,l,{
"Letterink-NibData" = {
AngleInDegrees = "180";
};
}),
(53,0,l,{
"Letterink-NibData" = {
AngleInDegrees = "180";
};
}),
(92,0,l,{
"Letterink-NibData" = {
AngleInDegrees = 359.58179;
};
}),
(162,583,l),
(161,618,l,{
"Letterink-NibData" = {
AngleInDegrees = 145.43748;
};
}),
(182,588,l,{
"Letterink-NibData" = {
AngleInDegrees = 141.25478;
};
}),
(499,82,l),
(554,-1,l,{
"Letterink-NibData" = {
AngleInDegrees = "270";
};
})
);
}
);
width = 696;
},
{
anchors = (
{
name = bottom;
pos = (335,0);
},
{
name = eng;
pos = (538,0);
},
{
name = top;
pos = (421,684);
}
);
layerId = m004;
shapes = (
{
closed = 1;
nodes = (
(620,-5,l,{
"Letterink-NibData" = {
AngleInDegrees = "180";
};
}),
(703,684,l,{
"Letterink-NibData" = {
AngleInDegrees = "90";
};
}),
(536,684,l),
(499,356,l,{
"Letterink-NibData" = {
AngleInDegrees = 355.66769;
};
}),
(497,293,l,{
"Letterink-NibData" = {
AngleInDegrees = 143.1301;
};
}),
(442,379,l,{
"Letterink-NibData" = {
AngleInDegrees = 140.24946;
};
}),
(276,636,l),
(226,694,l,{
"Letterink-NibData" = {
AngleInDegrees = "270";
};
}),
(121,694,l,{
"Letterink-NibData" = {
AngleInDegrees = "180";
};
}),
(39,0,l,{
"Letterink-NibData" = {
AngleInDegrees = "90";
};
}),
(205,0,l),
(247,340,l,{
"Letterink-NibData" = {
AngleInDegrees = 355.66769;
};
}),
(242,408,l,{
"Letterink-NibData" = {
AngleInDegrees = 143.1301;
};
}),
(278,348,l,{
"Letterink-NibData" = {
AngleInDegrees = 140.24946;
};
}),
(471,53,l),
(517,-5,l,{
"Letterink-NibData" = {
AngleInDegrees = "270";
};
})
);
}
);
width = 717;
}
);
metricLeft = "=|H";
metricRight = H;
userData = {
position = 605;
width = 61;
};
},
{
glyphname = N.swsh;
kernLeft = swsh;
layers = (
{
anchors = (
{
name = bottom;
pos = (445,0);
},
{
name = top;
pos = (529,684);
}
);
hints = (
{
name = _corner.caps_swash_vert;
origin = (0,10);
scale = (-1,1);
type = Corner;
},
{
name = _corner.caps_swash.big;
origin = (1,2);
type = Corner;
}
);
layerId = "0CAF3BED-C4AC-4024-B3E1-4C69D1EF7EC0";
shapes = (
{
closed = 1;
nodes = (
(726,-1,l,{
"Letterink-NibData" = {
AngleInDegrees = "180";
};
}),
(811,696,l,{
"Letterink-NibData" = {
AngleInDegrees = "90";
};
}),
(729,696,l),
(674,243,l,{
"Letterink-NibData" = {
AngleInDegrees = 355.66769;
};
}),
(668,141,l,{
"Letterink-NibData" = {
AngleInDegrees = 143.1301;
};
}),
(616,229,l,{
"Letterink-NibData" = {
AngleInDegrees = 140.24946;
};
}),
(389,594,l),
(329,684,l,{
"Letterink-NibData" = {
AngleInDegrees = "270";
};
}),
(264,684,l,{
"Letterink-NibData" = {
AngleInDegrees = "180";
};
}),
(192,113,l,{
"Letterink-NibData" = {
AngleInDegrees = "90";
};
}),
(275,113,l),
(317,452,l,{
"Letterink-NibData" = {
AngleInDegrees = 355.66769;
};
}),
(324,554,l,{
"Letterink-NibData" = {
AngleInDegrees = 143.1301;
};
}),
(376,466,l,{
"Letterink-NibData" = {
AngleInDegrees = 140.24946;
};
}),
(603,101,l),
(679,-1,l,{
"Letterink-NibData" = {
AngleInDegrees = "270";
};
})
);
},
{
closed = 1;
nodes = (
(306,608,l),
(306,684,l,{
"Letterink-NibData" = {
AngleInDegrees = "270";
};
}),
(247,684,l,{
"Letterink-NibData" = {
AngleInDegrees = "180";
};
}),
(247,608,l,{
"Letterink-NibData" = {
AngleInDegrees = "90";
};
})
);
}
);
width = 836;
},
{
anchors = (
{
name = bottom;
pos = (513,0);
},
{
name = top;
pos = (557,684);
}
);
hints = (
{
name = _corner.caps_swash_vert;
origin = (0,10);
scale = (-1,1);
type = Corner;
},
{
name = _corner.caps_swash.big;
origin = (1,2);
type = Corner;
}
);
layerId = "49C16FD3-6177-408B-A733-AEB3898BB77C";
shapes = (
{
closed = 1;
nodes = (
(732,0,l,{
"Letterink-NibData" = {
AngleInDegrees = "180";
};
}),
(816,683,l),
(776,683,l,{
"Letterink-NibData" = {
AngleInDegrees = 359.58179;
};
}),
(709,105,l),
(704,64,l,{
"Letterink-NibData" = {
AngleInDegrees = 145.43748;
};
}),
(683,96,l,{
"Letterink-NibData" = {
AngleInDegrees = 141.25478;
};
}),
(366,601,l,{
"Letterink-NibData" = {
AngleInDegrees = 318.39493;
};
}),
(312,683,l,{
"Letterink-NibData" = {
AngleInDegrees = "270";
};
}),
(286,683,l,{
"Letterink-NibData" = {
AngleInDegrees = "180";
};
}),
(214,98,l,{
"Letterink-NibData" = {
AngleInDegrees = "180";
};
}),
(252,98,l,{
"Letterink-NibData" = {
AngleInDegrees = 359.58179;
};
}),
(308,583,l),
(310,618,l,{
"Letterink-NibData" = {
AngleInDegrees = 145.43748;
};
}),
(328,588,l,{
"Letterink-NibData" = {
AngleInDegrees = 141.25478;
};
}),
(647,79,l),
(703,0,l,{
"Letterink-NibData" = {
AngleInDegrees = "270";
};
})
);
},
{
closed = 1;
nodes = (
(311,648,l),
(311,684,l,{
"Letterink-NibData" = {
AngleInDegrees = "270";
};
}),
(233,684,l,{
"Letterink-NibData" = {
AngleInDegrees = "180";
};
}),
(233,648,l,{
"Letterink-NibData" = {
AngleInDegrees = "90";
};
})
);
}
);
width = 847;
},
{
anchors = (
{
name = bottom;
pos = (561,0);
},
{
name = top;
pos = (574,684);
}
);
hints = (
{
name = _corner.caps_swash_vert;
origin = (0,10);
scale = (-1,1);
type = Corner;
},
{
name = _corner.caps_swash.big;
origin = (1,2);
type = Corner;
}
);
layerId = m004;
shapes = (
{
closed = 1;
nodes = (
(813,-5,l,{
"Letterink-NibData" = {
AngleInDegrees = "180";
};
}),
(900,699,l,{
"Letterink-NibData" = {
AngleInDegrees = "90";
};
}),
(735,699,l),
(698,398,l,{
"Letterink-NibData" = {
AngleInDegrees = 355.66769;
};
}),
(693,285,l,{
"Letterink-NibData" = {
AngleInDegrees = 143.1301;
};
}),
(635,379,l,{
"Letterink-NibData" = {
AngleInDegrees = 140.24946;
};
}),
(469,636,l),
(434,684,l,{
"Letterink-NibData" = {
AngleInDegrees = "270";
};
}),
(314,684,l,{
"Letterink-NibData" = {
AngleInDegrees = "180";
};
}),
(250,162,l,{
"Letterink-NibData" = {
AngleInDegrees = "90";
};
}),
(416,162,l),
(432,301,l,{
"Letterink-NibData" = {
AngleInDegrees = 355.66769;
};
}),
(435,408,l,{
"Letterink-NibData" = {
AngleInDegrees = 143.1301;
};
}),
(502,286,l,{
"Letterink-NibData" = {
AngleInDegrees = 140.24946;
};
}),
(664,53,l),
(710,-5,l,{
"Letterink-NibData" = {
AngleInDegrees = "270";
};
})
);
},
{
closed = 1;
nodes = (
(421,536,l),
(421,684,l,{
"Letterink-NibData" = {
AngleInDegrees = "270";
};
}),
(279,684,l,{
"Letterink-NibData" = {
AngleInDegrees = "180";
};
}),
(279,535,l)
);
}
);
width = 911;
}
);
metricLeft = E.swsh;
metricRight = H;
userData = {
position = 642;
width = 56;
};
},
{
glyphname = O;
kernLeft = O;
kernRight = O;
layers = (
{
anchors = (
{
name = bottom;
pos = (350,-6);
},
{
name = center;
pos = (392,341);
},
{
name = horn;
pos = (542,689);
},
{
name = ogonek;
pos = (570,57);
},
{
name = top;
pos = (436,703);
},
{
name = topleft;
pos = (69,684);
},
{
name = topright;
pos = (828,684);
}
);
layerId = "0CAF3BED-C4AC-4024-B3E1-4C69D1EF7EC0";
shapes = (
{
closed = 1;
nodes = (
(547,-19,o),
(709,138,o),
(735,352,cs,{
"Letterink-NibData" = {
AngleInDegrees = "180";
};
}),
(759,551,o),
(630,704,o),
(438,704,cs,{
"Letterink-NibData" = {
AngleInDegrees = "270";
};
}),
(237,704,o),
(74,551,o),
(48,337,cs,{
"Letterink-NibData" = {
AngleInDegrees = "180";
};
}),
(24,138,o),
(153,-19,o),
(342,-19,cs,{
"Letterink-NibData" = {
AngleInDegrees = "270";
};
})
);
},
{
closed = 1;
nodes = (
(207,55,o),
(113,181,o),
(133,344,cs),
(153,510,o),
(282,630,o),
(430,630,cs,{
"Letterink-NibData" = {
AngleInDegrees = "90";
};
}),
(576,630,o),
(670,509,o),
(650,346,cs),
(630,180,o),
(502,55,o),
(352,55,cs,{
"Letterink-NibData" = {
AngleInDegrees = "90";
};
})
);
}
);
width = 759;
},
{
anchors = (
{
name = bottom;
pos = (340,3);
},
{
name = center;
pos = (383,342);
},
{
name = horn;
pos = (521,684);
},
{
name = ogonek;
pos = (538,53);
},
{
name = top;
pos = (424,691);
},
{
name = topleft;
pos = (57,684);
},
{
name = topright;
pos = (815,684);
}
);
layerId = "49C16FD3-6177-408B-A733-AEB3898BB77C";
shapes = (
{
closed = 1;
nodes = (
(522,-10,o),
(677,134,o),
(702,333,cs,{
"Letterink-NibData" = {
AngleInDegrees = "180";
};
}),
(727,540,o),
(611,694,o),
(424,694,cs,{
"Letterink-NibData" = {
AngleInDegrees = "270";
};
}),
(234,694,o),
(80,546,o),
(56,349,cs,{
"Letterink-NibData" = {
AngleInDegrees = "180";
};
}),
(30,140,o),
(148,-10,o),
(333,-10,cs,{
"Letterink-NibData" = {
AngleInDegrees = "270";
};
})
);
},
{
closed = 1;
nodes = (
(173,25,o),
(72,160,o),
(96,349,cs),
(118,523,o),
(256,659,o),
(420,659,cs,{
"Letterink-NibData" = {
AngleInDegrees = "90";
};
}),
(587,659,o),
(685,524,o),
(662,338,cs),
(640,162,o),
(504,25,o),
(337,25,cs,{
"Letterink-NibData" = {
AngleInDegrees = "90";
};
})
);
}
);
width = 736;
},
{
anchors = (
{
name = bottom;
pos = (358,-15);
},
{
name = center;
pos = (400,337);
},
{
name = horn;
pos = (583,687);
},
{
name = ogonek;
pos = (574,37);
},
{
name = top;
pos = (449,699);
},
{
name = topleft;
pos = (100,643);
},
{
name = topright;
pos = (805,643);
}
);
layerId = m004;
shapes = (
{
closed = 1;
nodes = (
(569,-32,o),
(738,111,o),
(765,333,cs,{
"Letterink-NibData" = {
AngleInDegrees = "180";
};
}),
(790,535,o),
(648,711,o),
(449,711,cs,{
"Letterink-NibData" = {
AngleInDegrees = "270";
};
}),
(236,711,o),
(67,562,o),
(38,338,cs,{
"Letterink-NibData" = {
AngleInDegrees = "180";
};
}),
(13,142,o),
(160,-32,o),
(354,-32,cs,{
"Letterink-NibData" = {
AngleInDegrees = "270";
};
})
);
},
{
closed = 1;
nodes = (
(264,115,o),
(188,210,o),
(203,332,cs),
(219,466,o),
(314,563,o),
(430,563,cs,{
"Letterink-NibData" = {
AngleInDegrees = "90";
};
}),
(543,563,o),
(616,474,o),
(600,344,cs),
(584,212,o),
(491,115,o),
(373,115,cs,{
"Letterink-NibData" = {
AngleInDegrees = "90";
};
})
);
}
);
width = 782;
}
);
unicode = 79;
userData = {
position = 683;
width = 56;
};
},
{
glyphname = OE;
kernLeft = O;
kernRight = E;
layers = (
{
anchors = (
{
name = bottom;
pos = (507,6);
},
{
name = top;
pos = (492,686);
}
);
layerId = "0CAF3BED-C4AC-4024-B3E1-4C69D1EF7EC0";
shapes = (
{
closed = 1;
nodes = (
(397,-15,o),
(439,-9,o),
(477,5,c),
(485,91,l),
(446,72,o),
(404,59,o),
(357,59,cs,{
"Letterink-NibData" = {
AngleInDegrees = "90";
};
}),
(208,59,o),
(114,185,o),
(133,341,cs),
(152,501,o),
(281,632,o),
(434,632,cs,{
"Letterink-NibData" = {
AngleInDegrees = "90";
};
}),
(477,632,o),
(517,621,o),
(551,602,c),
(557,684,l),
(522,698,o),
(482,706,o),
(437,706,cs,{
"Letterink-NibData" = {
AngleInDegrees = "270";
};
}),
(240,706,o),
(73,548,o),
(49,349,cs,{
"Letterink-NibData" = {
AngleInDegrees = "180";
};
}),
(25,146,o),
(155,-15,o),
(356,-15,cs,{
"Letterink-NibData" = {
AngleInDegrees = "270";
};
})
);
},
{
alignment = -1;
pos = (417,2);
ref = E.ss01;
}
);
width = 988;
},
{
anchors = (
{
name = bottom;
pos = (471,-6);
},
{
name = top;
pos = (555,679);
}
);
layerId = "49C16FD3-6177-408B-A733-AEB3898BB77C";
shapes = (
{
closed = 1;
nodes = (
(397,-12,o),
(445,-2,o),
(492,17,c),
(495,59,l),
(450,35,o),
(400,23,o),
(346,23,cs,{
"Letterink-NibData" = {
AngleInDegrees = "90";
};
}),
(179,23,o),
(74,159,o),
(96,343,cs),
(118,528,o),
(260,667,o),
(429,667,cs,{
"Letterink-NibData" = {
AngleInDegrees = "90";
};
}),
(481,667,o),
(527,654,o),
(567,630,c),
(571,672,l),
(529,691,o),
(482,702,o),
(430,702,cs,{
"Letterink-NibData" = {
AngleInDegrees = "270";
};
}),
(237,702,o),
(81,552,o),
(56,347,cs,{
"Letterink-NibData" = {
AngleInDegrees = "180";
};
}),
(31,139,o),
(151,-12,o),
(346,-12,cs,{
"Letterink-NibData" = {
AngleInDegrees = "270";
};
})
);
},
{
alignment = -1;
pos = (416,-2);
ref = E.ss01;
}
);
width = 975;
},
{
anchors = (
{
name = bottom;
pos = (529,0);
},
{
name = top;
pos = (515,695);
}
);
layerId = m004;
shapes = (
{
closed = 1;
nodes = (
(408,-12,o),
(454,-4,o),
(499,13,c),
(517,198,l),
(478,158,o),
(424,132,o),
(365,132,cs,{
"Letterink-NibData" = {
AngleInDegrees = "90";
};
}),
(261,132,o),
(192,221,o),
(207,339,cs),
(224,469,o),
(320,567,o),
(433,567,cs,{
"Letterink-NibData" = {
AngleInDegrees = "90";
};
}),
(486,567,o),
(530,547,o),
(559,506,c),
(581,684,l),
(541,701,o),
(490,711,o),
(437,711,cs,{
"Letterink-NibData" = {
AngleInDegrees = "270";
};
}),
(236,711,o),
(64,557,o),
(40,355,cs,{
"Letterink-NibData" = {
AngleInDegrees = "180";
};
}),
(16,149,o),
(155,-12,o),
(361,-12,cs,{
"Letterink-NibData" = {
AngleInDegrees = "270";
};
})
);
},
{
alignment = -1;
pos = (460,6);
ref = E.ss01;
}
);
width = 1046;
}
);
metricLeft = O;
metricRight = E;
unicode = 338;
userData = {
position = 502;
width = 61;
};
},
{
glyphname = P;
kernLeft = E;
kernRight = P;
layers = (
{
anchors = (
{
name = bottom;
pos = (357,0);
},
{
name = top;
pos = (357,684);
}
);
hints = (
{
name = _corner.caps_left;
origin = (0,22);
type = Corner;
}
);
layerId = "0CAF3BED-C4AC-4024-B3E1-4C69D1EF7EC0";
shapes = (
{
closed = 1;
nodes = (
(198,-1,l),
(273,610,l,{
"Letterink-NibData" = {
AngleInDegrees = 90;
};
}),
(401,610,ls,{
"Letterink-NibData" = {
AngleInDegrees = 90;
};
}),
(490,610,o),
(543,561,o),
(531,462,cs,{
"Letterink-NibData" = {
AngleInDegrees = 180;
};
}),
(517,345,o),
(430,301,o),
(358,301,cs,{
"Letterink-NibData" = {
AngleInDegrees = 270;
};
}),
(343,301,o),
(315,302,o),
(270,308,c,{
"Letterink-NibData" = {
AngleInDegrees = 180;
};
}),
(265,235,l,{
"Letterink-NibData" = {
AngleInDegrees = 104.03624;
};
}),
(305,227,o),
(336,225,o),
(360,225,cs,{
"Letterink-NibData" = {
AngleInDegrees = 90;
};
}),
(468,225,o),
(595,295,o),
(615,455,cs),
(630,578,o),
(560,686,o),
(420,686,cs,{
"Letterink-NibData" = {
AngleInDegrees = 270;
};
}),
(190,686,l,{
"Letterink-NibData" = {
AngleInDegrees = 180;
};
}),
(190,610,l),
(115,-1,l,{
"Letterink-NibData" = {
AngleInDegrees = 90;
};
})
);
}
);
width = 619;
},
{
anchors = (
{
name = bottom;
pos = (340,0);
},
{
name = top;
pos = (361,684);
}
);
hints = (
{
name = _corner.caps_left;
origin = (0,22);
type = Corner;
}
);
layerId = "49C16FD3-6177-408B-A733-AEB3898BB77C";
shapes = (
{
closed = 1;
nodes = (
(148,0,l),
(227,647,l,{
"Letterink-NibData" = {
AngleInDegrees = 90;
};
}),
(387,649,ls,{
"Letterink-NibData" = {
AngleInDegrees = 90;
};
}),
(488,650,o),
(557,591,o),
(541,468,cs,{
"Letterink-NibData" = {
AngleInDegrees = 180;
};
}),
(524,334,o),
(434,283,o),
(324,283,cs,{
"Letterink-NibData" = {
AngleInDegrees = 270;
};
}),
(312,283,o),
(280,284,o),
(245,286,c,{
"Letterink-NibData" = {
AngleInDegrees = 180;
};
}),
(243,252,l,{
"Letterink-NibData" = {
AngleInDegrees = 97.59464;
};
}),
(272,248,o),
(309,247,o),
(328,247,cs,{
"Letterink-NibData" = {
AngleInDegrees = 90;
};
}),
(448,247,o),
(561,312,o),
(581,465,cs),
(597,590,o),
(535,686,o),
(403,685,cs,{
"Letterink-NibData" = {
AngleInDegrees = 269.72846;
};
}),
(190,684,l,{
"Letterink-NibData" = {
AngleInDegrees = 180;
};
}),
(189,648,l),
(109,0,l,{
"Letterink-NibData" = {
AngleInDegrees = 90;
};
})
);
}
);
width = 592;
},
{
anchors = (
{
name = bottom;
pos = (417,0);
},
{
name = top;
pos = (417,684);
}
);
hints = (
{
name = _corner.caps_left;
origin = (0,22);
type = Corner;
}
);
layerId = m004;
shapes = (
{
closed = 1;
nodes = (
(318,-1,l),
(383,531,l,{
"Letterink-NibData" = {
AngleInDegrees = 90;
};
}),
(447,531,ls,{
"Letterink-NibData" = {
AngleInDegrees = 90;
};
}),
(488,531,o),
(531,500,o),
(523,432,cs,{
"Letterink-NibData" = {
AngleInDegrees = 180;
};
}),
(517,380,o),
(481,350,o),
(434,350,cs,{
"Letterink-NibData" = {
AngleInDegrees = 270;
};
}),
(420,350,o),
(413,350,o),
(396,356,c,{
"Letterink-NibData" = {
AngleInDegrees = 180;
};
}),
(384,209,l,{
"Letterink-NibData" = {
AngleInDegrees = 104.03624;
};
}),
(405,202,o),
(423,199,o),
(457,199,cs,{
"Letterink-NibData" = {
AngleInDegrees = 90;
};
}),
(581,199,o),
(680,308,o),
(693,429,cs),
(708,572,o),
(616,683,o),
(479,683,cs,{
"Letterink-NibData" = {
AngleInDegrees = 270;
};
}),
(223,683,l,{
"Letterink-NibData" = {
AngleInDegrees = 180;
};
}),
(217,535,l),
(151,-1,l,{
"Letterink-NibData" = {
AngleInDegrees = 90;
};
})
);
}
);
width = 692;
}
);
metricLeft = H;
unicode = 80;
userData = {
position = 480;
width = 59;
};
},
{
glyphname = P.ss01;
kernRight = P;
layers = (
{
anchors = (
{
name = bottom;
pos = (230,0);
},
{
name = top;
pos = (314,684);
}
);
layerId = "0CAF3BED-C4AC-4024-B3E1-4C69D1EF7EC0";
shapes = (
{
closed = 1;
nodes = (
(426,218,o),
(527,313,o),
(545,453,cs),
(562,587,o),
(486,686,o),
(359,686,cs,{
"Letterink-NibData" = {
AngleInDegrees = 270;
};
}),
(133,686,l,{
"Letterink-NibData" = {
AngleInDegrees = 180;
};
}),
(124,610,l,{
"Letterink-NibData" = {
AngleInDegrees = 90;
};
}),
(341,610,ls,{
"Letterink-NibData" = {
AngleInDegrees = 90;
};
}),
(425,610,o),
(474,558,o),
(462,464,cs,{
"Letterink-NibData" = {
AngleInDegrees = 180;
};
}),
(449,360,o),
(378,298,o),
(254,294,cs,{
"Letterink-NibData" = {
AngleInDegrees = 270;
};
}),
(224,293,o),
(177,300,o),
(136,305,c,{
"Letterink-NibData" = {
AngleInDegrees = 180;
};
}),
(130,228,l,{
"Letterink-NibData" = {
AngleInDegrees = 90;
};
}),
(147,228,o),
(215,218,o),
(240,218,cs,{
"Letterink-NibData" = {
AngleInDegrees = 90;
};
})
);
},
{
closed = 1;
nodes = (
(131,-1,l),
(215,683,l,{
"Letterink-NibData" = {
AngleInDegrees = 270;
};
}),
(132,683,l,{
"Letterink-NibData" = {
AngleInDegrees = 180;
};
}),
(48,-1,l,{
"Letterink-NibData" = {
AngleInDegrees = 90;
};
})
);
}
);
width = 549;
},
{
anchors = (
{
name = bottom;
pos = (207,0);
},
{
name = top;
pos = (297,684);
}
);
layerId = "49C16FD3-6177-408B-A733-AEB3898BB77C";
shapes = (
{
closed = 1;
nodes = (
(406,236,o),
(513,326,o),
(530,460,cs),
(547,598,o),
(473,685,o),
(340,685,cs,{
"Letterink-NibData" = {
AngleInDegrees = 270;
};
}),
(139,685,l,{
"Letterink-NibData" = {
AngleInDegrees = 180;
};
}),
(135,649,l,{
"Letterink-NibData" = {
AngleInDegrees = 90;
};
}),
(324,649,ls,{
"Letterink-NibData" = {
AngleInDegrees = 90;
};
}),
(452,649,o),
(505,579,o),
(491,467,cs,{
"Letterink-NibData" = {
AngleInDegrees = 180;
};
}),
(475,340,o),
(377,278,o),
(241,272,cs,{
"Letterink-NibData" = {
AngleInDegrees = 270;
};
}),
(219,271,o),
(144,272,o),
(113,283,c,{
"Letterink-NibData" = {
AngleInDegrees = 180;
};
}),
(110,248,l,{
"Letterink-NibData" = {
AngleInDegrees = 90;
};
}),
(130,238,o),
(207,236,o),
(228,236,cs,{
"Letterink-NibData" = {
AngleInDegrees = 90;
};
})
);
},
{
closed = 1;
nodes = (
(93,0,l),
(177,681,l,{
"Letterink-NibData" = {
AngleInDegrees = 270;
};
}),
(137,681,l,{
"Letterink-NibData" = {
AngleInDegrees = 180;
};
}),
(53,0,l,{
"Letterink-NibData" = {
AngleInDegrees = 90;
};
})
);
}
);
width = 541;
},
{
anchors = (
{
name = bottom;
pos = (259,-2);
},
{
name = top;
pos = (337,684);
}
);
layerId = m004;
shapes = (
{
closed = 1;
nodes = (
(478,189,o),
(569,303,o),
(584,426,cs),
(603,580,o),
(506,683,o),
(364,683,cs,{
"Letterink-NibData" = {
AngleInDegrees = "270";
};
}),
(120,683,l,{
"Letterink-NibData" = {
AngleInDegrees = "180";
};
}),
(101,531,l),
(337,531,ls,{
"Letterink-NibData" = {
AngleInDegrees = "90";
};
}),
(372,531,o),
(426,512,o),
(417,442,cs,{
"Letterink-NibData" = {
AngleInDegrees = "180";
};
}),
(410,390,o),
(373,340,o),
(287,340,cs,{
"Letterink-NibData" = {
AngleInDegrees = "270";
};
}),
(268,340,o),
(237,341,o),
(217,351,c,{
"Letterink-NibData" = {
AngleInDegrees = "180";
};
}),
(205,203,l,{
"Letterink-NibData" = {
AngleInDegrees = "104.03624";
};
}),
(224,196,o),
(265,189,o),
(307,189,cs,{
"Letterink-NibData" = {
AngleInDegrees = "90";
};
})
);
},
{
closed = 1;
nodes = (
(203,-1,l),
(270,547,l,{
"Letterink-NibData" = {
AngleInDegrees = "90";
};
}),
(105,559,l,{
"Letterink-NibData" = {
AngleInDegrees = "180";
};
}),
(36,-1,l,{
"Letterink-NibData" = {
AngleInDegrees = "90";
};
})
);
}
);
width = 583;
}
);
metricLeft = N.ss01;
metricRight = P;
userData = {
position = 480;
width = 59;
};
},
{
glyphname = P.swsh;
kernLeft = Swash;
kernRight = P;
layers = (
{
anchors = (
{
name = bottom;
pos = (414,0);
},
{
name = top;
pos = (434,684);
}
);
hints = (
{
name = _corner.caps_swash;
options = 1;
origin = (0,6);
type = Corner;
}
);
layerId = "0CAF3BED-C4AC-4024-B3E1-4C69D1EF7EC0";
shapes = (
{
closed = 1;
nodes = (
(539,224,o),
(661,307,o),
(679,454,cs),
(694,580,o),
(626,685,o),
(483,685,cs,{
"Letterink-NibData" = {
AngleInDegrees = 270;
};
}),
(231,685,l,{
"Letterink-NibData" = {
AngleInDegrees = 180;
};
}),
(232,609,l,{
"Letterink-NibData" = {
AngleInDegrees = 90;
};
}),
(464,609,ls,{
"Letterink-NibData" = {
AngleInDegrees = 90;
};
}),
(557,609,o),
(606,552,o),
(595,462,cs,{
"Letterink-NibData" = {
AngleInDegrees = 180;
};
}),
(583,363,o),
(511,300,o),
(399,300,cs,{
"Letterink-NibData" = {
AngleInDegrees = 270;
};
}),
(377,300,o),
(357,301,o),
(333,307,c,{
"Letterink-NibData" = {
AngleInDegrees = 180;
};
}),
(327,231,l,{
"Letterink-NibData" = {
AngleInDegrees = 103.24052;
};
}),
(344,227,o),
(365,224,o),
(393,224,cs,{
"Letterink-NibData" = {
AngleInDegrees = 90;
};
})
);
},
{
closed = 1;
nodes = (
(261,-1,l),
(330,559,l,{
"Letterink-NibData" = {
AngleInDegrees = 270;
};
}),
(247,559,l,{
"Letterink-NibData" = {
AngleInDegrees = 180;
};
}),
(178,-1,l,{
"Letterink-NibData" = {
AngleInDegrees = 90;
};
})
);
}
);
width = 683;
},
{
anchors = (
{
name = bottom;
pos = (402,0);
},
{
name = top;
pos = (402,684);
}
);
hints = (
{
name = _corner.caps_swash;
options = 1;
origin = (0,6);
type = Corner;
}
);
layerId = "49C16FD3-6177-408B-A733-AEB3898BB77C";
shapes = (
{
closed = 1;
nodes = (
(527,244,o),
(627,324,o),
(644,463,cs),
(660,592,o),
(589,684,o),
(438,684,cs,{
"Letterink-NibData" = {
AngleInDegrees = 270;
};
}),
(218,684,l,{
"Letterink-NibData" = {
AngleInDegrees = 180;
};
}),
(219,648,l,{
"Letterink-NibData" = {
AngleInDegrees = 90;
};
}),
(421,648,ls,{
"Letterink-NibData" = {
AngleInDegrees = 90;
};
}),
(552,648,o),
(618,585,o),
(604,469,cs,{
"Letterink-NibData" = {
AngleInDegrees = 180;
};
}),
(589,348,o),
(507,279,o),
(380,279,cs,{
"Letterink-NibData" = {
AngleInDegrees = 270;
};
}),
(359,279,o),
(336,281,o),
(312,284,c,{
"Letterink-NibData" = {
AngleInDegrees = 180;
};
}),
(309,249,l,{
"Letterink-NibData" = {
AngleInDegrees = 96.84277;
};
}),
(331,246,o),
(352,244,o),
(370,244,cs,{
"Letterink-NibData" = {
AngleInDegrees = 90;
};
})
);
},
{
closed = 1;
nodes = (
(211,0,l),
(281,569,l,{
"Letterink-NibData" = {
AngleInDegrees = 270;
};
}),
(243,569,l,{
"Letterink-NibData" = {
AngleInDegrees = 180;
};
}),
(173,0,l,{
"Letterink-NibData" = {
AngleInDegrees = 90;
};
})
);
}
);
width = 655;
},
{
anchors = (
{
name = bottom;
pos = (360,0);
},
{
name = top;
pos = (360,684);
}
);
hints = (
{
name = _corner.caps_swash;
options = 1;
origin = (0,6);
type = Corner;
}
);
layerId = m004;
shapes = (
{
closed = 1;
nodes = (
(632,199,o),
(727,312,o),
(739,406,cs),
(760,582,o),
(666,684,o),
(530,684,cs,{
"Letterink-NibData" = {
AngleInDegrees = "270";
};
}),
(263,684,l,{
"Letterink-NibData" = {
AngleInDegrees = "180";
};
}),
(259,536,l),
(497,536,ls,{
"Letterink-NibData" = {
AngleInDegrees = "90";
};
}),
(540,536,o),
(581,513,o),
(571,428,cs,{
"Letterink-NibData" = {
AngleInDegrees = "180";
};
}),
(567,393,o),
(532,350,o),
(485,350,cs,{
"Letterink-NibData" = {
AngleInDegrees = "270";
};
}),
(471,350,o),
(464,350,o),
(447,356,c,{
"Letterink-NibData" = {
AngleInDegrees = "180";
};
}),
(435,209,l,{
"Letterink-NibData" = {
AngleInDegrees = "104.03624";
};
}),
(456,202,o),
(474,199,o),
(508,199,cs,{
"Letterink-NibData" = {
AngleInDegrees = "90";
};
})
);
},
{
closed = 1;
nodes = (
(369,-1,l),
(430,497,l,{
"Letterink-NibData" = {
AngleInDegrees = "90";
};
}),
(264,499,l,{
"Letterink-NibData" = {
AngleInDegrees = "180";
};
}),
(203,-1,l,{
"Letterink-NibData" = {
AngleInDegrees = "90";
};
})
);
}
);
width = 741;
}
);
metricLeft = E.swsh;
metricRight = P;
userData = {
position = 480;
width = 59;
};
},
{
glyphname = Thorn;
kernRight = O;
layers = (
{
anchors = (
{
name = bottom;
pos = (234,0);
},
{
name = top;
pos = (318,684);
}
);
layerId = "0CAF3BED-C4AC-4024-B3E1-4C69D1EF7EC0";
shapes = (
{
closed = 1;
nodes = (
(131,-1,l),
(192,493,l,{
"Letterink-NibData" = {
AngleInDegrees = 90;
};
}),
(314,493,ls,{
"Letterink-NibData" = {
AngleInDegrees = 90;
};
}),
(398,493,o),
(443,437,o),
(431,339,cs,{
"Letterink-NibData" = {
AngleInDegrees = 180;
};
}),
(419,244,o),
(343,208,o),
(248,208,cs,{
"Letterink-NibData" = {
AngleInDegrees = 270;
};
}),
(227,208,o),
(206,211,o),
(182,215,c,{
"Letterink-NibData" = {
AngleInDegrees = 180;
};
}),
(176,138,l,{
"Letterink-NibData" = {
AngleInDegrees = 99.46232;
};
}),
(188,136,o),
(210,132,o),
(243,132,cs,{
"Letterink-NibData" = {
AngleInDegrees = 90;
};
}),
(376,132,o),
(496,198,o),
(513,330,cs),
(531,476,o),
(459,562,o),
(340,569,c,{
"Letterink-NibData" = {
AngleInDegrees = 270;
};
}),
(201,569,l),
(215,686,l,{
"Letterink-NibData" = {
AngleInDegrees = 270;
};
}),
(133,686,l,{
"Letterink-NibData" = {
AngleInDegrees = 180;
};
}),
(49,-1,l,{
"Letterink-NibData" = {
AngleInDegrees = 90;
};
})
);
}
);
width = 532;
},
{
anchors = (
{
name = bottom;
pos = (216,0);
},
{
name = top;
pos = (300,684);
}
);
layerId = "49C16FD3-6177-408B-A733-AEB3898BB77C";
shapes = (
{
closed = 1;
nodes = (
(91,1,l),
(155,523,l,{
"Letterink-NibData" = {
AngleInDegrees = 90;
};
}),
(284,523,ls,{
"Letterink-NibData" = {
AngleInDegrees = 90;
};
}),
(408,523,o),
(468,467,o),
(453,341,cs,{
"Letterink-NibData" = {
AngleInDegrees = 180;
};
}),
(440,234,o),
(343,177,o),
(234,177,cs,{
"Letterink-NibData" = {
AngleInDegrees = 270;
};
}),
(200,177,o),
(189,177,o),
(176,179,c,{
"Letterink-NibData" = {
AngleInDegrees = 180;
};
}),
(174,146,l,{
"Letterink-NibData" = {
AngleInDegrees = 101.30993;
};
}),
(183,144,o),
(208,143,o),
(230,143,cs,{
"Letterink-NibData" = {
AngleInDegrees = 90;
};
}),
(367,143,o),
(475,204,o),
(491,335,cs),
(508,477,o),
(448,552,o),
(306,559,c,{
"Letterink-NibData" = {
AngleInDegrees = 270;
};
}),
(160,559,l),
(175,685,l,{
"Letterink-NibData" = {
AngleInDegrees = 270;
};
}),
(137,685,l,{
"Letterink-NibData" = {
AngleInDegrees = 180;
};
}),
(53,1,l,{
"Letterink-NibData" = {
AngleInDegrees = 90;
};
})
);
}
);
width = 518;
},
{
anchors = (
{
name = bottom;
pos = (254,0);
},
{
name = top;
pos = (338,684);
}
);
layerId = m004;
shapes = (
{
closed = 1;
nodes = (
(201,-1,l),
(255,440,l),
(317,440,ls,{
"Letterink-NibData" = {
AngleInDegrees = "90";
};
}),
(360,440,o),
(402,402,o),
(395,342,cs,{
"Letterink-NibData" = {
AngleInDegrees = "180";
};
}),
(388,282,o),
(352,255,o),
(305,255,cs,{
"Letterink-NibData" = {
AngleInDegrees = "270";
};
}),
(291,255,o),
(284,255,o),
(267,261,c,{
"Letterink-NibData" = {
AngleInDegrees = "180";
};
}),
(255,114,l,{
"Letterink-NibData" = {
AngleInDegrees = "104.03624";
};
}),
(276,107,o),
(294,104,o),
(328,104,cs,{
"Letterink-NibData" = {
AngleInDegrees = "90";
};
}),
(454,104,o),
(552,217,o),
(565,324,cs),
(584,487,o),
(489,588,o),
(350,588,cs,{
"Letterink-NibData" = {
AngleInDegrees = "270";
};
}),
(273,588,l),
(285,683,l,{
"Letterink-NibData" = {
AngleInDegrees = "90";
};
}),
(119,685,l,{
"Letterink-NibData" = {
AngleInDegrees = "180";
};
}),
(35,-1,l,{
"Letterink-NibData" = {
AngleInDegrees = "90";
};
})
);
}
);
width = 577;
}
);
metricLeft = "=|H";
metricRight = P;
unicode = 222;
userData = {
position = 403;
width = 59;
};
},
{
glyphname = Thorn.ss01;
kernRight = O;
layers = (
{
anchors = (
{
name = bottom;
pos = (235,0);
},
{
name = top;
pos = (319,684);
}
);
layerId = "0CAF3BED-C4AC-4024-B3E1-4C69D1EF7EC0";
shapes = (
{
closed = 1;
nodes = (
(378,132,o),
(497,198,o),
(516,349,cs),
(532,476,o),
(461,562,o),
(341,569,c,{
"Letterink-NibData" = {
AngleInDegrees = 270;
};
}),
(186,569,l),
(177,493,l),
(315,493,ls,{
"Letterink-NibData" = {
AngleInDegrees = 90;
};
}),
(399,493,o),
(444,448,o),
(433,360,cs,{
"Letterink-NibData" = {
AngleInDegrees = 180;
};
}),
(420,255,o),
(344,208,o),
(249,208,cs,{
"Letterink-NibData" = {
AngleInDegrees = 270;
};
}),
(228,208,o),
(146,206,o),
(122,210,c,{
"Letterink-NibData" = {
AngleInDegrees = 180;
};
}),
(116,133,l,{
"Letterink-NibData" = {
AngleInDegrees = 99.46232;
};
}),
(128,131,o),
(211,132,o),
(244,132,cs,{
"Letterink-NibData" = {
AngleInDegrees = 90;
};
})
);
},
{
closed = 1;
nodes = (
(132,-1,l),
(216,686,l,{
"Letterink-NibData" = {
AngleInDegrees = 270;
};
}),
(133,686,l,{
"Letterink-NibData" = {
AngleInDegrees = 180;
};
}),
(49,-1,l,{
"Letterink-NibData" = {
AngleInDegrees = 90;
};
})
);
}
);
width = 533;
},
{
anchors = (
{
name = bottom;
pos = (216,0);
},
{
name = top;
pos = (300,684);
}
);
layerId = "49C16FD3-6177-408B-A733-AEB3898BB77C";
shapes = (
{
closed = 1;
nodes = (
(366,143,o),
(473,204,o),
(491,351,cs),
(506,477,o),
(446,552,o),
(329,559,c,{
"Letterink-NibData" = {
AngleInDegrees = 270;
};
}),
(150,559,l),
(145,523,l),
(307,523,ls,{
"Letterink-NibData" = {
AngleInDegrees = 90;
};
}),
(406,523,o),
(465,467,o),
(451,351,cs,{
"Letterink-NibData" = {
AngleInDegrees = 180;
};
}),
(437,234,o),
(342,177,o),
(234,177,cs,{
"Letterink-NibData" = {
AngleInDegrees = 270;
};
}),
(184,177,o),
(120,174,o),
(104,177,c,{
"Letterink-NibData" = {
AngleInDegrees = 180;
};
}),
(102,144,l,{
"Letterink-NibData" = {
AngleInDegrees = 101.30993;
};
}),
(110,142,o),
(209,143,o),
(230,143,cs,{
"Letterink-NibData" = {
AngleInDegrees = 90;
};
})
);
},
{
closed = 1;
nodes = (
(91,1,l),
(175,685,l,{
"Letterink-NibData" = {
AngleInDegrees = 270;
};
}),
(137,685,l,{
"Letterink-NibData" = {
AngleInDegrees = 180;
};
}),
(53,1,l,{
"Letterink-NibData" = {
AngleInDegrees = 90;
};
})
);
}
);
width = 516;
},
{
anchors = (
{
name = bottom;
pos = (246,0);
},
{
name = top;
pos = (330,684);
}
);
layerId = m004;
shapes = (
{
closed = 1;
nodes = (
(456,102,o),
(544,214,o),
(559,334,cs),
(578,485,o),
(485,586,o),
(351,586,cs,{
"Letterink-NibData" = {
AngleInDegrees = "270";
};
}),
(109,586,l,{
"Letterink-NibData" = {
AngleInDegrees = "180";
};
}),
(90,434,l),
(324,434,ls,{
"Letterink-NibData" = {
AngleInDegrees = "90";
};
}),
(354,434,o),
(400,416,o),
(392,350,cs,{
"Letterink-NibData" = {
AngleInDegrees = "180";
};
}),
(386,301,o),
(349,253,o),
(266,253,cs,{
"Letterink-NibData" = {
AngleInDegrees = "270";
};
}),
(246,253,o),
(215,254,o),
(196,264,c,{
"Letterink-NibData" = {
AngleInDegrees = "180";
};
}),
(183,116,l,{
"Letterink-NibData" = {
AngleInDegrees = "104.03624";
};
}),
(202,109,o),
(244,102,o),
(286,102,cs,{
"Letterink-NibData" = {
AngleInDegrees = "90";
};
})
);
},
{
closed = 1;
nodes = (
(202,-1,l),
(286,684,l,{
"Letterink-NibData" = {
AngleInDegrees = "90";
};
}),
(120,688,l,{
"Letterink-NibData" = {
AngleInDegrees = "180";
};
}),
(36,-1,l,{
"Letterink-NibData" = {
AngleInDegrees = "90";
};
})
);
}
);
width = 570;
}
);
metricLeft = "=|H";
metricRight = P;
userData = {
position = 403;
width = 59;
};
},
{
glyphname = Q;
kernLeft = O;
kernRight = O;
layers = (
{
anchors = (
{
name = bottom;
pos = (333,0);
},
{
name = top;
pos = (417,684);
}
);
layerId = "0CAF3BED-C4AC-4024-B3E1-4C69D1EF7EC0";
shapes = (
{
closed = 1;
nodes = (
(210,-137,l,{
"Letterink-NibData" = {
AngleInDegrees = 108.2394;
};
}),
(237,-143,o),
(266,-155,o),
(295,-165,cs,{
"Letterink-NibData" = {
AngleInDegrees = 107.52557;
};
}),
(330,-177,o),
(363,-188,o),
(422,-188,cs,{
"Letterink-NibData" = {
AngleInDegrees = 90;
};
}),
(458,-188,o),
(504,-176,o),
(552,-139,c,{
"Letterink-NibData" = {
AngleInDegrees = 330.25512;
};
}),
(521,-74,l,{
"Letterink-NibData" = {
AngleInDegrees = 234.34467;
};
}),
(471,-107,o),
(450,-114,o),
(417,-114,cs,{
"Letterink-NibData" = {
AngleInDegrees = 270;
};
}),
(388,-114,o),
(352,-107,o),
(316,-96,cs,{
"Letterink-NibData" = {
AngleInDegrees = 288.43495;
};
}),
(297,-90,o),
(278,-77,o),
(257,-74,c,{
"Letterink-NibData" = {
AngleInDegrees = 34.09498;
};
}),
(322,4,l,{
"Letterink-NibData" = {
AngleInDegrees = 90;
};
}),
(242,17,l,{
"Letterink-NibData" = {
AngleInDegrees = 215.43331;
};
}),
(102,-152,l,{
"Letterink-NibData" = {
AngleInDegrees = 128.07278;
};
}),
(158,-199,l,{
"Letterink-NibData" = {
AngleInDegrees = 34.74318;
};
})
);
},
{
ref = O;
}
);
width = 759;
},
{
anchors = (
{
name = bottom;
pos = (327,0);
},
{
name = top;
pos = (411,684);
}
);
layerId = "49C16FD3-6177-408B-A733-AEB3898BB77C";
shapes = (
{
closed = 1;
nodes = (
(184,-129,l,{
"Letterink-NibData" = {
AngleInDegrees = 108.43495;
};
}),
(220,-134,o),
(255,-153,o),
(291,-164,cs,{
"Letterink-NibData" = {
AngleInDegrees = 108.79988;
};
}),
(338,-179,o),
(373,-188,o),
(420,-188,cs,{
"Letterink-NibData" = {
AngleInDegrees = 90;
};
}),
(451,-188,o),
(485,-181,o),
(528,-152,c,{
"Letterink-NibData" = {
AngleInDegrees = 329.03624;
};
}),
(514,-121,l,{
"Letterink-NibData" = {
AngleInDegrees = 236.30993;
};
}),
(470,-148,o),
(441,-152,o),
(414,-152,cs,{
"Letterink-NibData" = {
AngleInDegrees = 270;
};
}),
(379,-152,o),
(340,-146,o),
(297,-132,cs,{
"Letterink-NibData" = {
AngleInDegrees = 288.62158;
};
}),
(266,-122,o),
(238,-107,o),
(207,-99,c,{
"Letterink-NibData" = {
AngleInDegrees = 34.33965;
};
}),
(297,9,l,{
"Letterink-NibData" = {
AngleInDegrees = 90;
};
}),
(259,16,l,{
"Letterink-NibData" = {
AngleInDegrees = 215.53768;
};
}),
(109,-164,l,{
"Letterink-NibData" = {
AngleInDegrees = 126.57303;
};
}),
(134,-187,l,{
"Letterink-NibData" = {
AngleInDegrees = 33.25437;
};
})
);
},
{
ref = O;
}
);
width = 736;
},
{
anchors = (
{
name = bottom;
pos = (342,0);
},
{
name = top;
pos = (426,684);
}
);
layerId = m004;
shapes = (
{
closed = 1;
nodes = (
(222,-203,l,{
"Letterink-NibData" = {
AngleInDegrees = 108.2394;
};
}),
(240,-210,o),
(262,-218,o),
(283,-222,cs,{
"Letterink-NibData" = {
AngleInDegrees = 107.52557;
};
}),
(310,-227,o),
(345,-245,o),
(413,-245,cs,{
"Letterink-NibData" = {
AngleInDegrees = 90;
};
}),
(476,-245,o),
(530,-228,o),
(616,-173,c,{
"Letterink-NibData" = {
AngleInDegrees = 330.25512;
};
}),
(555,-48,l,{
"Letterink-NibData" = {
AngleInDegrees = 234.34467;
};
}),
(507,-81,o),
(466,-98,o),
(419,-98,cs,{
"Letterink-NibData" = {
AngleInDegrees = 270;
};
}),
(395,-98,o),
(371,-97,o),
(353,-94,cs,{
"Letterink-NibData" = {
AngleInDegrees = 288.43495;
};
}),
(341,-92,o),
(326,-85,o),
(314,-80,c,{
"Letterink-NibData" = {
AngleInDegrees = 34.09498;
};
}),
(441,67,l,{
"Letterink-NibData" = {
AngleInDegrees = 90;
};
}),
(279,94,l,{
"Letterink-NibData" = {
AngleInDegrees = 215.43331;
};
}),
(56,-171,l,{
"Letterink-NibData" = {
AngleInDegrees = 128.07278;
};
}),
(170,-265,l,{
"Letterink-NibData" = {
AngleInDegrees = 34.74318;
};
})
);
},
{
ref = O;
}
);
width = 782;
}
);
metricLeft = O;
metricRight = O;
unicode = 81;
userData = {
position = 652;
width = 60;
};
},
{
glyphname = Q.swsh;
kernLeft = O;
kernRight = O;
layers = (
{
anchors = (
{
name = bottom;
pos = (385,0);
},
{
name = top;
pos = (385,684);
}
);
layerId = "0CAF3BED-C4AC-4024-B3E1-4C69D1EF7EC0";
shapes = (
{
closed = 1;
nodes = (
(635,-274,o),
(720,-155,o),
(659,-60,cs),
(620,1,o),
(519,5,o),
(468,-51,c),
(523,-100,l),
(545,-77,o),
(576,-78,o),
(591,-101,cs),
(621,-148,o),
(581,-195,o),
(514,-192,cs),
(420,-188,o),
(379,-71,o),
(205,-97,c),
(215,-167,l),
(361,-150,o),
(387,-262,o),
(511,-268,cs)
);
},
{
closed = 1;
nodes = (
(333,4,l,{
"Letterink-NibData" = {
AngleInDegrees = 90;
};
}),
(253,17,l,{
"Letterink-NibData" = {
AngleInDegrees = 215.43331;
};
}),
(133,-152,l,{
"Letterink-NibData" = {
AngleInDegrees = 128.07278;
};
}),
(193,-199,l,{
"Letterink-NibData" = {
AngleInDegrees = 34.74318;
};
})
);
},
{
ref = O;
}
);
width = 763;
},
{
anchors = (
{
name = bottom;
pos = (370,0);
},
{
name = top;
pos = (370,684);
}
);
layerId = "49C16FD3-6177-408B-A733-AEB3898BB77C";
shapes = (
{
closed = 1;
nodes = (
(592,-256,o),
(675,-148,o),
(619,-62,cs),
(584,-8,o),
(495,-3,o),
(458,-57,c),
(487,-79,l),
(514,-42,o),
(563,-45,o),
(587,-82,cs),
(627,-143,o),
(569,-225,o),
(487,-222,cs),
(375,-218,o),
(317,-101,o),
(171,-120,c),
(177,-155,l),
(306,-139,o),
(372,-261,o),
(496,-258,cs)
);
},
{
closed = 1;
nodes = (
(289,-1,l,{
"Letterink-NibData" = {
AngleInDegrees = 90;
};
}),
(257,6,l,{
"Letterink-NibData" = {
AngleInDegrees = 215.53768;
};
}),
(125,-179,l,{
"Letterink-NibData" = {
AngleInDegrees = 126.57303;
};
}),
(153,-199,l,{
"Letterink-NibData" = {
AngleInDegrees = 33.25437;
};
})
);
},
{
ref = O;
}
);
width = 736;
},
{
anchors = (
{
name = bottom;
pos = (370,0);
},
{
name = top;
pos = (370,684);
}
);
layerId = m004;
shapes = (
{
closed = 1;
nodes = (
(653,-308,o),
(745,-176,o),
(678,-69,cs),
(628,11,o),
(513,26,o),
(451,-56,c),
(535,-136,l),
(547,-130,o),
(555,-131,o),
(558,-139,cs),
(564,-155,o),
(549,-167,o),
(531,-166,cs),
(419,-160,o),
(393,-51,o),
(241,-85,c),
(255,-208,l),
(340,-201,o),
(389,-298,o),
(516,-303,cs)
);
},
{
closed = 1;
nodes = (
(457,67,l,{
"Letterink-NibData" = {
AngleInDegrees = "90";
};
}),
(294,94,l,{
"Letterink-NibData" = {
AngleInDegrees = "215.43331";
};
}),
(102,-171,l,{
"Letterink-NibData" = {
AngleInDegrees = "128.07278";
};
}),
(225,-265,l,{
"Letterink-NibData" = {
AngleInDegrees = "34.74318";
};
})
);
},
{
ref = O;
}
);
width = 782;
}
);
metricLeft = O;
metricRight = O;
userData = {
position = 652;
width = 60;
};
},
{
glyphname = R;
kernLeft = E;
kernRight = R;
layers = (
{
anchors = (
{
name = bottom;
pos = (312,0);
},
{
name = top;
pos = (383,684);
}
);
hints = (
{
name = _corner.caps_left;
origin = (0,25);
type = Corner;
}
);
layerId = "0CAF3BED-C4AC-4024-B3E1-4C69D1EF7EC0";
shapes = (
{
closed = 1;
nodes = (
(574,-15,o),
(603,2,o),
(623,31,c,{
"Letterink-NibData" = {
AngleInDegrees = "304.93094";
};
}),
(571,78,l,{
"Letterink-NibData" = {
AngleInDegrees = "201.80141";
};
}),
(565,69,o),
(557,61,o),
(549,61,cs,{
"Letterink-NibData" = {
AngleInDegrees = "270";
};
}),
(541,61,o),
(536,63,o),
(532,70,cs,{
"Letterink-NibData" = {
AngleInDegrees = "324.61211";
};
}),
(504,118,o),
(500,173,o),
(475,220,cs,{
"Letterink-NibData" = {
AngleInDegrees = "323.74616";
};
}),
(456,254,o),
(437,281,o),
(414,288,c,{
"Letterink-NibData" = {
AngleInDegrees = "90";
};
}),
(443,289,o),
(474,294,o),
(492,305,cs,{
"Letterink-NibData" = {
AngleInDegrees = "58.17255";
};
}),
(561,345,o),
(608,402,o),
(617,472,cs),
(631,590,o),
(559,686,o),
(433,686,cs,{
"Letterink-NibData" = {
AngleInDegrees = "270";
};
}),
(203,686,l,{
"Letterink-NibData" = {
AngleInDegrees = "180";
};
}),
(200,613,l),
(124,-1,l,{
"Letterink-NibData" = {
AngleInDegrees = "90";
};
}),
(207,-1,l),
(282,611,l,{
"Letterink-NibData" = {
AngleInDegrees = "90";
};
}),
(425,611,ls,{
"Letterink-NibData" = {
AngleInDegrees = "90";
};
}),
(499,611,o),
(542,556,o),
(533,476,cs,{
"Letterink-NibData" = {
AngleInDegrees = "180";
};
}),
(523,396,o),
(462,345,o),
(378,345,cs,{
"Letterink-NibData" = {
AngleInDegrees = "270";
};
}),
(305,345,l,{
"Letterink-NibData" = {
AngleInDegrees = "180";
};
}),
(297,268,l,{
"Letterink-NibData" = {
AngleInDegrees = "93.27049";
};
}),
(365,264,o),
(370,242,o),
(398,194,cs,{
"Letterink-NibData" = {
AngleInDegrees = "144.29331";
};
}),
(429,142,o),
(434,81,o),
(465,29,cs,{
"Letterink-NibData" = {
AngleInDegrees = "144.09028";
};
}),
(482,0,o),
(510,-15,o),
(540,-15,cs,{
"Letterink-NibData" = {
AngleInDegrees = "90";
};
})
);
}
);
width = 663;
},
{
anchors = (
{
name = bottom;
pos = (275,0);
},
{
name = top;
pos = (355,684);
}
);
hints = (
{
name = _corner.caps_left;
origin = (0,25);
type = Corner;
}
);
layerId = "49C16FD3-6177-408B-A733-AEB3898BB77C";
shapes = (
{
closed = 1;
nodes = (
(555,-9,o),
(580,10,o),
(591,28,c,{
"Letterink-NibData" = {
AngleInDegrees = "304.11447";
};
}),
(567,51,l,{
"Letterink-NibData" = {
AngleInDegrees = "225";
};
}),
(560,39,o),
(542,26,o),
(529,26,cs,{
"Letterink-NibData" = {
AngleInDegrees = "270";
};
}),
(515,26,o),
(506,35,o),
(500,46,cs,{
"Letterink-NibData" = {
AngleInDegrees = "323.49856";
};
}),
(462,110,o),
(448,183,o),
(401,250,cs,{
"Letterink-NibData" = {
AngleInDegrees = "322.59464";
};
}),
(384,275,o),
(376,282,o),
(348,293,c,{
"Letterink-NibData" = {
AngleInDegrees = "90";
};
}),
(362,293,o),
(375,293,o),
(388,293,cs,{
"Letterink-NibData" = {
AngleInDegrees = "90";
};
}),
(478,291,o),
(565,372,o),
(579,482,cs),
(593,597,o),
(525,685,o),
(411,685,cs,{
"Letterink-NibData" = {
AngleInDegrees = "269.73838";
};
}),
(194,685,l,{
"Letterink-NibData" = {
AngleInDegrees = "180";
};
}),
(194,658,l),
(113,1,l,{
"Letterink-NibData" = {
AngleInDegrees = "90";
};
}),
(152,1,l),
(231,649,l,{
"Letterink-NibData" = {
AngleInDegrees = "90";
};
}),
(405,649,ls,{
"Letterink-NibData" = {
AngleInDegrees = "90";
};
}),
(494,649,o),
(551,578,o),
(539,484,cs,{
"Letterink-NibData" = {
AngleInDegrees = "180";
};
}),
(528,387,o),
(458,321,o),
(352,321,cs,{
"Letterink-NibData" = {
AngleInDegrees = "270";
};
}),
(264,321,l,{
"Letterink-NibData" = {
AngleInDegrees = "180";
};
}),
(260,286,l,{
"Letterink-NibData" = {
AngleInDegrees = "97.30576000000001";
};
}),
(337,281,o),
(371,236,o),
(394,197,cs,{
"Letterink-NibData" = {
AngleInDegrees = "143.79054";
};
}),
(431,136,o),
(433,90,o),
(470,28,cs,{
"Letterink-NibData" = {
AngleInDegrees = "143.84181";
};
}),
(486,2,o),
(505,-9,o),
(528,-9,cs,{
"Letterink-NibData" = {
AngleInDegrees = "90";
};
})
);
}
);
width = 637;
},
{
anchors = (
{
name = bottom;
pos = (397,-10);
},
{
name = top;
pos = (465,684);
}
);
hints = (
{
name = _corner.caps_left;
origin = (0,25);
type = Corner;
}
);
layerId = m004;
shapes = (
{
closed = 1;
nodes = (
(659,-27,o),
(704,0,o),
(733,40,c,{
"Letterink-NibData" = {
AngleInDegrees = "330.25512";
};
}),
(650,131,l,{
"Letterink-NibData" = {
AngleInDegrees = "225";
};
}),
(645,127,o),
(642,122,o),
(635,122,cs,{
"Letterink-NibData" = {
AngleInDegrees = "270";
};
}),
(620,122,o),
(611,131,o),
(600,155,cs,{
"Letterink-NibData" = {
AngleInDegrees = "321.54629";
};
}),
(587,187,o),
(590,211,o),
(575,242,cs,{
"Letterink-NibData" = {
AngleInDegrees = "321.07246";
};
}),
(561,269,o),
(548,286,o),
(511,300,c,{
"Letterink-NibData" = {
AngleInDegrees = "90";
};
}),
(533,301,o),
(556,303,o),
(574,308,cs),
(658,331,o),
(708,401,o),
(718,484,cs),
(732,597,o),
(653,684,o),
(518,684,cs,{
"Letterink-NibData" = {
AngleInDegrees = "270";
};
}),
(229,684,l,{
"Letterink-NibData" = {
AngleInDegrees = "180";
};
}),
(226,546,l),
(156,0,l),
(317,0,l),
(387,536,l),
(476,536,ls,{
"Letterink-NibData" = {
AngleInDegrees = "90";
};
}),
(537,536,o),
(560,517,o),
(554,467,cs,{
"Letterink-NibData" = {
AngleInDegrees = "180";
};
}),
(548,420,o),
(512,389,o),
(447,389,cs,{
"Letterink-NibData" = {
AngleInDegrees = "270";
};
}),
(410,389,l,{
"Letterink-NibData" = {
AngleInDegrees = "180";
};
}),
(394,233,l,{
"Letterink-NibData" = {
AngleInDegrees = "91.4688";
};
}),
(405,233,o),
(422,210,o),
(435,181,cs,{
"Letterink-NibData" = {
AngleInDegrees = "143.88701";
};
}),
(455,137,o),
(476,55,o),
(491,34,cs,{
"Letterink-NibData" = {
AngleInDegrees = "143.47114";
};
}),
(512,4,o),
(545,-27,o),
(613,-27,cs,{
"Letterink-NibData" = {
AngleInDegrees = "90";
};
})
);
}
);
width = 762;
}
);
metricLeft = E;
unicode = 82;
userData = {
position = 619;
width = 57;
};
},
